G04 EAGLE Gerber RS-274X export*
G75*
%MOMM*%
%FSLAX34Y34*%
%LPD*%
%INBottom Copper*%
%IPPOS*%
%AMOC8*
5,1,8,0,0,1.08239X$1,22.5*%
G01*
%ADD10C,1.320800*%
%ADD11C,2.514600*%
%ADD12C,0.914400*%
%ADD13C,0.381000*%
%ADD14C,0.812800*%

G36*
X891298Y10164D02*
X891298Y10164D01*
X891317Y10162D01*
X891419Y10184D01*
X891521Y10200D01*
X891538Y10210D01*
X891558Y10214D01*
X891647Y10267D01*
X891738Y10316D01*
X891752Y10330D01*
X891769Y10340D01*
X891836Y10419D01*
X891908Y10494D01*
X891916Y10512D01*
X891929Y10527D01*
X891968Y10623D01*
X892011Y10717D01*
X892013Y10737D01*
X892021Y10755D01*
X892039Y10922D01*
X892039Y488278D01*
X892036Y488298D01*
X892038Y488317D01*
X892016Y488419D01*
X892000Y488521D01*
X891990Y488538D01*
X891986Y488558D01*
X891933Y488647D01*
X891884Y488738D01*
X891870Y488752D01*
X891860Y488769D01*
X891781Y488836D01*
X891706Y488908D01*
X891688Y488916D01*
X891673Y488929D01*
X891577Y488968D01*
X891483Y489011D01*
X891463Y489013D01*
X891445Y489021D01*
X891278Y489039D01*
X10922Y489039D01*
X10902Y489036D01*
X10883Y489038D01*
X10781Y489016D01*
X10679Y489000D01*
X10662Y488990D01*
X10642Y488986D01*
X10553Y488933D01*
X10462Y488884D01*
X10448Y488870D01*
X10431Y488860D01*
X10364Y488781D01*
X10292Y488706D01*
X10284Y488688D01*
X10271Y488673D01*
X10232Y488577D01*
X10189Y488483D01*
X10187Y488463D01*
X10179Y488445D01*
X10161Y488278D01*
X10161Y10922D01*
X10164Y10902D01*
X10162Y10883D01*
X10184Y10781D01*
X10200Y10679D01*
X10210Y10662D01*
X10214Y10642D01*
X10267Y10553D01*
X10316Y10462D01*
X10330Y10448D01*
X10340Y10431D01*
X10419Y10364D01*
X10494Y10292D01*
X10512Y10284D01*
X10527Y10271D01*
X10623Y10232D01*
X10717Y10189D01*
X10737Y10187D01*
X10755Y10179D01*
X10922Y10161D01*
X891278Y10161D01*
X891298Y10164D01*
G37*
%LPC*%
G36*
X99421Y149632D02*
X99421Y149632D01*
X93866Y151933D01*
X89614Y156185D01*
X87313Y161740D01*
X87313Y167752D01*
X89614Y173307D01*
X93866Y177559D01*
X99421Y179860D01*
X130579Y179860D01*
X136134Y177559D01*
X140386Y173307D01*
X141002Y171821D01*
X141063Y171721D01*
X141123Y171621D01*
X141128Y171617D01*
X141131Y171612D01*
X141222Y171537D01*
X141310Y171461D01*
X141316Y171459D01*
X141321Y171455D01*
X141429Y171413D01*
X141538Y171369D01*
X141546Y171368D01*
X141550Y171367D01*
X141569Y171366D01*
X141705Y171351D01*
X311384Y171351D01*
X311404Y171354D01*
X311423Y171352D01*
X311525Y171374D01*
X311627Y171390D01*
X311644Y171400D01*
X311664Y171404D01*
X311753Y171457D01*
X311844Y171506D01*
X311858Y171520D01*
X311875Y171530D01*
X311942Y171609D01*
X312014Y171684D01*
X312022Y171702D01*
X312035Y171717D01*
X312074Y171813D01*
X312117Y171907D01*
X312119Y171927D01*
X312127Y171945D01*
X312145Y172112D01*
X312145Y224607D01*
X312131Y224697D01*
X312123Y224788D01*
X312111Y224818D01*
X312106Y224850D01*
X312063Y224930D01*
X312027Y225014D01*
X312001Y225046D01*
X311990Y225067D01*
X311967Y225089D01*
X311922Y225145D01*
X310347Y226720D01*
X308955Y230081D01*
X308955Y233719D01*
X310347Y237080D01*
X312920Y239653D01*
X316281Y241045D01*
X319919Y241045D01*
X323280Y239653D01*
X325853Y237080D01*
X327245Y233719D01*
X327245Y230081D01*
X325853Y226720D01*
X325578Y226445D01*
X325525Y226371D01*
X325465Y226302D01*
X325453Y226272D01*
X325434Y226245D01*
X325407Y226158D01*
X325373Y226074D01*
X325369Y226033D01*
X325362Y226010D01*
X325363Y225978D01*
X325355Y225907D01*
X325355Y172112D01*
X325358Y172092D01*
X325356Y172073D01*
X325378Y171971D01*
X325394Y171869D01*
X325404Y171852D01*
X325408Y171832D01*
X325461Y171743D01*
X325510Y171652D01*
X325524Y171638D01*
X325534Y171621D01*
X325613Y171554D01*
X325688Y171482D01*
X325706Y171474D01*
X325721Y171461D01*
X325817Y171422D01*
X325911Y171379D01*
X325931Y171377D01*
X325949Y171369D01*
X326116Y171351D01*
X480734Y171351D01*
X480754Y171354D01*
X480773Y171352D01*
X480875Y171374D01*
X480977Y171390D01*
X480994Y171400D01*
X481014Y171404D01*
X481103Y171457D01*
X481194Y171506D01*
X481208Y171520D01*
X481225Y171530D01*
X481292Y171609D01*
X481364Y171684D01*
X481372Y171702D01*
X481385Y171717D01*
X481424Y171813D01*
X481467Y171907D01*
X481469Y171927D01*
X481477Y171945D01*
X481495Y172112D01*
X481495Y225257D01*
X481481Y225347D01*
X481473Y225438D01*
X481461Y225468D01*
X481456Y225500D01*
X481413Y225580D01*
X481377Y225664D01*
X481351Y225696D01*
X481340Y225717D01*
X481317Y225739D01*
X481272Y225795D01*
X480347Y226720D01*
X478955Y230081D01*
X478955Y233719D01*
X480347Y237080D01*
X482920Y239653D01*
X486281Y241045D01*
X489919Y241045D01*
X493280Y239653D01*
X495853Y237080D01*
X497245Y233719D01*
X497245Y230081D01*
X495853Y226720D01*
X494928Y225795D01*
X494875Y225721D01*
X494815Y225652D01*
X494803Y225622D01*
X494784Y225595D01*
X494757Y225508D01*
X494723Y225424D01*
X494719Y225383D01*
X494712Y225360D01*
X494713Y225328D01*
X494705Y225257D01*
X494705Y172112D01*
X494708Y172092D01*
X494706Y172073D01*
X494728Y171971D01*
X494744Y171869D01*
X494754Y171852D01*
X494758Y171832D01*
X494811Y171743D01*
X494860Y171652D01*
X494874Y171638D01*
X494884Y171621D01*
X494963Y171554D01*
X495038Y171482D01*
X495056Y171474D01*
X495071Y171461D01*
X495167Y171422D01*
X495261Y171379D01*
X495281Y171377D01*
X495299Y171369D01*
X495466Y171351D01*
X631645Y171351D01*
X631735Y171365D01*
X631826Y171373D01*
X631856Y171385D01*
X631888Y171390D01*
X631968Y171433D01*
X632052Y171469D01*
X632084Y171495D01*
X632105Y171506D01*
X632127Y171529D01*
X632183Y171574D01*
X651272Y190663D01*
X651325Y190737D01*
X651385Y190806D01*
X651397Y190836D01*
X651416Y190863D01*
X651443Y190950D01*
X651477Y191034D01*
X651481Y191075D01*
X651488Y191098D01*
X651487Y191130D01*
X651495Y191201D01*
X651495Y225257D01*
X651481Y225347D01*
X651473Y225438D01*
X651461Y225468D01*
X651456Y225500D01*
X651413Y225580D01*
X651377Y225664D01*
X651351Y225696D01*
X651340Y225717D01*
X651317Y225739D01*
X651272Y225795D01*
X650347Y226720D01*
X648955Y230081D01*
X648955Y233719D01*
X650347Y237080D01*
X652920Y239653D01*
X656281Y241045D01*
X659919Y241045D01*
X663280Y239653D01*
X665853Y237080D01*
X667245Y233719D01*
X667245Y230081D01*
X665853Y226720D01*
X664928Y225795D01*
X664875Y225721D01*
X664815Y225652D01*
X664803Y225622D01*
X664784Y225595D01*
X664757Y225508D01*
X664723Y225424D01*
X664719Y225383D01*
X664712Y225360D01*
X664713Y225328D01*
X664705Y225257D01*
X664705Y186836D01*
X663699Y184409D01*
X638437Y159147D01*
X636010Y158141D01*
X141705Y158141D01*
X141590Y158122D01*
X141474Y158105D01*
X141468Y158103D01*
X141462Y158102D01*
X141359Y158047D01*
X141255Y157994D01*
X141250Y157989D01*
X141245Y157986D01*
X141165Y157902D01*
X141082Y157818D01*
X141079Y157812D01*
X141075Y157808D01*
X141068Y157791D01*
X141002Y157671D01*
X140386Y156185D01*
X136134Y151933D01*
X130579Y149632D01*
X99421Y149632D01*
G37*
%LPD*%
%LPC*%
G36*
X99421Y189256D02*
X99421Y189256D01*
X93866Y191557D01*
X89614Y195809D01*
X87313Y201364D01*
X87313Y207376D01*
X89614Y212931D01*
X93866Y217183D01*
X99421Y219484D01*
X130579Y219484D01*
X136134Y217183D01*
X140386Y212931D01*
X141002Y211445D01*
X141063Y211345D01*
X141123Y211245D01*
X141128Y211241D01*
X141131Y211236D01*
X141222Y211161D01*
X141310Y211085D01*
X141316Y211083D01*
X141321Y211079D01*
X141429Y211037D01*
X141538Y210993D01*
X141546Y210992D01*
X141550Y210991D01*
X141569Y210990D01*
X141705Y210975D01*
X173019Y210975D01*
X173109Y210989D01*
X173200Y210997D01*
X173230Y211009D01*
X173262Y211014D01*
X173342Y211057D01*
X173426Y211093D01*
X173458Y211119D01*
X173479Y211130D01*
X173501Y211153D01*
X173557Y211198D01*
X260472Y298113D01*
X260525Y298187D01*
X260585Y298256D01*
X260597Y298286D01*
X260616Y298313D01*
X260643Y298400D01*
X260677Y298484D01*
X260681Y298525D01*
X260688Y298548D01*
X260687Y298580D01*
X260695Y298651D01*
X260695Y301457D01*
X260681Y301547D01*
X260673Y301638D01*
X260661Y301668D01*
X260656Y301700D01*
X260613Y301780D01*
X260577Y301864D01*
X260551Y301896D01*
X260540Y301917D01*
X260517Y301939D01*
X260472Y301995D01*
X259547Y302920D01*
X258155Y306281D01*
X258155Y309919D01*
X259547Y313280D01*
X260472Y314205D01*
X260525Y314279D01*
X260585Y314348D01*
X260597Y314378D01*
X260616Y314405D01*
X260643Y314492D01*
X260677Y314576D01*
X260681Y314617D01*
X260688Y314640D01*
X260687Y314672D01*
X260695Y314743D01*
X260695Y324864D01*
X261701Y327291D01*
X277509Y343099D01*
X279936Y344105D01*
X595064Y344105D01*
X597491Y343099D01*
X612899Y327691D01*
X613905Y325264D01*
X613905Y314743D01*
X613919Y314653D01*
X613927Y314562D01*
X613939Y314532D01*
X613944Y314500D01*
X613987Y314420D01*
X614023Y314336D01*
X614049Y314304D01*
X614060Y314283D01*
X614083Y314261D01*
X614128Y314205D01*
X615053Y313280D01*
X616445Y309919D01*
X616445Y306281D01*
X615053Y302920D01*
X612480Y300347D01*
X609119Y298955D01*
X605481Y298955D01*
X602120Y300347D01*
X599547Y302920D01*
X598155Y306281D01*
X598155Y309919D01*
X599547Y313280D01*
X600472Y314205D01*
X600525Y314279D01*
X600585Y314348D01*
X600597Y314378D01*
X600616Y314405D01*
X600643Y314492D01*
X600677Y314576D01*
X600681Y314617D01*
X600688Y314640D01*
X600687Y314672D01*
X600695Y314743D01*
X600695Y320899D01*
X600681Y320989D01*
X600673Y321080D01*
X600661Y321110D01*
X600656Y321142D01*
X600613Y321222D01*
X600577Y321306D01*
X600551Y321338D01*
X600540Y321359D01*
X600517Y321381D01*
X600472Y321437D01*
X591237Y330672D01*
X591163Y330725D01*
X591094Y330785D01*
X591064Y330797D01*
X591037Y330816D01*
X590950Y330843D01*
X590866Y330877D01*
X590825Y330881D01*
X590802Y330888D01*
X590770Y330887D01*
X590699Y330895D01*
X444666Y330895D01*
X444646Y330892D01*
X444627Y330894D01*
X444525Y330872D01*
X444423Y330856D01*
X444406Y330846D01*
X444386Y330842D01*
X444297Y330789D01*
X444206Y330740D01*
X444192Y330726D01*
X444175Y330716D01*
X444108Y330637D01*
X444036Y330562D01*
X444028Y330544D01*
X444015Y330529D01*
X443976Y330433D01*
X443933Y330339D01*
X443931Y330319D01*
X443923Y330301D01*
X443905Y330134D01*
X443905Y314743D01*
X443919Y314653D01*
X443927Y314562D01*
X443939Y314532D01*
X443944Y314500D01*
X443987Y314420D01*
X444023Y314336D01*
X444049Y314304D01*
X444060Y314283D01*
X444083Y314261D01*
X444128Y314205D01*
X445053Y313280D01*
X446445Y309919D01*
X446445Y306281D01*
X445053Y302920D01*
X442480Y300347D01*
X439119Y298955D01*
X435481Y298955D01*
X432120Y300347D01*
X429547Y302920D01*
X428155Y306281D01*
X428155Y309919D01*
X429547Y313280D01*
X430472Y314205D01*
X430525Y314279D01*
X430585Y314348D01*
X430597Y314378D01*
X430616Y314405D01*
X430643Y314492D01*
X430677Y314576D01*
X430681Y314617D01*
X430688Y314640D01*
X430687Y314672D01*
X430695Y314743D01*
X430695Y330134D01*
X430692Y330154D01*
X430694Y330173D01*
X430672Y330275D01*
X430656Y330377D01*
X430646Y330394D01*
X430642Y330414D01*
X430589Y330503D01*
X430540Y330594D01*
X430526Y330608D01*
X430516Y330625D01*
X430437Y330692D01*
X430362Y330764D01*
X430344Y330772D01*
X430329Y330785D01*
X430233Y330824D01*
X430139Y330867D01*
X430119Y330869D01*
X430101Y330877D01*
X429934Y330895D01*
X284301Y330895D01*
X284211Y330881D01*
X284120Y330873D01*
X284090Y330861D01*
X284058Y330856D01*
X283978Y330813D01*
X283894Y330777D01*
X283862Y330751D01*
X283841Y330740D01*
X283819Y330717D01*
X283763Y330672D01*
X274128Y321037D01*
X274075Y320963D01*
X274015Y320894D01*
X274003Y320864D01*
X273984Y320837D01*
X273957Y320750D01*
X273923Y320666D01*
X273919Y320625D01*
X273912Y320602D01*
X273913Y320570D01*
X273905Y320499D01*
X273905Y314743D01*
X273919Y314653D01*
X273927Y314562D01*
X273939Y314532D01*
X273944Y314500D01*
X273987Y314420D01*
X274023Y314336D01*
X274049Y314304D01*
X274060Y314283D01*
X274083Y314261D01*
X274128Y314205D01*
X275053Y313280D01*
X276445Y309919D01*
X276445Y306281D01*
X275053Y302920D01*
X274128Y301995D01*
X274075Y301921D01*
X274015Y301852D01*
X274003Y301822D01*
X273984Y301795D01*
X273957Y301708D01*
X273923Y301624D01*
X273919Y301583D01*
X273912Y301560D01*
X273913Y301528D01*
X273905Y301457D01*
X273905Y294286D01*
X272899Y291859D01*
X179811Y198771D01*
X177384Y197765D01*
X141705Y197765D01*
X141590Y197746D01*
X141474Y197729D01*
X141468Y197727D01*
X141462Y197726D01*
X141359Y197671D01*
X141255Y197618D01*
X141250Y197613D01*
X141245Y197610D01*
X141165Y197526D01*
X141082Y197442D01*
X141079Y197436D01*
X141075Y197432D01*
X141068Y197415D01*
X141002Y197295D01*
X140386Y195809D01*
X136134Y191557D01*
X130579Y189256D01*
X99421Y189256D01*
G37*
%LPD*%
%LPC*%
G36*
X648158Y270554D02*
X648158Y270554D01*
X628254Y290458D01*
X628254Y299535D01*
X628235Y299649D01*
X628218Y299766D01*
X628216Y299771D01*
X628215Y299777D01*
X628160Y299880D01*
X628107Y299985D01*
X628102Y299989D01*
X628099Y299995D01*
X628015Y300075D01*
X627931Y300157D01*
X627925Y300161D01*
X627921Y300164D01*
X627904Y300172D01*
X627784Y300238D01*
X627520Y300347D01*
X624947Y302920D01*
X623555Y306281D01*
X623555Y309919D01*
X624947Y313280D01*
X627520Y315853D01*
X630881Y317245D01*
X634519Y317245D01*
X637880Y315853D01*
X640453Y313280D01*
X641845Y309919D01*
X641845Y306281D01*
X640453Y302920D01*
X637880Y300347D01*
X637616Y300238D01*
X637516Y300176D01*
X637416Y300116D01*
X637412Y300112D01*
X637407Y300108D01*
X637332Y300018D01*
X637256Y299930D01*
X637254Y299924D01*
X637250Y299919D01*
X637208Y299810D01*
X637164Y299701D01*
X637163Y299694D01*
X637162Y299689D01*
X637161Y299671D01*
X637146Y299535D01*
X637146Y294457D01*
X637160Y294367D01*
X637168Y294276D01*
X637180Y294246D01*
X637185Y294214D01*
X637228Y294133D01*
X637264Y294050D01*
X637290Y294017D01*
X637301Y293997D01*
X637324Y293975D01*
X637369Y293919D01*
X651619Y279669D01*
X651692Y279616D01*
X651762Y279556D01*
X651792Y279544D01*
X651818Y279525D01*
X651905Y279498D01*
X651990Y279464D01*
X652031Y279460D01*
X652053Y279453D01*
X652086Y279454D01*
X652157Y279446D01*
X679093Y279446D01*
X679183Y279460D01*
X679274Y279468D01*
X679304Y279480D01*
X679336Y279485D01*
X679417Y279528D01*
X679500Y279564D01*
X679533Y279590D01*
X679553Y279601D01*
X679575Y279624D01*
X679631Y279669D01*
X695331Y295369D01*
X695384Y295442D01*
X695444Y295512D01*
X695456Y295542D01*
X695475Y295568D01*
X695502Y295655D01*
X695536Y295740D01*
X695540Y295781D01*
X695547Y295803D01*
X695546Y295836D01*
X695554Y295907D01*
X695554Y351842D01*
X698381Y354669D01*
X715143Y371431D01*
X717970Y374258D01*
X782401Y374258D01*
X782516Y374277D01*
X782632Y374294D01*
X782637Y374296D01*
X782644Y374297D01*
X782746Y374352D01*
X782851Y374405D01*
X782855Y374410D01*
X782861Y374413D01*
X782941Y374497D01*
X783023Y374581D01*
X783027Y374587D01*
X783030Y374591D01*
X783038Y374608D01*
X783104Y374728D01*
X784614Y378373D01*
X788866Y382625D01*
X794421Y384926D01*
X825579Y384926D01*
X831134Y382625D01*
X835386Y378373D01*
X837687Y372818D01*
X837687Y366806D01*
X835386Y361251D01*
X831134Y356999D01*
X825579Y354698D01*
X794421Y354698D01*
X788866Y356999D01*
X784614Y361251D01*
X783104Y364896D01*
X783043Y364996D01*
X782983Y365096D01*
X782978Y365100D01*
X782975Y365105D01*
X782885Y365180D01*
X782796Y365256D01*
X782790Y365258D01*
X782785Y365262D01*
X782677Y365304D01*
X782568Y365348D01*
X782560Y365349D01*
X782555Y365350D01*
X782537Y365351D01*
X782401Y365366D01*
X721969Y365366D01*
X721879Y365352D01*
X721788Y365344D01*
X721758Y365332D01*
X721726Y365327D01*
X721645Y365284D01*
X721561Y365248D01*
X721529Y365222D01*
X721509Y365211D01*
X721486Y365188D01*
X721431Y365143D01*
X704669Y348381D01*
X704616Y348308D01*
X704556Y348238D01*
X704544Y348208D01*
X704525Y348182D01*
X704498Y348095D01*
X704464Y348010D01*
X704460Y347969D01*
X704453Y347947D01*
X704454Y347914D01*
X704446Y347843D01*
X704446Y291908D01*
X683092Y270554D01*
X648158Y270554D01*
G37*
%LPD*%
%LPC*%
G36*
X630881Y222755D02*
X630881Y222755D01*
X627520Y224147D01*
X624947Y226720D01*
X623555Y230081D01*
X623555Y233719D01*
X624947Y237080D01*
X627520Y239653D01*
X627784Y239762D01*
X627884Y239824D01*
X627984Y239884D01*
X627988Y239888D01*
X627993Y239892D01*
X628068Y239982D01*
X628144Y240070D01*
X628146Y240076D01*
X628150Y240081D01*
X628192Y240190D01*
X628236Y240299D01*
X628237Y240306D01*
X628238Y240311D01*
X628239Y240329D01*
X628254Y240465D01*
X628254Y246393D01*
X628240Y246483D01*
X628232Y246574D01*
X628220Y246604D01*
X628215Y246636D01*
X628172Y246717D01*
X628136Y246800D01*
X628110Y246833D01*
X628099Y246853D01*
X628076Y246875D01*
X628031Y246931D01*
X610881Y264081D01*
X610808Y264134D01*
X610738Y264194D01*
X610708Y264206D01*
X610682Y264225D01*
X610595Y264252D01*
X610510Y264286D01*
X610469Y264290D01*
X610447Y264297D01*
X610414Y264296D01*
X610343Y264304D01*
X479408Y264304D01*
X458254Y285458D01*
X458254Y299535D01*
X458235Y299649D01*
X458218Y299766D01*
X458216Y299771D01*
X458215Y299777D01*
X458160Y299880D01*
X458107Y299985D01*
X458102Y299989D01*
X458099Y299995D01*
X458015Y300075D01*
X457931Y300157D01*
X457925Y300161D01*
X457921Y300164D01*
X457904Y300172D01*
X457784Y300238D01*
X457520Y300347D01*
X454947Y302920D01*
X453555Y306281D01*
X453555Y309919D01*
X454947Y313280D01*
X457520Y315853D01*
X460881Y317245D01*
X464519Y317245D01*
X467880Y315853D01*
X470453Y313280D01*
X471845Y309919D01*
X471845Y306281D01*
X470453Y302920D01*
X467880Y300347D01*
X467616Y300238D01*
X467516Y300176D01*
X467416Y300116D01*
X467412Y300112D01*
X467407Y300108D01*
X467332Y300018D01*
X467256Y299930D01*
X467254Y299924D01*
X467250Y299919D01*
X467208Y299810D01*
X467164Y299701D01*
X467163Y299694D01*
X467162Y299689D01*
X467161Y299671D01*
X467146Y299535D01*
X467146Y289457D01*
X467160Y289367D01*
X467168Y289276D01*
X467180Y289246D01*
X467185Y289214D01*
X467228Y289133D01*
X467264Y289050D01*
X467290Y289017D01*
X467301Y288997D01*
X467324Y288975D01*
X467369Y288919D01*
X482869Y273419D01*
X482942Y273366D01*
X483012Y273306D01*
X483042Y273294D01*
X483068Y273275D01*
X483155Y273248D01*
X483240Y273214D01*
X483281Y273210D01*
X483303Y273203D01*
X483336Y273204D01*
X483407Y273196D01*
X614342Y273196D01*
X637146Y250392D01*
X637146Y240465D01*
X637165Y240351D01*
X637182Y240234D01*
X637184Y240229D01*
X637185Y240223D01*
X637240Y240120D01*
X637293Y240015D01*
X637298Y240011D01*
X637301Y240005D01*
X637385Y239925D01*
X637469Y239843D01*
X637475Y239839D01*
X637479Y239836D01*
X637496Y239828D01*
X637616Y239762D01*
X637880Y239653D01*
X640453Y237080D01*
X641845Y233719D01*
X641845Y230081D01*
X640453Y226720D01*
X637880Y224147D01*
X634519Y222755D01*
X630881Y222755D01*
G37*
%LPD*%
%LPC*%
G36*
X317335Y349137D02*
X317335Y349137D01*
X314721Y350220D01*
X312720Y352221D01*
X311637Y354835D01*
X311637Y357665D01*
X312720Y360279D01*
X314721Y362280D01*
X317335Y363363D01*
X320165Y363363D01*
X322779Y362280D01*
X324140Y360919D01*
X324214Y360866D01*
X324284Y360806D01*
X324314Y360794D01*
X324340Y360775D01*
X324427Y360748D01*
X324512Y360714D01*
X324553Y360710D01*
X324575Y360703D01*
X324607Y360704D01*
X324679Y360696D01*
X512821Y360696D01*
X512912Y360710D01*
X513002Y360718D01*
X513032Y360730D01*
X513064Y360735D01*
X513145Y360778D01*
X513229Y360814D01*
X513261Y360840D01*
X513282Y360851D01*
X513304Y360874D01*
X513360Y360919D01*
X514721Y362280D01*
X517335Y363363D01*
X520165Y363363D01*
X522779Y362280D01*
X524780Y360279D01*
X525863Y357665D01*
X525863Y354835D01*
X524780Y352221D01*
X522779Y350220D01*
X520165Y349137D01*
X517335Y349137D01*
X514721Y350220D01*
X513360Y351581D01*
X513286Y351634D01*
X513216Y351694D01*
X513186Y351706D01*
X513160Y351725D01*
X513073Y351752D01*
X512988Y351786D01*
X512947Y351790D01*
X512925Y351797D01*
X512893Y351796D01*
X512821Y351804D01*
X324679Y351804D01*
X324588Y351790D01*
X324498Y351782D01*
X324468Y351770D01*
X324436Y351765D01*
X324355Y351722D01*
X324271Y351686D01*
X324239Y351660D01*
X324218Y351649D01*
X324196Y351626D01*
X324140Y351581D01*
X322779Y350220D01*
X320165Y349137D01*
X317335Y349137D01*
G37*
%LPD*%
%LPC*%
G36*
X794421Y110008D02*
X794421Y110008D01*
X788866Y112309D01*
X784614Y116561D01*
X782313Y122116D01*
X782313Y128128D01*
X784614Y133683D01*
X788866Y137935D01*
X794421Y140236D01*
X825579Y140236D01*
X831134Y137935D01*
X835386Y133683D01*
X837687Y128128D01*
X837687Y122116D01*
X835386Y116561D01*
X831134Y112309D01*
X825579Y110008D01*
X794421Y110008D01*
G37*
%LPD*%
%LPC*%
G36*
X99421Y354698D02*
X99421Y354698D01*
X93866Y356999D01*
X89614Y361251D01*
X87313Y366806D01*
X87313Y372818D01*
X89614Y378373D01*
X93866Y382625D01*
X99421Y384926D01*
X130579Y384926D01*
X136134Y382625D01*
X140386Y378373D01*
X142687Y372818D01*
X142687Y366806D01*
X140386Y361251D01*
X136134Y356999D01*
X130579Y354698D01*
X99421Y354698D01*
G37*
%LPD*%
%LPC*%
G36*
X794421Y149632D02*
X794421Y149632D01*
X788866Y151933D01*
X784614Y156185D01*
X782313Y161740D01*
X782313Y167752D01*
X784614Y173307D01*
X788866Y177559D01*
X794421Y179860D01*
X825579Y179860D01*
X831134Y177559D01*
X835386Y173307D01*
X837687Y167752D01*
X837687Y161740D01*
X835386Y156185D01*
X831134Y151933D01*
X825579Y149632D01*
X794421Y149632D01*
G37*
%LPD*%
%LPC*%
G36*
X794421Y189256D02*
X794421Y189256D01*
X788866Y191557D01*
X784614Y195809D01*
X782313Y201364D01*
X782313Y207376D01*
X784614Y212931D01*
X788866Y217183D01*
X794421Y219484D01*
X825579Y219484D01*
X831134Y217183D01*
X835386Y212931D01*
X837687Y207376D01*
X837687Y201364D01*
X835386Y195809D01*
X831134Y191557D01*
X825579Y189256D01*
X794421Y189256D01*
G37*
%LPD*%
%LPC*%
G36*
X265481Y222755D02*
X265481Y222755D01*
X262120Y224147D01*
X259547Y226720D01*
X258155Y230081D01*
X258155Y233719D01*
X259547Y237080D01*
X262120Y239653D01*
X262384Y239762D01*
X262484Y239824D01*
X262584Y239884D01*
X262588Y239888D01*
X262593Y239892D01*
X262668Y239982D01*
X262744Y240070D01*
X262746Y240076D01*
X262750Y240081D01*
X262792Y240190D01*
X262836Y240299D01*
X262837Y240306D01*
X262838Y240311D01*
X262839Y240329D01*
X262854Y240465D01*
X262854Y256642D01*
X288031Y281819D01*
X288084Y281892D01*
X288144Y281962D01*
X288156Y281992D01*
X288175Y282018D01*
X288202Y282105D01*
X288236Y282190D01*
X288240Y282231D01*
X288247Y282253D01*
X288246Y282286D01*
X288254Y282357D01*
X288254Y299535D01*
X288235Y299649D01*
X288218Y299766D01*
X288216Y299771D01*
X288215Y299777D01*
X288160Y299880D01*
X288107Y299985D01*
X288102Y299989D01*
X288099Y299995D01*
X288015Y300075D01*
X287931Y300157D01*
X287925Y300161D01*
X287921Y300164D01*
X287904Y300172D01*
X287784Y300238D01*
X287520Y300347D01*
X284947Y302920D01*
X283555Y306281D01*
X283555Y309919D01*
X284947Y313280D01*
X287520Y315853D01*
X290881Y317245D01*
X294519Y317245D01*
X297880Y315853D01*
X300453Y313280D01*
X301845Y309919D01*
X301845Y306281D01*
X300453Y302920D01*
X297880Y300347D01*
X297616Y300238D01*
X297516Y300176D01*
X297416Y300116D01*
X297412Y300112D01*
X297407Y300108D01*
X297332Y300018D01*
X297256Y299930D01*
X297254Y299924D01*
X297250Y299919D01*
X297208Y299810D01*
X297164Y299701D01*
X297163Y299694D01*
X297162Y299689D01*
X297161Y299671D01*
X297146Y299535D01*
X297146Y278358D01*
X271969Y253181D01*
X271916Y253108D01*
X271856Y253038D01*
X271844Y253008D01*
X271825Y252982D01*
X271798Y252895D01*
X271764Y252810D01*
X271760Y252769D01*
X271753Y252747D01*
X271754Y252714D01*
X271746Y252643D01*
X271746Y240465D01*
X271765Y240351D01*
X271782Y240234D01*
X271784Y240229D01*
X271785Y240223D01*
X271840Y240120D01*
X271893Y240015D01*
X271898Y240011D01*
X271901Y240005D01*
X271985Y239925D01*
X272069Y239843D01*
X272075Y239839D01*
X272079Y239836D01*
X272096Y239828D01*
X272216Y239762D01*
X272480Y239653D01*
X275053Y237080D01*
X276445Y233719D01*
X276445Y230081D01*
X275053Y226720D01*
X272480Y224147D01*
X269119Y222755D01*
X265481Y222755D01*
G37*
%LPD*%
%LPC*%
G36*
X661085Y330387D02*
X661085Y330387D01*
X658471Y331470D01*
X656470Y333471D01*
X655387Y336085D01*
X655387Y338915D01*
X656470Y341529D01*
X657831Y342890D01*
X657884Y342964D01*
X657944Y343034D01*
X657956Y343064D01*
X657975Y343090D01*
X658002Y343177D01*
X658036Y343262D01*
X658040Y343303D01*
X658047Y343325D01*
X658046Y343357D01*
X658054Y343429D01*
X658054Y412821D01*
X658040Y412912D01*
X658032Y413002D01*
X658020Y413032D01*
X658015Y413064D01*
X657972Y413145D01*
X657936Y413229D01*
X657910Y413261D01*
X657899Y413282D01*
X657876Y413304D01*
X657831Y413360D01*
X656470Y414721D01*
X655387Y417335D01*
X655387Y420165D01*
X656470Y422779D01*
X658471Y424780D01*
X661085Y425863D01*
X663915Y425863D01*
X666529Y424780D01*
X668530Y422779D01*
X669613Y420165D01*
X669613Y417335D01*
X668530Y414721D01*
X667169Y413360D01*
X667121Y413293D01*
X667118Y413290D01*
X667117Y413288D01*
X667116Y413286D01*
X667056Y413216D01*
X667044Y413186D01*
X667025Y413160D01*
X666998Y413073D01*
X666964Y412988D01*
X666960Y412947D01*
X666953Y412925D01*
X666954Y412893D01*
X666946Y412821D01*
X666946Y343429D01*
X666960Y343338D01*
X666968Y343248D01*
X666980Y343218D01*
X666985Y343186D01*
X667028Y343105D01*
X667064Y343021D01*
X667090Y342989D01*
X667101Y342968D01*
X667124Y342946D01*
X667169Y342890D01*
X668530Y341529D01*
X669613Y338915D01*
X669613Y336085D01*
X668530Y333471D01*
X666529Y331470D01*
X663915Y330387D01*
X661085Y330387D01*
G37*
%LPD*%
%LPC*%
G36*
X116523Y331711D02*
X116523Y331711D01*
X116523Y345302D01*
X128762Y345302D01*
X131112Y344930D01*
X133375Y344194D01*
X135494Y343114D01*
X137419Y341716D01*
X139101Y340034D01*
X140499Y338109D01*
X141579Y335990D01*
X142315Y333727D01*
X142634Y331711D01*
X116523Y331711D01*
G37*
%LPD*%
%LPC*%
G36*
X811523Y331711D02*
X811523Y331711D01*
X811523Y345302D01*
X823762Y345302D01*
X826112Y344930D01*
X828375Y344194D01*
X830494Y343114D01*
X832419Y341716D01*
X834101Y340034D01*
X835499Y338109D01*
X836579Y335990D01*
X837315Y333727D01*
X837634Y331711D01*
X811523Y331711D01*
G37*
%LPD*%
%LPC*%
G36*
X116523Y126645D02*
X116523Y126645D01*
X116523Y140236D01*
X128762Y140236D01*
X131112Y139864D01*
X133375Y139128D01*
X135494Y138048D01*
X137419Y136650D01*
X139101Y134968D01*
X140499Y133043D01*
X141579Y130924D01*
X142315Y128661D01*
X142634Y126645D01*
X116523Y126645D01*
G37*
%LPD*%
%LPC*%
G36*
X782366Y331711D02*
X782366Y331711D01*
X782685Y333727D01*
X783421Y335990D01*
X784501Y338109D01*
X785899Y340034D01*
X787581Y341716D01*
X789506Y343114D01*
X791625Y344194D01*
X793888Y344930D01*
X796238Y345302D01*
X808477Y345302D01*
X808477Y331711D01*
X782366Y331711D01*
G37*
%LPD*%
%LPC*%
G36*
X87366Y331711D02*
X87366Y331711D01*
X87685Y333727D01*
X88421Y335990D01*
X89501Y338109D01*
X90899Y340034D01*
X92581Y341716D01*
X94506Y343114D01*
X96625Y344194D01*
X98888Y344930D01*
X101238Y345302D01*
X113477Y345302D01*
X113477Y331711D01*
X87366Y331711D01*
G37*
%LPD*%
%LPC*%
G36*
X87366Y126645D02*
X87366Y126645D01*
X87685Y128661D01*
X88421Y130924D01*
X89501Y133043D01*
X90899Y134968D01*
X92581Y136650D01*
X94506Y138048D01*
X96625Y139128D01*
X98888Y139864D01*
X101238Y140236D01*
X113477Y140236D01*
X113477Y126645D01*
X87366Y126645D01*
G37*
%LPD*%
%LPC*%
G36*
X811523Y315074D02*
X811523Y315074D01*
X811523Y328665D01*
X837634Y328665D01*
X837315Y326649D01*
X836579Y324386D01*
X835499Y322267D01*
X834101Y320342D01*
X832419Y318660D01*
X830494Y317262D01*
X828375Y316182D01*
X826112Y315446D01*
X823762Y315074D01*
X811523Y315074D01*
G37*
%LPD*%
%LPC*%
G36*
X116523Y315074D02*
X116523Y315074D01*
X116523Y328665D01*
X142634Y328665D01*
X142315Y326649D01*
X141579Y324386D01*
X140499Y322267D01*
X139101Y320342D01*
X137419Y318660D01*
X135494Y317262D01*
X133375Y316182D01*
X131112Y315446D01*
X128762Y315074D01*
X116523Y315074D01*
G37*
%LPD*%
%LPC*%
G36*
X116523Y110008D02*
X116523Y110008D01*
X116523Y123599D01*
X142634Y123599D01*
X142315Y121583D01*
X141579Y119320D01*
X140499Y117201D01*
X139101Y115276D01*
X137419Y113594D01*
X135494Y112196D01*
X133375Y111116D01*
X131112Y110380D01*
X128762Y110008D01*
X116523Y110008D01*
G37*
%LPD*%
%LPC*%
G36*
X796238Y315074D02*
X796238Y315074D01*
X793888Y315446D01*
X791625Y316182D01*
X789506Y317262D01*
X787581Y318660D01*
X785899Y320342D01*
X784501Y322267D01*
X783421Y324386D01*
X782685Y326649D01*
X782366Y328665D01*
X808477Y328665D01*
X808477Y315074D01*
X796238Y315074D01*
G37*
%LPD*%
%LPC*%
G36*
X101238Y315074D02*
X101238Y315074D01*
X98888Y315446D01*
X96625Y316182D01*
X94506Y317262D01*
X92581Y318660D01*
X90899Y320342D01*
X89501Y322267D01*
X88421Y324386D01*
X87685Y326649D01*
X87366Y328665D01*
X113477Y328665D01*
X113477Y315074D01*
X101238Y315074D01*
G37*
%LPD*%
%LPC*%
G36*
X101238Y110008D02*
X101238Y110008D01*
X98888Y110380D01*
X96625Y111116D01*
X94506Y112196D01*
X92581Y113594D01*
X90899Y115276D01*
X89501Y117201D01*
X88421Y119320D01*
X87685Y121583D01*
X87366Y123599D01*
X113477Y123599D01*
X113477Y110008D01*
X101238Y110008D01*
G37*
%LPD*%
%LPC*%
G36*
X240081Y298955D02*
X240081Y298955D01*
X236720Y300347D01*
X234147Y302920D01*
X232755Y306281D01*
X232755Y309919D01*
X234147Y313280D01*
X236720Y315853D01*
X240081Y317245D01*
X243719Y317245D01*
X247080Y315853D01*
X249653Y313280D01*
X251045Y309919D01*
X251045Y306281D01*
X249653Y302920D01*
X247080Y300347D01*
X243719Y298955D01*
X240081Y298955D01*
G37*
%LPD*%
%LPC*%
G36*
X656281Y298955D02*
X656281Y298955D01*
X652920Y300347D01*
X650347Y302920D01*
X648955Y306281D01*
X648955Y309919D01*
X650347Y313280D01*
X652920Y315853D01*
X656281Y317245D01*
X659919Y317245D01*
X663280Y315853D01*
X665853Y313280D01*
X667245Y309919D01*
X667245Y306281D01*
X665853Y302920D01*
X663280Y300347D01*
X659919Y298955D01*
X656281Y298955D01*
G37*
%LPD*%
%LPC*%
G36*
X580081Y298955D02*
X580081Y298955D01*
X576720Y300347D01*
X574147Y302920D01*
X572755Y306281D01*
X572755Y309919D01*
X574147Y313280D01*
X576720Y315853D01*
X580081Y317245D01*
X583719Y317245D01*
X587080Y315853D01*
X589653Y313280D01*
X591045Y309919D01*
X591045Y306281D01*
X589653Y302920D01*
X587080Y300347D01*
X583719Y298955D01*
X580081Y298955D01*
G37*
%LPD*%
%LPC*%
G36*
X316281Y298955D02*
X316281Y298955D01*
X312920Y300347D01*
X310347Y302920D01*
X308955Y306281D01*
X308955Y309919D01*
X310347Y313280D01*
X312920Y315853D01*
X316281Y317245D01*
X319919Y317245D01*
X323280Y315853D01*
X325853Y313280D01*
X327245Y309919D01*
X327245Y306281D01*
X325853Y302920D01*
X323280Y300347D01*
X319919Y298955D01*
X316281Y298955D01*
G37*
%LPD*%
%LPC*%
G36*
X605481Y222755D02*
X605481Y222755D01*
X602120Y224147D01*
X599547Y226720D01*
X598155Y230081D01*
X598155Y233719D01*
X599547Y237080D01*
X602120Y239653D01*
X605481Y241045D01*
X609119Y241045D01*
X612480Y239653D01*
X615053Y237080D01*
X616445Y233719D01*
X616445Y230081D01*
X615053Y226720D01*
X612480Y224147D01*
X609119Y222755D01*
X605481Y222755D01*
G37*
%LPD*%
%LPC*%
G36*
X580081Y222755D02*
X580081Y222755D01*
X576720Y224147D01*
X574147Y226720D01*
X572755Y230081D01*
X572755Y233719D01*
X574147Y237080D01*
X576720Y239653D01*
X580081Y241045D01*
X583719Y241045D01*
X587080Y239653D01*
X589653Y237080D01*
X591045Y233719D01*
X591045Y230081D01*
X589653Y226720D01*
X587080Y224147D01*
X583719Y222755D01*
X580081Y222755D01*
G37*
%LPD*%
%LPC*%
G36*
X460881Y222755D02*
X460881Y222755D01*
X457520Y224147D01*
X454947Y226720D01*
X453555Y230081D01*
X453555Y233719D01*
X454947Y237080D01*
X457520Y239653D01*
X460881Y241045D01*
X464519Y241045D01*
X467880Y239653D01*
X470453Y237080D01*
X471845Y233719D01*
X471845Y230081D01*
X470453Y226720D01*
X467880Y224147D01*
X464519Y222755D01*
X460881Y222755D01*
G37*
%LPD*%
%LPC*%
G36*
X435481Y222755D02*
X435481Y222755D01*
X432120Y224147D01*
X429547Y226720D01*
X428155Y230081D01*
X428155Y233719D01*
X429547Y237080D01*
X432120Y239653D01*
X435481Y241045D01*
X439119Y241045D01*
X442480Y239653D01*
X445053Y237080D01*
X446445Y233719D01*
X446445Y230081D01*
X445053Y226720D01*
X442480Y224147D01*
X439119Y222755D01*
X435481Y222755D01*
G37*
%LPD*%
%LPC*%
G36*
X410081Y222755D02*
X410081Y222755D01*
X406720Y224147D01*
X404147Y226720D01*
X402755Y230081D01*
X402755Y233719D01*
X404147Y237080D01*
X406720Y239653D01*
X410081Y241045D01*
X413719Y241045D01*
X417080Y239653D01*
X419653Y237080D01*
X421045Y233719D01*
X421045Y230081D01*
X419653Y226720D01*
X417080Y224147D01*
X413719Y222755D01*
X410081Y222755D01*
G37*
%LPD*%
%LPC*%
G36*
X290881Y222755D02*
X290881Y222755D01*
X287520Y224147D01*
X284947Y226720D01*
X283555Y230081D01*
X283555Y233719D01*
X284947Y237080D01*
X287520Y239653D01*
X290881Y241045D01*
X294519Y241045D01*
X297880Y239653D01*
X300453Y237080D01*
X301845Y233719D01*
X301845Y230081D01*
X300453Y226720D01*
X297880Y224147D01*
X294519Y222755D01*
X290881Y222755D01*
G37*
%LPD*%
%LPC*%
G36*
X240081Y222755D02*
X240081Y222755D01*
X236720Y224147D01*
X234147Y226720D01*
X232755Y230081D01*
X232755Y233719D01*
X234147Y237080D01*
X236720Y239653D01*
X240081Y241045D01*
X243719Y241045D01*
X247080Y239653D01*
X249653Y237080D01*
X251045Y233719D01*
X251045Y230081D01*
X249653Y226720D01*
X247080Y224147D01*
X243719Y222755D01*
X240081Y222755D01*
G37*
%LPD*%
%LPC*%
G36*
X410081Y298955D02*
X410081Y298955D01*
X406720Y300347D01*
X404147Y302920D01*
X402755Y306281D01*
X402755Y309919D01*
X404147Y313280D01*
X406720Y315853D01*
X410081Y317245D01*
X413719Y317245D01*
X417080Y315853D01*
X419653Y313280D01*
X421045Y309919D01*
X421045Y306281D01*
X419653Y302920D01*
X417080Y300347D01*
X413719Y298955D01*
X410081Y298955D01*
G37*
%LPD*%
%LPC*%
G36*
X486281Y298955D02*
X486281Y298955D01*
X482920Y300347D01*
X480347Y302920D01*
X478955Y306281D01*
X478955Y309919D01*
X480347Y313280D01*
X482920Y315853D01*
X486281Y317245D01*
X489919Y317245D01*
X493280Y315853D01*
X495853Y313280D01*
X497245Y309919D01*
X497245Y306281D01*
X495853Y302920D01*
X493280Y300347D01*
X489919Y298955D01*
X486281Y298955D01*
G37*
%LPD*%
%LPC*%
G36*
X809999Y330187D02*
X809999Y330187D01*
X809999Y330189D01*
X810001Y330189D01*
X810001Y330187D01*
X809999Y330187D01*
G37*
%LPD*%
%LPC*%
G36*
X114999Y330187D02*
X114999Y330187D01*
X114999Y330189D01*
X115001Y330189D01*
X115001Y330187D01*
X114999Y330187D01*
G37*
%LPD*%
%LPC*%
G36*
X114999Y125121D02*
X114999Y125121D01*
X114999Y125123D01*
X115001Y125123D01*
X115001Y125121D01*
X114999Y125121D01*
G37*
%LPD*%
D10*
X241900Y231900D03*
X267300Y231900D03*
X267300Y308100D03*
X241900Y308100D03*
X292700Y231900D03*
X318100Y231900D03*
X292700Y308100D03*
X318100Y308100D03*
X411900Y231900D03*
X437300Y231900D03*
X437300Y308100D03*
X411900Y308100D03*
X462700Y231900D03*
X488100Y231900D03*
X462700Y308100D03*
X488100Y308100D03*
X581900Y231900D03*
X607300Y231900D03*
X607300Y308100D03*
X581900Y308100D03*
X632700Y231900D03*
X658100Y231900D03*
X632700Y308100D03*
X658100Y308100D03*
D11*
X127573Y369812D02*
X102427Y369812D01*
X102427Y330188D02*
X127573Y330188D01*
X797427Y369812D02*
X822573Y369812D01*
X822573Y330188D02*
X797427Y330188D01*
X127573Y125122D02*
X102427Y125122D01*
X102427Y164746D02*
X127573Y164746D01*
X127573Y204370D02*
X102427Y204370D01*
X797427Y125122D02*
X822573Y125122D01*
X822573Y164746D02*
X797427Y164746D01*
X797427Y204370D02*
X822573Y204370D01*
D12*
X200000Y331250D03*
X50000Y50000D03*
X850000Y450000D03*
X850000Y50000D03*
X50000Y450000D03*
D13*
X200000Y331250D02*
X200000Y325000D01*
D14*
X115000Y164746D02*
X318750Y164746D01*
D13*
X318750Y231250D02*
X318100Y231900D01*
D14*
X318750Y231250D02*
X318750Y164746D01*
X488100Y164746D02*
X488100Y231900D01*
X488100Y164746D02*
X318750Y164746D01*
X658100Y188150D02*
X658100Y231900D01*
X658100Y188150D02*
X634696Y164746D01*
X488100Y164746D01*
X267300Y295600D02*
X267300Y308100D01*
X267300Y295600D02*
X176070Y204370D01*
X115000Y204370D01*
X267300Y308100D02*
X267300Y323550D01*
X281250Y337500D02*
X437300Y337500D01*
X437300Y308100D01*
X281250Y337500D02*
X267300Y323550D01*
X437300Y337500D02*
X593750Y337500D01*
X607300Y323950D02*
X607300Y308100D01*
X607300Y323950D02*
X593750Y337500D01*
D13*
X632700Y308100D02*
X632700Y292300D01*
X650000Y275000D01*
X681250Y275000D01*
X700000Y293750D01*
X700000Y350000D01*
X719812Y369812D01*
X810000Y369812D01*
X267300Y254800D02*
X267300Y231900D01*
X292700Y280200D02*
X292700Y308100D01*
X292700Y280200D02*
X267300Y254800D01*
D12*
X318750Y356250D03*
X518750Y356250D03*
D13*
X318750Y356250D01*
D12*
X662500Y337500D03*
X662500Y418750D03*
D13*
X662500Y337500D01*
X462700Y308100D02*
X462700Y287300D01*
X481250Y268750D01*
X612500Y268750D01*
X632700Y248550D01*
X632700Y231900D01*
M02*
