G04 EAGLE Gerber RS-274X export*
G75*
%MOMM*%
%FSLAX34Y34*%
%LPD*%
%INSilkscreen Top*%
%IPPOS*%
%AMOC8*
5,1,8,0,0,1.08239X$1,22.5*%
G01*
%ADD10C,0.152400*%
%ADD11C,0.076200*%
%ADD12C,0.101600*%
%ADD13C,0.203200*%
%ADD14C,0.427200*%
%ADD15C,0.406400*%
%ADD16C,0.304800*%
%ADD17R,1.016000X1.016000*%


D10*
X21457Y19512D02*
X21457Y24028D01*
X21456Y24028D02*
X21458Y24161D01*
X21464Y24293D01*
X21474Y24425D01*
X21487Y24557D01*
X21505Y24689D01*
X21526Y24819D01*
X21551Y24950D01*
X21580Y25079D01*
X21613Y25207D01*
X21649Y25335D01*
X21689Y25461D01*
X21733Y25586D01*
X21781Y25710D01*
X21832Y25832D01*
X21887Y25953D01*
X21945Y26072D01*
X22007Y26190D01*
X22072Y26305D01*
X22141Y26419D01*
X22212Y26530D01*
X22288Y26639D01*
X22366Y26746D01*
X22447Y26851D01*
X22532Y26953D01*
X22619Y27053D01*
X22709Y27150D01*
X22802Y27245D01*
X22898Y27336D01*
X22996Y27425D01*
X23097Y27511D01*
X23201Y27594D01*
X23307Y27674D01*
X23415Y27750D01*
X23525Y27824D01*
X23638Y27894D01*
X23752Y27961D01*
X23869Y28024D01*
X23987Y28084D01*
X24107Y28141D01*
X24229Y28194D01*
X24352Y28243D01*
X24476Y28289D01*
X24602Y28331D01*
X24729Y28369D01*
X24857Y28404D01*
X24986Y28435D01*
X25115Y28462D01*
X25246Y28485D01*
X25377Y28505D01*
X25509Y28520D01*
X25641Y28532D01*
X25773Y28540D01*
X25906Y28544D01*
X26038Y28544D01*
X26171Y28540D01*
X26303Y28532D01*
X26435Y28520D01*
X26567Y28505D01*
X26698Y28485D01*
X26829Y28462D01*
X26958Y28435D01*
X27087Y28404D01*
X27215Y28369D01*
X27342Y28331D01*
X27468Y28289D01*
X27592Y28243D01*
X27715Y28194D01*
X27837Y28141D01*
X27957Y28084D01*
X28075Y28024D01*
X28192Y27961D01*
X28306Y27894D01*
X28419Y27824D01*
X28529Y27750D01*
X28637Y27674D01*
X28743Y27594D01*
X28847Y27511D01*
X28948Y27425D01*
X29046Y27336D01*
X29142Y27245D01*
X29235Y27150D01*
X29325Y27053D01*
X29412Y26953D01*
X29497Y26851D01*
X29578Y26746D01*
X29656Y26639D01*
X29732Y26530D01*
X29803Y26419D01*
X29872Y26305D01*
X29937Y26190D01*
X29999Y26072D01*
X30057Y25953D01*
X30112Y25832D01*
X30163Y25710D01*
X30211Y25586D01*
X30255Y25461D01*
X30295Y25335D01*
X30331Y25207D01*
X30364Y25079D01*
X30393Y24950D01*
X30418Y24819D01*
X30439Y24689D01*
X30457Y24557D01*
X30470Y24425D01*
X30480Y24293D01*
X30486Y24161D01*
X30488Y24028D01*
X30488Y19512D01*
X14232Y19512D01*
X14232Y24028D01*
X14234Y24147D01*
X14240Y24267D01*
X14250Y24386D01*
X14264Y24504D01*
X14281Y24623D01*
X14303Y24740D01*
X14328Y24857D01*
X14358Y24972D01*
X14391Y25087D01*
X14428Y25201D01*
X14468Y25313D01*
X14513Y25424D01*
X14561Y25533D01*
X14612Y25641D01*
X14667Y25747D01*
X14726Y25851D01*
X14788Y25953D01*
X14853Y26053D01*
X14922Y26151D01*
X14994Y26247D01*
X15069Y26340D01*
X15146Y26430D01*
X15227Y26518D01*
X15311Y26603D01*
X15398Y26685D01*
X15487Y26765D01*
X15579Y26841D01*
X15673Y26915D01*
X15770Y26985D01*
X15868Y27052D01*
X15969Y27116D01*
X16073Y27176D01*
X16178Y27233D01*
X16285Y27286D01*
X16393Y27336D01*
X16503Y27382D01*
X16615Y27424D01*
X16728Y27463D01*
X16842Y27498D01*
X16957Y27529D01*
X17074Y27557D01*
X17191Y27580D01*
X17308Y27600D01*
X17427Y27616D01*
X17546Y27628D01*
X17665Y27636D01*
X17784Y27640D01*
X17904Y27640D01*
X18023Y27636D01*
X18142Y27628D01*
X18261Y27616D01*
X18380Y27600D01*
X18497Y27580D01*
X18614Y27557D01*
X18731Y27529D01*
X18846Y27498D01*
X18960Y27463D01*
X19073Y27424D01*
X19185Y27382D01*
X19295Y27336D01*
X19403Y27286D01*
X19510Y27233D01*
X19615Y27176D01*
X19719Y27116D01*
X19820Y27052D01*
X19918Y26985D01*
X20015Y26915D01*
X20109Y26841D01*
X20201Y26765D01*
X20290Y26685D01*
X20377Y26603D01*
X20461Y26518D01*
X20542Y26430D01*
X20619Y26340D01*
X20694Y26247D01*
X20766Y26151D01*
X20835Y26053D01*
X20900Y25953D01*
X20962Y25851D01*
X21021Y25747D01*
X21076Y25641D01*
X21127Y25533D01*
X21175Y25424D01*
X21220Y25313D01*
X21260Y25201D01*
X21297Y25087D01*
X21330Y24972D01*
X21360Y24857D01*
X21385Y24740D01*
X21407Y24623D01*
X21424Y24504D01*
X21438Y24386D01*
X21448Y24267D01*
X21454Y24147D01*
X21456Y24028D01*
X24166Y37360D02*
X24166Y41424D01*
X24166Y37360D02*
X24168Y37248D01*
X24174Y37137D01*
X24184Y37026D01*
X24197Y36915D01*
X24215Y36805D01*
X24237Y36696D01*
X24262Y36587D01*
X24291Y36479D01*
X24324Y36373D01*
X24361Y36267D01*
X24401Y36163D01*
X24445Y36061D01*
X24493Y35960D01*
X24544Y35861D01*
X24599Y35763D01*
X24657Y35668D01*
X24718Y35575D01*
X24783Y35484D01*
X24851Y35395D01*
X24922Y35309D01*
X24995Y35226D01*
X25072Y35145D01*
X25152Y35066D01*
X25234Y34991D01*
X25319Y34919D01*
X25406Y34849D01*
X25496Y34783D01*
X25588Y34720D01*
X25683Y34660D01*
X25779Y34604D01*
X25877Y34551D01*
X25977Y34502D01*
X26079Y34456D01*
X26182Y34414D01*
X26287Y34375D01*
X26393Y34340D01*
X26500Y34309D01*
X26608Y34282D01*
X26717Y34258D01*
X26827Y34239D01*
X26937Y34223D01*
X27048Y34211D01*
X27160Y34203D01*
X27271Y34199D01*
X27383Y34199D01*
X27494Y34203D01*
X27606Y34211D01*
X27717Y34223D01*
X27827Y34239D01*
X27937Y34258D01*
X28046Y34282D01*
X28154Y34309D01*
X28261Y34340D01*
X28367Y34375D01*
X28472Y34414D01*
X28575Y34456D01*
X28677Y34502D01*
X28777Y34551D01*
X28875Y34604D01*
X28971Y34660D01*
X29066Y34720D01*
X29158Y34783D01*
X29248Y34849D01*
X29335Y34919D01*
X29420Y34991D01*
X29502Y35066D01*
X29582Y35145D01*
X29659Y35226D01*
X29732Y35309D01*
X29803Y35395D01*
X29871Y35484D01*
X29936Y35575D01*
X29997Y35668D01*
X30055Y35763D01*
X30110Y35861D01*
X30161Y35960D01*
X30209Y36061D01*
X30253Y36163D01*
X30293Y36267D01*
X30330Y36373D01*
X30363Y36479D01*
X30392Y36587D01*
X30417Y36696D01*
X30439Y36805D01*
X30457Y36915D01*
X30470Y37026D01*
X30480Y37137D01*
X30486Y37248D01*
X30488Y37360D01*
X30488Y41424D01*
X22360Y41424D01*
X22259Y41422D01*
X22158Y41416D01*
X22057Y41407D01*
X21956Y41394D01*
X21856Y41377D01*
X21757Y41356D01*
X21659Y41332D01*
X21562Y41304D01*
X21465Y41272D01*
X21370Y41237D01*
X21277Y41198D01*
X21185Y41156D01*
X21094Y41110D01*
X21006Y41061D01*
X20919Y41009D01*
X20834Y40953D01*
X20751Y40895D01*
X20671Y40833D01*
X20593Y40768D01*
X20517Y40701D01*
X20444Y40631D01*
X20374Y40558D01*
X20307Y40482D01*
X20242Y40404D01*
X20180Y40324D01*
X20122Y40241D01*
X20066Y40156D01*
X20014Y40070D01*
X19965Y39981D01*
X19919Y39890D01*
X19877Y39798D01*
X19838Y39705D01*
X19803Y39610D01*
X19771Y39513D01*
X19743Y39416D01*
X19719Y39318D01*
X19698Y39219D01*
X19681Y39119D01*
X19668Y39018D01*
X19659Y38917D01*
X19653Y38816D01*
X19651Y38715D01*
X19651Y35102D01*
X19651Y48861D02*
X30488Y48861D01*
X19651Y48861D02*
X19651Y53377D01*
X19653Y53481D01*
X19659Y53584D01*
X19669Y53688D01*
X19683Y53791D01*
X19701Y53893D01*
X19722Y53994D01*
X19748Y54095D01*
X19777Y54194D01*
X19810Y54293D01*
X19847Y54390D01*
X19888Y54485D01*
X19932Y54579D01*
X19980Y54671D01*
X20031Y54761D01*
X20086Y54850D01*
X20144Y54936D01*
X20206Y55019D01*
X20270Y55101D01*
X20338Y55179D01*
X20408Y55255D01*
X20481Y55329D01*
X20558Y55399D01*
X20636Y55467D01*
X20718Y55531D01*
X20801Y55593D01*
X20887Y55651D01*
X20976Y55706D01*
X21066Y55757D01*
X21158Y55805D01*
X21252Y55849D01*
X21347Y55890D01*
X21444Y55927D01*
X21543Y55960D01*
X21642Y55989D01*
X21743Y56015D01*
X21844Y56036D01*
X21946Y56054D01*
X22049Y56068D01*
X22153Y56078D01*
X22256Y56084D01*
X22360Y56086D01*
X30488Y56086D01*
X30488Y70081D02*
X14232Y70081D01*
X30488Y70081D02*
X30488Y65566D01*
X30486Y65465D01*
X30480Y65364D01*
X30471Y65263D01*
X30458Y65162D01*
X30441Y65062D01*
X30420Y64963D01*
X30396Y64865D01*
X30368Y64768D01*
X30336Y64671D01*
X30301Y64576D01*
X30262Y64483D01*
X30220Y64391D01*
X30174Y64300D01*
X30125Y64211D01*
X30073Y64125D01*
X30017Y64040D01*
X29959Y63957D01*
X29897Y63877D01*
X29832Y63799D01*
X29765Y63723D01*
X29695Y63650D01*
X29622Y63580D01*
X29546Y63513D01*
X29468Y63448D01*
X29388Y63386D01*
X29305Y63328D01*
X29220Y63272D01*
X29133Y63220D01*
X29045Y63171D01*
X28954Y63125D01*
X28862Y63083D01*
X28769Y63044D01*
X28674Y63009D01*
X28577Y62977D01*
X28480Y62949D01*
X28382Y62925D01*
X28283Y62904D01*
X28183Y62887D01*
X28082Y62874D01*
X27981Y62865D01*
X27880Y62859D01*
X27779Y62857D01*
X27779Y62856D02*
X22360Y62856D01*
X22360Y62857D02*
X22259Y62859D01*
X22158Y62865D01*
X22057Y62874D01*
X21956Y62887D01*
X21856Y62904D01*
X21757Y62925D01*
X21659Y62949D01*
X21562Y62977D01*
X21465Y63009D01*
X21370Y63044D01*
X21277Y63083D01*
X21185Y63125D01*
X21094Y63171D01*
X21006Y63220D01*
X20919Y63272D01*
X20834Y63328D01*
X20751Y63386D01*
X20671Y63448D01*
X20593Y63513D01*
X20517Y63580D01*
X20444Y63650D01*
X20374Y63723D01*
X20307Y63799D01*
X20242Y63877D01*
X20180Y63957D01*
X20122Y64040D01*
X20066Y64125D01*
X20014Y64211D01*
X19965Y64300D01*
X19919Y64391D01*
X19877Y64483D01*
X19838Y64576D01*
X19803Y64671D01*
X19771Y64768D01*
X19743Y64865D01*
X19719Y64963D01*
X19698Y65062D01*
X19681Y65162D01*
X19668Y65263D01*
X19659Y65364D01*
X19653Y65465D01*
X19651Y65566D01*
X19651Y70081D01*
X30488Y90371D02*
X30486Y90489D01*
X30480Y90607D01*
X30471Y90725D01*
X30457Y90842D01*
X30440Y90959D01*
X30419Y91076D01*
X30394Y91191D01*
X30365Y91306D01*
X30332Y91420D01*
X30296Y91532D01*
X30256Y91643D01*
X30213Y91753D01*
X30166Y91862D01*
X30116Y91969D01*
X30061Y92074D01*
X30004Y92177D01*
X29943Y92278D01*
X29879Y92378D01*
X29812Y92475D01*
X29742Y92570D01*
X29668Y92662D01*
X29592Y92753D01*
X29512Y92840D01*
X29430Y92925D01*
X29345Y93007D01*
X29258Y93087D01*
X29167Y93163D01*
X29075Y93237D01*
X28980Y93307D01*
X28883Y93374D01*
X28783Y93438D01*
X28682Y93499D01*
X28579Y93556D01*
X28474Y93611D01*
X28367Y93661D01*
X28258Y93708D01*
X28148Y93751D01*
X28037Y93791D01*
X27925Y93827D01*
X27811Y93860D01*
X27696Y93889D01*
X27581Y93914D01*
X27464Y93935D01*
X27347Y93952D01*
X27230Y93966D01*
X27112Y93975D01*
X26994Y93981D01*
X26876Y93983D01*
X30488Y90371D02*
X30486Y90188D01*
X30479Y90006D01*
X30468Y89824D01*
X30453Y89642D01*
X30433Y89460D01*
X30410Y89279D01*
X30381Y89099D01*
X30349Y88919D01*
X30312Y88740D01*
X30271Y88563D01*
X30225Y88386D01*
X30176Y88210D01*
X30122Y88036D01*
X30064Y87862D01*
X30002Y87691D01*
X29936Y87521D01*
X29865Y87352D01*
X29791Y87185D01*
X29713Y87020D01*
X29631Y86857D01*
X29545Y86696D01*
X29455Y86537D01*
X29361Y86380D01*
X29264Y86226D01*
X29163Y86074D01*
X29058Y85924D01*
X28950Y85777D01*
X28839Y85633D01*
X28724Y85491D01*
X28605Y85352D01*
X28483Y85216D01*
X28358Y85083D01*
X28230Y84953D01*
X17844Y85404D02*
X17726Y85406D01*
X17608Y85412D01*
X17490Y85421D01*
X17373Y85435D01*
X17256Y85452D01*
X17139Y85473D01*
X17024Y85498D01*
X16909Y85527D01*
X16795Y85560D01*
X16683Y85596D01*
X16572Y85636D01*
X16462Y85679D01*
X16353Y85726D01*
X16246Y85776D01*
X16141Y85831D01*
X16038Y85888D01*
X15937Y85949D01*
X15837Y86013D01*
X15740Y86080D01*
X15645Y86150D01*
X15553Y86224D01*
X15462Y86300D01*
X15375Y86380D01*
X15290Y86462D01*
X15208Y86547D01*
X15128Y86634D01*
X15052Y86725D01*
X14978Y86817D01*
X14908Y86912D01*
X14841Y87009D01*
X14777Y87109D01*
X14716Y87210D01*
X14659Y87313D01*
X14604Y87418D01*
X14554Y87525D01*
X14507Y87634D01*
X14464Y87744D01*
X14424Y87855D01*
X14388Y87967D01*
X14355Y88081D01*
X14326Y88196D01*
X14301Y88311D01*
X14280Y88428D01*
X14263Y88545D01*
X14249Y88662D01*
X14240Y88780D01*
X14234Y88898D01*
X14232Y89016D01*
X14234Y89177D01*
X14240Y89339D01*
X14249Y89500D01*
X14263Y89661D01*
X14280Y89821D01*
X14301Y89981D01*
X14326Y90141D01*
X14355Y90300D01*
X14387Y90458D01*
X14423Y90615D01*
X14463Y90771D01*
X14507Y90927D01*
X14555Y91081D01*
X14606Y91234D01*
X14660Y91386D01*
X14719Y91537D01*
X14780Y91686D01*
X14846Y91833D01*
X14915Y91979D01*
X14987Y92124D01*
X15063Y92266D01*
X15142Y92407D01*
X15224Y92546D01*
X15310Y92682D01*
X15399Y92817D01*
X15491Y92950D01*
X15587Y93080D01*
X21005Y87210D02*
X20943Y87109D01*
X20878Y87009D01*
X20809Y86912D01*
X20737Y86817D01*
X20663Y86724D01*
X20585Y86634D01*
X20504Y86546D01*
X20421Y86461D01*
X20335Y86379D01*
X20246Y86300D01*
X20155Y86223D01*
X20061Y86150D01*
X19965Y86079D01*
X19867Y86012D01*
X19767Y85948D01*
X19664Y85887D01*
X19560Y85830D01*
X19454Y85776D01*
X19346Y85726D01*
X19237Y85679D01*
X19126Y85635D01*
X19014Y85595D01*
X18900Y85559D01*
X18786Y85527D01*
X18670Y85498D01*
X18554Y85473D01*
X18437Y85452D01*
X18319Y85435D01*
X18201Y85421D01*
X18082Y85412D01*
X17963Y85406D01*
X17844Y85404D01*
X23715Y92177D02*
X23777Y92278D01*
X23842Y92378D01*
X23911Y92475D01*
X23983Y92570D01*
X24057Y92663D01*
X24135Y92753D01*
X24216Y92841D01*
X24299Y92926D01*
X24385Y93008D01*
X24474Y93087D01*
X24565Y93164D01*
X24659Y93237D01*
X24755Y93308D01*
X24853Y93375D01*
X24953Y93439D01*
X25056Y93500D01*
X25160Y93557D01*
X25266Y93611D01*
X25374Y93661D01*
X25483Y93708D01*
X25594Y93752D01*
X25706Y93792D01*
X25820Y93828D01*
X25934Y93860D01*
X26050Y93889D01*
X26166Y93914D01*
X26283Y93935D01*
X26401Y93952D01*
X26519Y93966D01*
X26638Y93975D01*
X26757Y93981D01*
X26876Y93983D01*
X23715Y92177D02*
X21005Y87210D01*
X19651Y98626D02*
X19651Y104045D01*
X14232Y100432D02*
X27779Y100432D01*
X27779Y100433D02*
X27880Y100435D01*
X27981Y100441D01*
X28082Y100450D01*
X28183Y100463D01*
X28283Y100480D01*
X28382Y100501D01*
X28480Y100525D01*
X28577Y100553D01*
X28674Y100585D01*
X28769Y100620D01*
X28862Y100659D01*
X28954Y100701D01*
X29045Y100747D01*
X29133Y100796D01*
X29220Y100848D01*
X29305Y100904D01*
X29388Y100962D01*
X29468Y101024D01*
X29546Y101089D01*
X29622Y101156D01*
X29695Y101226D01*
X29765Y101299D01*
X29832Y101375D01*
X29897Y101453D01*
X29959Y101533D01*
X30017Y101616D01*
X30073Y101701D01*
X30125Y101787D01*
X30174Y101876D01*
X30220Y101967D01*
X30262Y102059D01*
X30301Y102152D01*
X30336Y102247D01*
X30368Y102344D01*
X30396Y102441D01*
X30420Y102539D01*
X30441Y102638D01*
X30458Y102738D01*
X30471Y102839D01*
X30480Y102940D01*
X30486Y103041D01*
X30488Y103142D01*
X30488Y104045D01*
X26876Y109823D02*
X23263Y109823D01*
X23263Y109824D02*
X23144Y109826D01*
X23024Y109832D01*
X22905Y109842D01*
X22787Y109856D01*
X22668Y109873D01*
X22551Y109895D01*
X22434Y109920D01*
X22319Y109950D01*
X22204Y109983D01*
X22090Y110020D01*
X21978Y110060D01*
X21867Y110105D01*
X21758Y110153D01*
X21650Y110204D01*
X21544Y110259D01*
X21440Y110318D01*
X21338Y110380D01*
X21238Y110445D01*
X21140Y110514D01*
X21044Y110586D01*
X20951Y110661D01*
X20861Y110738D01*
X20773Y110819D01*
X20688Y110903D01*
X20606Y110990D01*
X20526Y111079D01*
X20450Y111171D01*
X20376Y111265D01*
X20306Y111362D01*
X20239Y111460D01*
X20175Y111561D01*
X20115Y111665D01*
X20058Y111770D01*
X20005Y111877D01*
X19955Y111985D01*
X19909Y112095D01*
X19867Y112207D01*
X19828Y112320D01*
X19793Y112434D01*
X19762Y112549D01*
X19734Y112666D01*
X19711Y112783D01*
X19691Y112900D01*
X19675Y113019D01*
X19663Y113138D01*
X19655Y113257D01*
X19651Y113376D01*
X19651Y113496D01*
X19655Y113615D01*
X19663Y113734D01*
X19675Y113853D01*
X19691Y113972D01*
X19711Y114089D01*
X19734Y114206D01*
X19762Y114323D01*
X19793Y114438D01*
X19828Y114552D01*
X19867Y114665D01*
X19909Y114777D01*
X19955Y114887D01*
X20005Y114995D01*
X20058Y115102D01*
X20115Y115207D01*
X20175Y115311D01*
X20239Y115412D01*
X20306Y115510D01*
X20376Y115607D01*
X20450Y115701D01*
X20526Y115793D01*
X20606Y115882D01*
X20688Y115969D01*
X20773Y116053D01*
X20861Y116134D01*
X20951Y116211D01*
X21044Y116286D01*
X21140Y116358D01*
X21238Y116427D01*
X21338Y116492D01*
X21440Y116554D01*
X21544Y116613D01*
X21650Y116668D01*
X21758Y116719D01*
X21867Y116767D01*
X21978Y116812D01*
X22090Y116852D01*
X22204Y116889D01*
X22319Y116922D01*
X22434Y116952D01*
X22551Y116977D01*
X22668Y116999D01*
X22787Y117016D01*
X22905Y117030D01*
X23024Y117040D01*
X23144Y117046D01*
X23263Y117048D01*
X26876Y117048D01*
X26995Y117046D01*
X27115Y117040D01*
X27234Y117030D01*
X27352Y117016D01*
X27471Y116999D01*
X27588Y116977D01*
X27705Y116952D01*
X27820Y116922D01*
X27935Y116889D01*
X28049Y116852D01*
X28161Y116812D01*
X28272Y116767D01*
X28381Y116719D01*
X28489Y116668D01*
X28595Y116613D01*
X28699Y116554D01*
X28801Y116492D01*
X28901Y116427D01*
X28999Y116358D01*
X29095Y116286D01*
X29188Y116211D01*
X29278Y116134D01*
X29366Y116053D01*
X29451Y115969D01*
X29533Y115882D01*
X29613Y115793D01*
X29689Y115701D01*
X29763Y115607D01*
X29833Y115510D01*
X29900Y115412D01*
X29964Y115311D01*
X30024Y115207D01*
X30081Y115102D01*
X30134Y114995D01*
X30184Y114887D01*
X30230Y114777D01*
X30272Y114665D01*
X30311Y114552D01*
X30346Y114438D01*
X30377Y114323D01*
X30405Y114206D01*
X30428Y114089D01*
X30448Y113972D01*
X30464Y113853D01*
X30476Y113734D01*
X30484Y113615D01*
X30488Y113496D01*
X30488Y113376D01*
X30484Y113257D01*
X30476Y113138D01*
X30464Y113019D01*
X30448Y112900D01*
X30428Y112783D01*
X30405Y112666D01*
X30377Y112549D01*
X30346Y112434D01*
X30311Y112320D01*
X30272Y112207D01*
X30230Y112095D01*
X30184Y111985D01*
X30134Y111877D01*
X30081Y111770D01*
X30024Y111665D01*
X29964Y111561D01*
X29900Y111460D01*
X29833Y111362D01*
X29763Y111265D01*
X29689Y111171D01*
X29613Y111079D01*
X29533Y110990D01*
X29451Y110903D01*
X29366Y110819D01*
X29278Y110738D01*
X29188Y110661D01*
X29095Y110586D01*
X28999Y110514D01*
X28901Y110445D01*
X28801Y110380D01*
X28699Y110318D01*
X28595Y110259D01*
X28489Y110204D01*
X28381Y110153D01*
X28272Y110105D01*
X28161Y110060D01*
X28049Y110020D01*
X27935Y109983D01*
X27820Y109950D01*
X27705Y109920D01*
X27588Y109895D01*
X27471Y109873D01*
X27352Y109856D01*
X27234Y109842D01*
X27115Y109832D01*
X26995Y109826D01*
X26876Y109824D01*
X19651Y123964D02*
X35907Y123964D01*
X19651Y123964D02*
X19651Y128480D01*
X19653Y128584D01*
X19659Y128687D01*
X19669Y128791D01*
X19683Y128894D01*
X19701Y128996D01*
X19722Y129097D01*
X19748Y129198D01*
X19777Y129297D01*
X19810Y129396D01*
X19847Y129493D01*
X19888Y129588D01*
X19932Y129682D01*
X19980Y129774D01*
X20031Y129864D01*
X20086Y129953D01*
X20144Y130039D01*
X20206Y130122D01*
X20270Y130204D01*
X20338Y130282D01*
X20408Y130358D01*
X20481Y130432D01*
X20558Y130502D01*
X20636Y130570D01*
X20718Y130634D01*
X20801Y130696D01*
X20887Y130754D01*
X20976Y130809D01*
X21066Y130860D01*
X21158Y130908D01*
X21252Y130952D01*
X21347Y130993D01*
X21444Y131030D01*
X21543Y131063D01*
X21642Y131092D01*
X21743Y131118D01*
X21844Y131139D01*
X21946Y131157D01*
X22049Y131171D01*
X22153Y131181D01*
X22256Y131187D01*
X22360Y131189D01*
X27779Y131189D01*
X27880Y131187D01*
X27981Y131181D01*
X28082Y131172D01*
X28183Y131159D01*
X28283Y131142D01*
X28382Y131121D01*
X28480Y131097D01*
X28577Y131069D01*
X28674Y131037D01*
X28769Y131002D01*
X28862Y130963D01*
X28954Y130921D01*
X29045Y130875D01*
X29134Y130826D01*
X29220Y130774D01*
X29305Y130718D01*
X29388Y130660D01*
X29468Y130598D01*
X29546Y130533D01*
X29622Y130466D01*
X29695Y130396D01*
X29765Y130323D01*
X29832Y130247D01*
X29897Y130169D01*
X29959Y130089D01*
X30017Y130006D01*
X30073Y129921D01*
X30125Y129835D01*
X30174Y129746D01*
X30220Y129655D01*
X30262Y129563D01*
X30301Y129470D01*
X30336Y129375D01*
X30368Y129278D01*
X30396Y129181D01*
X30420Y129083D01*
X30441Y128984D01*
X30458Y128884D01*
X30471Y128783D01*
X30480Y128682D01*
X30486Y128581D01*
X30488Y128480D01*
X30488Y123964D01*
X30488Y146465D02*
X14232Y146465D01*
X14232Y153690D01*
X21457Y153690D02*
X21457Y146465D01*
X19651Y159287D02*
X30488Y159287D01*
X15135Y158836D02*
X14232Y158836D01*
X14232Y159739D01*
X15135Y159739D01*
X15135Y158836D01*
X14232Y165811D02*
X27779Y165811D01*
X27779Y165812D02*
X27880Y165814D01*
X27981Y165820D01*
X28082Y165829D01*
X28183Y165842D01*
X28283Y165859D01*
X28382Y165880D01*
X28480Y165904D01*
X28577Y165932D01*
X28674Y165964D01*
X28769Y165999D01*
X28862Y166038D01*
X28954Y166080D01*
X29045Y166126D01*
X29133Y166175D01*
X29220Y166227D01*
X29305Y166283D01*
X29388Y166341D01*
X29468Y166403D01*
X29546Y166468D01*
X29622Y166535D01*
X29695Y166605D01*
X29765Y166678D01*
X29832Y166754D01*
X29897Y166832D01*
X29959Y166912D01*
X30017Y166995D01*
X30073Y167080D01*
X30125Y167166D01*
X30174Y167255D01*
X30220Y167346D01*
X30262Y167438D01*
X30301Y167531D01*
X30336Y167626D01*
X30368Y167723D01*
X30396Y167820D01*
X30420Y167918D01*
X30441Y168017D01*
X30458Y168117D01*
X30471Y168218D01*
X30480Y168319D01*
X30486Y168420D01*
X30488Y168521D01*
X19651Y172614D02*
X19651Y178032D01*
X14232Y174420D02*
X27779Y174420D01*
X27880Y174422D01*
X27981Y174428D01*
X28082Y174437D01*
X28183Y174450D01*
X28283Y174467D01*
X28382Y174488D01*
X28480Y174512D01*
X28577Y174540D01*
X28674Y174572D01*
X28769Y174607D01*
X28862Y174646D01*
X28954Y174688D01*
X29045Y174734D01*
X29133Y174783D01*
X29220Y174835D01*
X29305Y174891D01*
X29388Y174949D01*
X29468Y175011D01*
X29546Y175076D01*
X29622Y175143D01*
X29695Y175213D01*
X29765Y175286D01*
X29832Y175362D01*
X29897Y175440D01*
X29959Y175520D01*
X30017Y175603D01*
X30073Y175688D01*
X30125Y175774D01*
X30174Y175863D01*
X30220Y175954D01*
X30262Y176046D01*
X30301Y176139D01*
X30336Y176234D01*
X30368Y176331D01*
X30396Y176428D01*
X30420Y176526D01*
X30441Y176625D01*
X30458Y176725D01*
X30471Y176826D01*
X30480Y176927D01*
X30486Y177028D01*
X30488Y177129D01*
X30488Y178032D01*
X30488Y186520D02*
X30488Y191036D01*
X30488Y186520D02*
X30486Y186419D01*
X30480Y186318D01*
X30471Y186217D01*
X30458Y186116D01*
X30441Y186016D01*
X30420Y185917D01*
X30396Y185819D01*
X30368Y185722D01*
X30336Y185625D01*
X30301Y185530D01*
X30262Y185437D01*
X30220Y185345D01*
X30174Y185254D01*
X30125Y185165D01*
X30073Y185079D01*
X30017Y184994D01*
X29959Y184911D01*
X29897Y184831D01*
X29832Y184753D01*
X29765Y184677D01*
X29695Y184604D01*
X29622Y184534D01*
X29546Y184467D01*
X29468Y184402D01*
X29388Y184340D01*
X29305Y184282D01*
X29220Y184226D01*
X29133Y184174D01*
X29045Y184125D01*
X28954Y184079D01*
X28862Y184037D01*
X28769Y183998D01*
X28674Y183963D01*
X28577Y183931D01*
X28480Y183903D01*
X28382Y183879D01*
X28283Y183858D01*
X28183Y183841D01*
X28082Y183828D01*
X27981Y183819D01*
X27880Y183813D01*
X27779Y183811D01*
X23263Y183811D01*
X23144Y183813D01*
X23024Y183819D01*
X22905Y183829D01*
X22787Y183843D01*
X22668Y183860D01*
X22551Y183882D01*
X22434Y183907D01*
X22319Y183937D01*
X22204Y183970D01*
X22090Y184007D01*
X21978Y184047D01*
X21867Y184092D01*
X21758Y184140D01*
X21650Y184191D01*
X21544Y184246D01*
X21440Y184305D01*
X21338Y184367D01*
X21238Y184432D01*
X21140Y184501D01*
X21044Y184573D01*
X20951Y184648D01*
X20861Y184725D01*
X20773Y184806D01*
X20688Y184890D01*
X20606Y184977D01*
X20526Y185066D01*
X20450Y185158D01*
X20376Y185252D01*
X20306Y185349D01*
X20239Y185447D01*
X20175Y185548D01*
X20115Y185652D01*
X20058Y185757D01*
X20005Y185864D01*
X19955Y185972D01*
X19909Y186082D01*
X19867Y186194D01*
X19828Y186307D01*
X19793Y186421D01*
X19762Y186536D01*
X19734Y186653D01*
X19711Y186770D01*
X19691Y186887D01*
X19675Y187006D01*
X19663Y187125D01*
X19655Y187244D01*
X19651Y187363D01*
X19651Y187483D01*
X19655Y187602D01*
X19663Y187721D01*
X19675Y187840D01*
X19691Y187959D01*
X19711Y188076D01*
X19734Y188193D01*
X19762Y188310D01*
X19793Y188425D01*
X19828Y188539D01*
X19867Y188652D01*
X19909Y188764D01*
X19955Y188874D01*
X20005Y188982D01*
X20058Y189089D01*
X20115Y189194D01*
X20175Y189298D01*
X20239Y189399D01*
X20306Y189497D01*
X20376Y189594D01*
X20450Y189688D01*
X20526Y189780D01*
X20606Y189869D01*
X20688Y189956D01*
X20773Y190040D01*
X20861Y190121D01*
X20951Y190198D01*
X21044Y190273D01*
X21140Y190345D01*
X21238Y190414D01*
X21338Y190479D01*
X21440Y190541D01*
X21544Y190600D01*
X21650Y190655D01*
X21758Y190706D01*
X21867Y190754D01*
X21978Y190799D01*
X22090Y190839D01*
X22204Y190876D01*
X22319Y190909D01*
X22434Y190939D01*
X22551Y190964D01*
X22668Y190986D01*
X22787Y191003D01*
X22905Y191017D01*
X23024Y191027D01*
X23144Y191033D01*
X23263Y191035D01*
X23263Y191036D02*
X25069Y191036D01*
X25069Y183811D01*
X30488Y197964D02*
X19651Y197964D01*
X19651Y203382D01*
X21457Y203382D01*
D11*
X192234Y389331D02*
X194287Y389331D01*
X192234Y389331D02*
X192144Y389333D01*
X192055Y389339D01*
X191966Y389349D01*
X191878Y389362D01*
X191790Y389380D01*
X191703Y389401D01*
X191617Y389426D01*
X191532Y389455D01*
X191448Y389487D01*
X191366Y389523D01*
X191286Y389563D01*
X191208Y389606D01*
X191131Y389653D01*
X191056Y389702D01*
X190984Y389755D01*
X190914Y389811D01*
X190847Y389870D01*
X190782Y389932D01*
X190720Y389997D01*
X190661Y390064D01*
X190605Y390134D01*
X190552Y390206D01*
X190503Y390281D01*
X190456Y390358D01*
X190413Y390436D01*
X190373Y390516D01*
X190337Y390598D01*
X190305Y390682D01*
X190276Y390767D01*
X190251Y390853D01*
X190230Y390940D01*
X190212Y391028D01*
X190199Y391116D01*
X190189Y391205D01*
X190183Y391294D01*
X190181Y391384D01*
X190181Y396516D01*
X190183Y396606D01*
X190189Y396695D01*
X190199Y396784D01*
X190212Y396872D01*
X190230Y396960D01*
X190251Y397047D01*
X190276Y397133D01*
X190305Y397218D01*
X190337Y397302D01*
X190373Y397384D01*
X190413Y397464D01*
X190456Y397542D01*
X190503Y397619D01*
X190552Y397694D01*
X190605Y397766D01*
X190661Y397836D01*
X190720Y397903D01*
X190782Y397968D01*
X190847Y398030D01*
X190914Y398089D01*
X190984Y398145D01*
X191056Y398198D01*
X191131Y398247D01*
X191207Y398294D01*
X191286Y398337D01*
X191366Y398377D01*
X191448Y398413D01*
X191532Y398445D01*
X191617Y398474D01*
X191703Y398499D01*
X191790Y398520D01*
X191877Y398538D01*
X191966Y398551D01*
X192055Y398561D01*
X192144Y398567D01*
X192234Y398569D01*
X194287Y398569D01*
X197706Y396516D02*
X200273Y398569D01*
X200273Y389331D01*
X202839Y389331D02*
X197706Y389331D01*
X530984Y393081D02*
X533037Y393081D01*
X530984Y393081D02*
X530894Y393083D01*
X530805Y393089D01*
X530716Y393099D01*
X530628Y393112D01*
X530540Y393130D01*
X530453Y393151D01*
X530367Y393176D01*
X530282Y393205D01*
X530198Y393237D01*
X530116Y393273D01*
X530036Y393313D01*
X529958Y393356D01*
X529881Y393403D01*
X529806Y393452D01*
X529734Y393505D01*
X529664Y393561D01*
X529597Y393620D01*
X529532Y393682D01*
X529470Y393747D01*
X529411Y393814D01*
X529355Y393884D01*
X529302Y393956D01*
X529253Y394031D01*
X529206Y394108D01*
X529163Y394186D01*
X529123Y394266D01*
X529087Y394348D01*
X529055Y394432D01*
X529026Y394517D01*
X529001Y394603D01*
X528980Y394690D01*
X528962Y394778D01*
X528949Y394866D01*
X528939Y394955D01*
X528933Y395044D01*
X528931Y395134D01*
X528931Y400266D01*
X528933Y400356D01*
X528939Y400445D01*
X528949Y400534D01*
X528962Y400622D01*
X528980Y400710D01*
X529001Y400797D01*
X529026Y400883D01*
X529055Y400968D01*
X529087Y401052D01*
X529123Y401134D01*
X529163Y401214D01*
X529206Y401292D01*
X529253Y401369D01*
X529302Y401444D01*
X529355Y401516D01*
X529411Y401586D01*
X529470Y401653D01*
X529532Y401718D01*
X529597Y401780D01*
X529664Y401839D01*
X529734Y401895D01*
X529806Y401948D01*
X529881Y401997D01*
X529957Y402044D01*
X530036Y402087D01*
X530116Y402127D01*
X530198Y402163D01*
X530282Y402195D01*
X530367Y402224D01*
X530453Y402249D01*
X530540Y402270D01*
X530627Y402288D01*
X530716Y402301D01*
X530805Y402311D01*
X530894Y402317D01*
X530984Y402319D01*
X533037Y402319D01*
X536456Y400266D02*
X539023Y402319D01*
X539023Y393081D01*
X541589Y393081D02*
X536456Y393081D01*
X545456Y400266D02*
X548023Y402319D01*
X548023Y393081D01*
X550589Y393081D02*
X545456Y393081D01*
X554070Y392055D02*
X558175Y392055D01*
X561656Y400266D02*
X564223Y402319D01*
X564223Y393081D01*
X566789Y393081D02*
X561656Y393081D01*
X469287Y399331D02*
X467234Y399331D01*
X467144Y399333D01*
X467055Y399339D01*
X466966Y399349D01*
X466878Y399362D01*
X466790Y399380D01*
X466703Y399401D01*
X466617Y399426D01*
X466532Y399455D01*
X466448Y399487D01*
X466366Y399523D01*
X466286Y399563D01*
X466208Y399606D01*
X466131Y399653D01*
X466056Y399702D01*
X465984Y399755D01*
X465914Y399811D01*
X465847Y399870D01*
X465782Y399932D01*
X465720Y399997D01*
X465661Y400064D01*
X465605Y400134D01*
X465552Y400206D01*
X465503Y400281D01*
X465456Y400358D01*
X465413Y400436D01*
X465373Y400516D01*
X465337Y400598D01*
X465305Y400682D01*
X465276Y400767D01*
X465251Y400853D01*
X465230Y400940D01*
X465212Y401028D01*
X465199Y401116D01*
X465189Y401205D01*
X465183Y401294D01*
X465181Y401384D01*
X465181Y406516D01*
X465183Y406606D01*
X465189Y406695D01*
X465199Y406784D01*
X465212Y406872D01*
X465230Y406960D01*
X465251Y407047D01*
X465276Y407133D01*
X465305Y407218D01*
X465337Y407302D01*
X465373Y407384D01*
X465413Y407464D01*
X465456Y407542D01*
X465503Y407619D01*
X465552Y407694D01*
X465605Y407766D01*
X465661Y407836D01*
X465720Y407903D01*
X465782Y407968D01*
X465847Y408030D01*
X465914Y408089D01*
X465984Y408145D01*
X466056Y408198D01*
X466131Y408247D01*
X466207Y408294D01*
X466286Y408337D01*
X466366Y408377D01*
X466448Y408413D01*
X466532Y408445D01*
X466617Y408474D01*
X466703Y408499D01*
X466790Y408520D01*
X466877Y408538D01*
X466966Y408551D01*
X467055Y408561D01*
X467144Y408567D01*
X467234Y408569D01*
X469287Y408569D01*
X472706Y406516D02*
X475273Y408569D01*
X475273Y399331D01*
X477839Y399331D02*
X472706Y399331D01*
X481706Y406516D02*
X484273Y408569D01*
X484273Y399331D01*
X486839Y399331D02*
X481706Y399331D01*
X490320Y398305D02*
X494425Y398305D01*
X503039Y406259D02*
X503037Y406352D01*
X503032Y406445D01*
X503022Y406537D01*
X503009Y406630D01*
X502992Y406721D01*
X502972Y406812D01*
X502948Y406902D01*
X502920Y406991D01*
X502889Y407078D01*
X502854Y407164D01*
X502816Y407249D01*
X502774Y407333D01*
X502730Y407414D01*
X502681Y407494D01*
X502630Y407571D01*
X502576Y407647D01*
X502518Y407720D01*
X502458Y407791D01*
X502395Y407859D01*
X502329Y407925D01*
X502261Y407988D01*
X502190Y408048D01*
X502117Y408106D01*
X502041Y408160D01*
X501964Y408211D01*
X501884Y408260D01*
X501803Y408304D01*
X501719Y408346D01*
X501634Y408384D01*
X501548Y408419D01*
X501461Y408450D01*
X501372Y408478D01*
X501282Y408502D01*
X501191Y408522D01*
X501100Y408539D01*
X501007Y408552D01*
X500915Y408562D01*
X500822Y408567D01*
X500729Y408569D01*
X500622Y408567D01*
X500516Y408561D01*
X500410Y408552D01*
X500304Y408538D01*
X500199Y408521D01*
X500094Y408500D01*
X499991Y408476D01*
X499888Y408447D01*
X499786Y408415D01*
X499686Y408380D01*
X499587Y408340D01*
X499489Y408297D01*
X499393Y408251D01*
X499299Y408201D01*
X499206Y408148D01*
X499116Y408092D01*
X499027Y408032D01*
X498941Y407970D01*
X498857Y407904D01*
X498776Y407835D01*
X498697Y407764D01*
X498620Y407689D01*
X498547Y407612D01*
X498476Y407533D01*
X498408Y407450D01*
X498343Y407366D01*
X498281Y407279D01*
X498223Y407190D01*
X498167Y407099D01*
X498115Y407006D01*
X498066Y406911D01*
X498021Y406815D01*
X497979Y406716D01*
X497941Y406617D01*
X497906Y406516D01*
X502269Y404462D02*
X502337Y404530D01*
X502402Y404600D01*
X502465Y404672D01*
X502525Y404747D01*
X502582Y404824D01*
X502635Y404903D01*
X502686Y404984D01*
X502734Y405067D01*
X502778Y405151D01*
X502819Y405238D01*
X502857Y405326D01*
X502891Y405415D01*
X502922Y405506D01*
X502949Y405597D01*
X502973Y405690D01*
X502993Y405784D01*
X503010Y405878D01*
X503022Y405973D01*
X503032Y406068D01*
X503037Y406163D01*
X503039Y406259D01*
X502269Y404463D02*
X497906Y399331D01*
X503039Y399331D01*
X375537Y133081D02*
X373484Y133081D01*
X373394Y133083D01*
X373305Y133089D01*
X373216Y133099D01*
X373128Y133112D01*
X373040Y133130D01*
X372953Y133151D01*
X372867Y133176D01*
X372782Y133205D01*
X372698Y133237D01*
X372616Y133273D01*
X372536Y133313D01*
X372458Y133356D01*
X372381Y133403D01*
X372306Y133452D01*
X372234Y133505D01*
X372164Y133561D01*
X372097Y133620D01*
X372032Y133682D01*
X371970Y133747D01*
X371911Y133814D01*
X371855Y133884D01*
X371802Y133956D01*
X371753Y134031D01*
X371706Y134108D01*
X371663Y134186D01*
X371623Y134266D01*
X371587Y134348D01*
X371555Y134432D01*
X371526Y134517D01*
X371501Y134603D01*
X371480Y134690D01*
X371462Y134778D01*
X371449Y134866D01*
X371439Y134955D01*
X371433Y135044D01*
X371431Y135134D01*
X371431Y140266D01*
X371433Y140356D01*
X371439Y140445D01*
X371449Y140534D01*
X371462Y140622D01*
X371480Y140710D01*
X371501Y140797D01*
X371526Y140883D01*
X371555Y140968D01*
X371587Y141052D01*
X371623Y141134D01*
X371663Y141214D01*
X371706Y141292D01*
X371753Y141369D01*
X371802Y141444D01*
X371855Y141516D01*
X371911Y141586D01*
X371970Y141653D01*
X372032Y141718D01*
X372097Y141780D01*
X372164Y141839D01*
X372234Y141895D01*
X372306Y141948D01*
X372381Y141997D01*
X372457Y142044D01*
X372536Y142087D01*
X372616Y142127D01*
X372698Y142163D01*
X372782Y142195D01*
X372867Y142224D01*
X372953Y142249D01*
X373040Y142270D01*
X373127Y142288D01*
X373216Y142301D01*
X373305Y142311D01*
X373394Y142317D01*
X373484Y142319D01*
X375537Y142319D01*
X378956Y140266D02*
X381523Y142319D01*
X381523Y133081D01*
X384089Y133081D02*
X378956Y133081D01*
X390779Y142319D02*
X390872Y142317D01*
X390965Y142312D01*
X391057Y142302D01*
X391150Y142289D01*
X391241Y142272D01*
X391332Y142252D01*
X391422Y142228D01*
X391511Y142200D01*
X391598Y142169D01*
X391684Y142134D01*
X391769Y142096D01*
X391853Y142054D01*
X391934Y142010D01*
X392014Y141961D01*
X392091Y141910D01*
X392167Y141856D01*
X392240Y141798D01*
X392311Y141738D01*
X392379Y141675D01*
X392445Y141609D01*
X392508Y141541D01*
X392568Y141470D01*
X392626Y141397D01*
X392680Y141321D01*
X392731Y141244D01*
X392780Y141164D01*
X392824Y141083D01*
X392866Y140999D01*
X392904Y140914D01*
X392939Y140828D01*
X392970Y140741D01*
X392998Y140652D01*
X393022Y140562D01*
X393042Y140471D01*
X393059Y140380D01*
X393072Y140287D01*
X393082Y140195D01*
X393087Y140102D01*
X393089Y140009D01*
X390779Y142319D02*
X390672Y142317D01*
X390566Y142311D01*
X390460Y142302D01*
X390354Y142288D01*
X390249Y142271D01*
X390144Y142250D01*
X390041Y142226D01*
X389938Y142197D01*
X389836Y142165D01*
X389736Y142130D01*
X389637Y142090D01*
X389539Y142047D01*
X389443Y142001D01*
X389349Y141951D01*
X389256Y141898D01*
X389166Y141842D01*
X389077Y141782D01*
X388991Y141720D01*
X388907Y141654D01*
X388826Y141585D01*
X388747Y141514D01*
X388670Y141439D01*
X388597Y141362D01*
X388526Y141283D01*
X388458Y141200D01*
X388393Y141116D01*
X388331Y141029D01*
X388273Y140940D01*
X388217Y140849D01*
X388165Y140756D01*
X388116Y140661D01*
X388071Y140565D01*
X388029Y140466D01*
X387991Y140367D01*
X387956Y140266D01*
X392319Y138212D02*
X392387Y138280D01*
X392452Y138350D01*
X392515Y138422D01*
X392575Y138497D01*
X392632Y138574D01*
X392685Y138653D01*
X392736Y138734D01*
X392784Y138817D01*
X392828Y138901D01*
X392869Y138988D01*
X392907Y139076D01*
X392941Y139165D01*
X392972Y139256D01*
X392999Y139347D01*
X393023Y139440D01*
X393043Y139534D01*
X393060Y139628D01*
X393072Y139723D01*
X393082Y139818D01*
X393087Y139913D01*
X393089Y140009D01*
X392319Y138213D02*
X387956Y133081D01*
X393089Y133081D01*
X396570Y132055D02*
X400675Y132055D01*
X404156Y140266D02*
X406723Y142319D01*
X406723Y133081D01*
X409289Y133081D02*
X404156Y133081D01*
X355537Y25581D02*
X353484Y25581D01*
X353394Y25583D01*
X353305Y25589D01*
X353216Y25599D01*
X353128Y25612D01*
X353040Y25630D01*
X352953Y25651D01*
X352867Y25676D01*
X352782Y25705D01*
X352698Y25737D01*
X352616Y25773D01*
X352536Y25813D01*
X352458Y25856D01*
X352381Y25903D01*
X352306Y25952D01*
X352234Y26005D01*
X352164Y26061D01*
X352097Y26120D01*
X352032Y26182D01*
X351970Y26247D01*
X351911Y26314D01*
X351855Y26384D01*
X351802Y26456D01*
X351753Y26531D01*
X351706Y26608D01*
X351663Y26686D01*
X351623Y26766D01*
X351587Y26848D01*
X351555Y26932D01*
X351526Y27017D01*
X351501Y27103D01*
X351480Y27190D01*
X351462Y27278D01*
X351449Y27366D01*
X351439Y27455D01*
X351433Y27544D01*
X351431Y27634D01*
X351431Y32766D01*
X351433Y32856D01*
X351439Y32945D01*
X351449Y33034D01*
X351462Y33122D01*
X351480Y33210D01*
X351501Y33297D01*
X351526Y33383D01*
X351555Y33468D01*
X351587Y33552D01*
X351623Y33634D01*
X351663Y33714D01*
X351706Y33792D01*
X351753Y33869D01*
X351802Y33944D01*
X351855Y34016D01*
X351911Y34086D01*
X351970Y34153D01*
X352032Y34218D01*
X352097Y34280D01*
X352164Y34339D01*
X352234Y34395D01*
X352306Y34448D01*
X352381Y34497D01*
X352457Y34544D01*
X352536Y34587D01*
X352616Y34627D01*
X352698Y34663D01*
X352782Y34695D01*
X352867Y34724D01*
X352953Y34749D01*
X353040Y34770D01*
X353127Y34788D01*
X353216Y34801D01*
X353305Y34811D01*
X353394Y34817D01*
X353484Y34819D01*
X355537Y34819D01*
X358956Y32766D02*
X361523Y34819D01*
X361523Y25581D01*
X364089Y25581D02*
X358956Y25581D01*
X370779Y34819D02*
X370872Y34817D01*
X370965Y34812D01*
X371057Y34802D01*
X371150Y34789D01*
X371241Y34772D01*
X371332Y34752D01*
X371422Y34728D01*
X371511Y34700D01*
X371598Y34669D01*
X371684Y34634D01*
X371769Y34596D01*
X371853Y34554D01*
X371934Y34510D01*
X372014Y34461D01*
X372091Y34410D01*
X372167Y34356D01*
X372240Y34298D01*
X372311Y34238D01*
X372379Y34175D01*
X372445Y34109D01*
X372508Y34041D01*
X372568Y33970D01*
X372626Y33897D01*
X372680Y33821D01*
X372731Y33744D01*
X372780Y33664D01*
X372824Y33583D01*
X372866Y33499D01*
X372904Y33414D01*
X372939Y33328D01*
X372970Y33241D01*
X372998Y33152D01*
X373022Y33062D01*
X373042Y32971D01*
X373059Y32880D01*
X373072Y32787D01*
X373082Y32695D01*
X373087Y32602D01*
X373089Y32509D01*
X370779Y34819D02*
X370672Y34817D01*
X370566Y34811D01*
X370460Y34802D01*
X370354Y34788D01*
X370249Y34771D01*
X370144Y34750D01*
X370041Y34726D01*
X369938Y34697D01*
X369836Y34665D01*
X369736Y34630D01*
X369637Y34590D01*
X369539Y34547D01*
X369443Y34501D01*
X369349Y34451D01*
X369256Y34398D01*
X369166Y34342D01*
X369077Y34282D01*
X368991Y34220D01*
X368907Y34154D01*
X368826Y34085D01*
X368747Y34014D01*
X368670Y33939D01*
X368597Y33862D01*
X368526Y33783D01*
X368458Y33700D01*
X368393Y33616D01*
X368331Y33529D01*
X368273Y33440D01*
X368217Y33349D01*
X368165Y33256D01*
X368116Y33161D01*
X368071Y33065D01*
X368029Y32966D01*
X367991Y32867D01*
X367956Y32766D01*
X372319Y30712D02*
X372387Y30780D01*
X372452Y30850D01*
X372515Y30922D01*
X372575Y30997D01*
X372632Y31074D01*
X372685Y31153D01*
X372736Y31234D01*
X372784Y31317D01*
X372828Y31401D01*
X372869Y31488D01*
X372907Y31576D01*
X372941Y31665D01*
X372972Y31756D01*
X372999Y31847D01*
X373023Y31940D01*
X373043Y32034D01*
X373060Y32128D01*
X373072Y32223D01*
X373082Y32318D01*
X373087Y32413D01*
X373089Y32509D01*
X372319Y30713D02*
X367956Y25581D01*
X373089Y25581D01*
X376570Y24555D02*
X380675Y24555D01*
X389289Y32509D02*
X389287Y32602D01*
X389282Y32695D01*
X389272Y32787D01*
X389259Y32880D01*
X389242Y32971D01*
X389222Y33062D01*
X389198Y33152D01*
X389170Y33241D01*
X389139Y33328D01*
X389104Y33414D01*
X389066Y33499D01*
X389024Y33583D01*
X388980Y33664D01*
X388931Y33744D01*
X388880Y33821D01*
X388826Y33897D01*
X388768Y33970D01*
X388708Y34041D01*
X388645Y34109D01*
X388579Y34175D01*
X388511Y34238D01*
X388440Y34298D01*
X388367Y34356D01*
X388291Y34410D01*
X388214Y34461D01*
X388134Y34510D01*
X388053Y34554D01*
X387969Y34596D01*
X387884Y34634D01*
X387798Y34669D01*
X387711Y34700D01*
X387622Y34728D01*
X387532Y34752D01*
X387441Y34772D01*
X387350Y34789D01*
X387257Y34802D01*
X387165Y34812D01*
X387072Y34817D01*
X386979Y34819D01*
X386872Y34817D01*
X386766Y34811D01*
X386660Y34802D01*
X386554Y34788D01*
X386449Y34771D01*
X386344Y34750D01*
X386241Y34726D01*
X386138Y34697D01*
X386036Y34665D01*
X385936Y34630D01*
X385837Y34590D01*
X385739Y34547D01*
X385643Y34501D01*
X385549Y34451D01*
X385456Y34398D01*
X385366Y34342D01*
X385277Y34282D01*
X385191Y34220D01*
X385107Y34154D01*
X385026Y34085D01*
X384947Y34014D01*
X384870Y33939D01*
X384797Y33862D01*
X384726Y33783D01*
X384658Y33700D01*
X384593Y33616D01*
X384531Y33529D01*
X384473Y33440D01*
X384417Y33349D01*
X384365Y33256D01*
X384316Y33161D01*
X384271Y33065D01*
X384229Y32966D01*
X384191Y32867D01*
X384156Y32766D01*
X388519Y30712D02*
X388587Y30780D01*
X388652Y30850D01*
X388715Y30922D01*
X388775Y30997D01*
X388832Y31074D01*
X388885Y31153D01*
X388936Y31234D01*
X388984Y31317D01*
X389028Y31401D01*
X389069Y31488D01*
X389107Y31576D01*
X389141Y31665D01*
X389172Y31756D01*
X389199Y31847D01*
X389223Y31940D01*
X389243Y32034D01*
X389260Y32128D01*
X389272Y32223D01*
X389282Y32318D01*
X389287Y32413D01*
X389289Y32509D01*
X388519Y30713D02*
X384156Y25581D01*
X389289Y25581D01*
X607234Y393081D02*
X609287Y393081D01*
X607234Y393081D02*
X607144Y393083D01*
X607055Y393089D01*
X606966Y393099D01*
X606878Y393112D01*
X606790Y393130D01*
X606703Y393151D01*
X606617Y393176D01*
X606532Y393205D01*
X606448Y393237D01*
X606366Y393273D01*
X606286Y393313D01*
X606208Y393356D01*
X606131Y393403D01*
X606056Y393452D01*
X605984Y393505D01*
X605914Y393561D01*
X605847Y393620D01*
X605782Y393682D01*
X605720Y393747D01*
X605661Y393814D01*
X605605Y393884D01*
X605552Y393956D01*
X605503Y394031D01*
X605456Y394108D01*
X605413Y394186D01*
X605373Y394266D01*
X605337Y394348D01*
X605305Y394432D01*
X605276Y394517D01*
X605251Y394603D01*
X605230Y394690D01*
X605212Y394778D01*
X605199Y394866D01*
X605189Y394955D01*
X605183Y395044D01*
X605181Y395134D01*
X605181Y400266D01*
X605183Y400356D01*
X605189Y400445D01*
X605199Y400534D01*
X605212Y400622D01*
X605230Y400710D01*
X605251Y400797D01*
X605276Y400883D01*
X605305Y400968D01*
X605337Y401052D01*
X605373Y401134D01*
X605413Y401214D01*
X605456Y401292D01*
X605503Y401369D01*
X605552Y401444D01*
X605605Y401516D01*
X605661Y401586D01*
X605720Y401653D01*
X605782Y401718D01*
X605847Y401780D01*
X605914Y401839D01*
X605984Y401895D01*
X606056Y401948D01*
X606131Y401997D01*
X606207Y402044D01*
X606286Y402087D01*
X606366Y402127D01*
X606448Y402163D01*
X606532Y402195D01*
X606617Y402224D01*
X606703Y402249D01*
X606790Y402270D01*
X606877Y402288D01*
X606966Y402301D01*
X607055Y402311D01*
X607144Y402317D01*
X607234Y402319D01*
X609287Y402319D01*
X612706Y400266D02*
X615273Y402319D01*
X615273Y393081D01*
X617839Y393081D02*
X612706Y393081D01*
X621706Y395134D02*
X623759Y402319D01*
X621706Y395134D02*
X626839Y395134D01*
X625299Y397187D02*
X625299Y393081D01*
X691934Y133081D02*
X693987Y133081D01*
X691934Y133081D02*
X691844Y133083D01*
X691755Y133089D01*
X691666Y133099D01*
X691578Y133112D01*
X691490Y133130D01*
X691403Y133151D01*
X691317Y133176D01*
X691232Y133205D01*
X691148Y133237D01*
X691066Y133273D01*
X690986Y133313D01*
X690908Y133356D01*
X690831Y133403D01*
X690756Y133452D01*
X690684Y133505D01*
X690614Y133561D01*
X690547Y133620D01*
X690482Y133682D01*
X690420Y133747D01*
X690361Y133814D01*
X690305Y133884D01*
X690252Y133956D01*
X690203Y134031D01*
X690156Y134108D01*
X690113Y134186D01*
X690073Y134266D01*
X690037Y134348D01*
X690005Y134432D01*
X689976Y134517D01*
X689951Y134603D01*
X689930Y134690D01*
X689912Y134778D01*
X689899Y134866D01*
X689889Y134955D01*
X689883Y135044D01*
X689881Y135134D01*
X689881Y140266D01*
X689883Y140356D01*
X689889Y140445D01*
X689899Y140534D01*
X689912Y140622D01*
X689930Y140710D01*
X689951Y140797D01*
X689976Y140883D01*
X690005Y140968D01*
X690037Y141052D01*
X690073Y141134D01*
X690113Y141214D01*
X690156Y141292D01*
X690203Y141369D01*
X690252Y141444D01*
X690305Y141516D01*
X690361Y141586D01*
X690420Y141653D01*
X690482Y141718D01*
X690547Y141780D01*
X690614Y141839D01*
X690684Y141895D01*
X690756Y141948D01*
X690831Y141997D01*
X690907Y142044D01*
X690986Y142087D01*
X691066Y142127D01*
X691148Y142163D01*
X691232Y142195D01*
X691317Y142224D01*
X691403Y142249D01*
X691490Y142270D01*
X691577Y142288D01*
X691666Y142301D01*
X691755Y142311D01*
X691844Y142317D01*
X691934Y142319D01*
X693987Y142319D01*
X697406Y140266D02*
X699973Y142319D01*
X699973Y133081D01*
X702539Y133081D02*
X697406Y133081D01*
X706406Y133081D02*
X709486Y133081D01*
X709576Y133083D01*
X709665Y133089D01*
X709754Y133099D01*
X709842Y133112D01*
X709930Y133130D01*
X710017Y133151D01*
X710103Y133176D01*
X710188Y133205D01*
X710272Y133237D01*
X710354Y133273D01*
X710434Y133313D01*
X710512Y133356D01*
X710589Y133403D01*
X710664Y133452D01*
X710736Y133505D01*
X710806Y133561D01*
X710873Y133620D01*
X710938Y133682D01*
X711000Y133747D01*
X711059Y133814D01*
X711115Y133884D01*
X711168Y133956D01*
X711217Y134031D01*
X711264Y134107D01*
X711307Y134186D01*
X711347Y134266D01*
X711383Y134348D01*
X711415Y134432D01*
X711444Y134517D01*
X711469Y134603D01*
X711490Y134690D01*
X711508Y134777D01*
X711521Y134866D01*
X711531Y134955D01*
X711537Y135044D01*
X711539Y135134D01*
X711539Y136160D01*
X711537Y136250D01*
X711531Y136339D01*
X711521Y136428D01*
X711508Y136516D01*
X711490Y136604D01*
X711469Y136691D01*
X711444Y136777D01*
X711415Y136862D01*
X711383Y136946D01*
X711347Y137028D01*
X711307Y137108D01*
X711264Y137187D01*
X711217Y137263D01*
X711168Y137338D01*
X711115Y137410D01*
X711059Y137480D01*
X711000Y137547D01*
X710938Y137612D01*
X710873Y137674D01*
X710806Y137733D01*
X710736Y137789D01*
X710664Y137842D01*
X710589Y137891D01*
X710513Y137938D01*
X710434Y137981D01*
X710354Y138021D01*
X710272Y138057D01*
X710188Y138089D01*
X710103Y138118D01*
X710017Y138143D01*
X709930Y138164D01*
X709842Y138182D01*
X709754Y138195D01*
X709665Y138205D01*
X709576Y138211D01*
X709486Y138213D01*
X706406Y138213D01*
X706406Y142319D01*
X711539Y142319D01*
X184287Y273081D02*
X182234Y273081D01*
X182144Y273083D01*
X182055Y273089D01*
X181966Y273099D01*
X181878Y273112D01*
X181790Y273130D01*
X181703Y273151D01*
X181617Y273176D01*
X181532Y273205D01*
X181448Y273237D01*
X181366Y273273D01*
X181286Y273313D01*
X181208Y273356D01*
X181131Y273403D01*
X181056Y273452D01*
X180984Y273505D01*
X180914Y273561D01*
X180847Y273620D01*
X180782Y273682D01*
X180720Y273747D01*
X180661Y273814D01*
X180605Y273884D01*
X180552Y273956D01*
X180503Y274031D01*
X180456Y274108D01*
X180413Y274186D01*
X180373Y274266D01*
X180337Y274348D01*
X180305Y274432D01*
X180276Y274517D01*
X180251Y274603D01*
X180230Y274690D01*
X180212Y274778D01*
X180199Y274866D01*
X180189Y274955D01*
X180183Y275044D01*
X180181Y275134D01*
X180181Y280266D01*
X180183Y280356D01*
X180189Y280445D01*
X180199Y280534D01*
X180212Y280622D01*
X180230Y280710D01*
X180251Y280797D01*
X180276Y280883D01*
X180305Y280968D01*
X180337Y281052D01*
X180373Y281134D01*
X180413Y281214D01*
X180456Y281292D01*
X180503Y281369D01*
X180552Y281444D01*
X180605Y281516D01*
X180661Y281586D01*
X180720Y281653D01*
X180782Y281718D01*
X180847Y281780D01*
X180914Y281839D01*
X180984Y281895D01*
X181056Y281948D01*
X181131Y281997D01*
X181207Y282044D01*
X181286Y282087D01*
X181366Y282127D01*
X181448Y282163D01*
X181532Y282195D01*
X181617Y282224D01*
X181703Y282249D01*
X181790Y282270D01*
X181877Y282288D01*
X181966Y282301D01*
X182055Y282311D01*
X182144Y282317D01*
X182234Y282319D01*
X184287Y282319D01*
X190529Y282319D02*
X190622Y282317D01*
X190715Y282312D01*
X190807Y282302D01*
X190900Y282289D01*
X190991Y282272D01*
X191082Y282252D01*
X191172Y282228D01*
X191261Y282200D01*
X191348Y282169D01*
X191434Y282134D01*
X191519Y282096D01*
X191603Y282054D01*
X191684Y282010D01*
X191764Y281961D01*
X191841Y281910D01*
X191917Y281856D01*
X191990Y281798D01*
X192061Y281738D01*
X192129Y281675D01*
X192195Y281609D01*
X192258Y281541D01*
X192318Y281470D01*
X192376Y281397D01*
X192430Y281321D01*
X192481Y281244D01*
X192530Y281164D01*
X192574Y281083D01*
X192616Y280999D01*
X192654Y280914D01*
X192689Y280828D01*
X192720Y280741D01*
X192748Y280652D01*
X192772Y280562D01*
X192792Y280471D01*
X192809Y280380D01*
X192822Y280287D01*
X192832Y280195D01*
X192837Y280102D01*
X192839Y280009D01*
X190529Y282319D02*
X190422Y282317D01*
X190316Y282311D01*
X190210Y282302D01*
X190104Y282288D01*
X189999Y282271D01*
X189894Y282250D01*
X189791Y282226D01*
X189688Y282197D01*
X189586Y282165D01*
X189486Y282130D01*
X189387Y282090D01*
X189289Y282047D01*
X189193Y282001D01*
X189099Y281951D01*
X189006Y281898D01*
X188916Y281842D01*
X188827Y281782D01*
X188741Y281720D01*
X188657Y281654D01*
X188576Y281585D01*
X188497Y281514D01*
X188420Y281439D01*
X188347Y281362D01*
X188276Y281283D01*
X188208Y281200D01*
X188143Y281116D01*
X188081Y281029D01*
X188023Y280940D01*
X187967Y280849D01*
X187915Y280756D01*
X187866Y280661D01*
X187821Y280565D01*
X187779Y280466D01*
X187741Y280367D01*
X187706Y280266D01*
X192069Y278212D02*
X192137Y278280D01*
X192202Y278350D01*
X192265Y278422D01*
X192325Y278497D01*
X192382Y278574D01*
X192435Y278653D01*
X192486Y278734D01*
X192534Y278817D01*
X192578Y278901D01*
X192619Y278988D01*
X192657Y279076D01*
X192691Y279165D01*
X192722Y279256D01*
X192749Y279347D01*
X192773Y279440D01*
X192793Y279534D01*
X192810Y279628D01*
X192822Y279723D01*
X192832Y279818D01*
X192837Y279913D01*
X192839Y280009D01*
X192069Y278213D02*
X187706Y273081D01*
X192839Y273081D01*
X227234Y63081D02*
X229287Y63081D01*
X227234Y63081D02*
X227144Y63083D01*
X227055Y63089D01*
X226966Y63099D01*
X226878Y63112D01*
X226790Y63130D01*
X226703Y63151D01*
X226617Y63176D01*
X226532Y63205D01*
X226448Y63237D01*
X226366Y63273D01*
X226286Y63313D01*
X226208Y63356D01*
X226131Y63403D01*
X226056Y63452D01*
X225984Y63505D01*
X225914Y63561D01*
X225847Y63620D01*
X225782Y63682D01*
X225720Y63747D01*
X225661Y63814D01*
X225605Y63884D01*
X225552Y63956D01*
X225503Y64031D01*
X225456Y64108D01*
X225413Y64186D01*
X225373Y64266D01*
X225337Y64348D01*
X225305Y64432D01*
X225276Y64517D01*
X225251Y64603D01*
X225230Y64690D01*
X225212Y64778D01*
X225199Y64866D01*
X225189Y64955D01*
X225183Y65044D01*
X225181Y65134D01*
X225181Y70266D01*
X225183Y70356D01*
X225189Y70445D01*
X225199Y70534D01*
X225212Y70622D01*
X225230Y70710D01*
X225251Y70797D01*
X225276Y70883D01*
X225305Y70968D01*
X225337Y71052D01*
X225373Y71134D01*
X225413Y71214D01*
X225456Y71292D01*
X225503Y71369D01*
X225552Y71444D01*
X225605Y71516D01*
X225661Y71586D01*
X225720Y71653D01*
X225782Y71718D01*
X225847Y71780D01*
X225914Y71839D01*
X225984Y71895D01*
X226056Y71948D01*
X226131Y71997D01*
X226207Y72044D01*
X226286Y72087D01*
X226366Y72127D01*
X226448Y72163D01*
X226532Y72195D01*
X226617Y72224D01*
X226703Y72249D01*
X226790Y72270D01*
X226877Y72288D01*
X226966Y72301D01*
X227055Y72311D01*
X227144Y72317D01*
X227234Y72319D01*
X229287Y72319D01*
X232706Y63081D02*
X235273Y63081D01*
X235372Y63083D01*
X235472Y63089D01*
X235571Y63098D01*
X235669Y63112D01*
X235767Y63129D01*
X235865Y63150D01*
X235961Y63175D01*
X236056Y63204D01*
X236151Y63236D01*
X236243Y63272D01*
X236335Y63311D01*
X236425Y63354D01*
X236513Y63400D01*
X236599Y63450D01*
X236683Y63503D01*
X236765Y63559D01*
X236845Y63619D01*
X236922Y63681D01*
X236997Y63747D01*
X237070Y63815D01*
X237139Y63886D01*
X237206Y63960D01*
X237270Y64036D01*
X237331Y64115D01*
X237389Y64196D01*
X237444Y64279D01*
X237495Y64364D01*
X237543Y64451D01*
X237588Y64540D01*
X237629Y64631D01*
X237667Y64723D01*
X237701Y64816D01*
X237731Y64911D01*
X237758Y65007D01*
X237781Y65104D01*
X237800Y65201D01*
X237815Y65300D01*
X237827Y65399D01*
X237835Y65498D01*
X237839Y65597D01*
X237839Y65697D01*
X237835Y65796D01*
X237827Y65895D01*
X237815Y65994D01*
X237800Y66093D01*
X237781Y66190D01*
X237758Y66287D01*
X237731Y66383D01*
X237701Y66478D01*
X237667Y66571D01*
X237629Y66663D01*
X237588Y66754D01*
X237543Y66843D01*
X237495Y66930D01*
X237444Y67015D01*
X237389Y67098D01*
X237331Y67179D01*
X237270Y67258D01*
X237206Y67334D01*
X237139Y67408D01*
X237070Y67479D01*
X236997Y67547D01*
X236922Y67613D01*
X236845Y67675D01*
X236765Y67735D01*
X236683Y67791D01*
X236599Y67844D01*
X236513Y67894D01*
X236425Y67940D01*
X236335Y67983D01*
X236243Y68022D01*
X236151Y68058D01*
X236056Y68090D01*
X235961Y68119D01*
X235865Y68144D01*
X235767Y68165D01*
X235669Y68182D01*
X235571Y68196D01*
X235472Y68205D01*
X235372Y68211D01*
X235273Y68213D01*
X235786Y72319D02*
X232706Y72319D01*
X235786Y72319D02*
X235876Y72317D01*
X235965Y72311D01*
X236054Y72301D01*
X236142Y72288D01*
X236230Y72270D01*
X236317Y72249D01*
X236403Y72224D01*
X236488Y72195D01*
X236572Y72163D01*
X236654Y72127D01*
X236734Y72087D01*
X236813Y72044D01*
X236889Y71997D01*
X236964Y71948D01*
X237036Y71895D01*
X237106Y71839D01*
X237173Y71780D01*
X237238Y71718D01*
X237300Y71653D01*
X237359Y71586D01*
X237415Y71516D01*
X237468Y71444D01*
X237517Y71369D01*
X237564Y71293D01*
X237607Y71214D01*
X237647Y71134D01*
X237683Y71052D01*
X237715Y70968D01*
X237744Y70883D01*
X237769Y70797D01*
X237790Y70710D01*
X237808Y70622D01*
X237821Y70534D01*
X237831Y70445D01*
X237837Y70356D01*
X237839Y70266D01*
X237837Y70176D01*
X237831Y70087D01*
X237821Y69998D01*
X237808Y69910D01*
X237790Y69822D01*
X237769Y69735D01*
X237744Y69649D01*
X237715Y69564D01*
X237683Y69480D01*
X237647Y69398D01*
X237607Y69318D01*
X237564Y69240D01*
X237517Y69163D01*
X237468Y69088D01*
X237415Y69016D01*
X237359Y68946D01*
X237300Y68879D01*
X237238Y68814D01*
X237173Y68752D01*
X237106Y68693D01*
X237036Y68637D01*
X236964Y68584D01*
X236889Y68535D01*
X236813Y68488D01*
X236734Y68445D01*
X236654Y68405D01*
X236572Y68369D01*
X236488Y68337D01*
X236403Y68308D01*
X236317Y68283D01*
X236230Y68262D01*
X236142Y68244D01*
X236054Y68231D01*
X235965Y68221D01*
X235876Y68215D01*
X235786Y68213D01*
X233733Y68213D01*
D10*
X229200Y299210D02*
X330800Y299210D01*
X330800Y240790D02*
X229200Y240790D01*
X330800Y240790D02*
X330800Y299210D01*
X229200Y299210D02*
X229200Y280160D01*
X229200Y259840D02*
X229200Y240790D01*
X229200Y259840D02*
X229447Y259843D01*
X229695Y259852D01*
X229942Y259867D01*
X230188Y259888D01*
X230434Y259915D01*
X230679Y259948D01*
X230924Y259987D01*
X231167Y260032D01*
X231409Y260083D01*
X231650Y260140D01*
X231889Y260202D01*
X232127Y260271D01*
X232363Y260345D01*
X232597Y260425D01*
X232829Y260510D01*
X233059Y260602D01*
X233287Y260698D01*
X233512Y260801D01*
X233735Y260908D01*
X233955Y261022D01*
X234172Y261140D01*
X234387Y261264D01*
X234598Y261393D01*
X234806Y261527D01*
X235011Y261666D01*
X235212Y261810D01*
X235410Y261958D01*
X235604Y262112D01*
X235794Y262270D01*
X235980Y262433D01*
X236162Y262600D01*
X236340Y262772D01*
X236514Y262948D01*
X236684Y263128D01*
X236849Y263313D01*
X237009Y263501D01*
X237165Y263693D01*
X237317Y263889D01*
X237463Y264088D01*
X237605Y264291D01*
X237741Y264498D01*
X237873Y264707D01*
X237999Y264920D01*
X238120Y265136D01*
X238236Y265354D01*
X238346Y265576D01*
X238451Y265800D01*
X238551Y266026D01*
X238645Y266255D01*
X238733Y266486D01*
X238816Y266720D01*
X238893Y266955D01*
X238964Y267192D01*
X239030Y267430D01*
X239089Y267670D01*
X239143Y267912D01*
X239191Y268155D01*
X239233Y268398D01*
X239269Y268643D01*
X239299Y268889D01*
X239323Y269135D01*
X239341Y269382D01*
X239353Y269629D01*
X239359Y269876D01*
X239359Y270124D01*
X239353Y270371D01*
X239341Y270618D01*
X239323Y270865D01*
X239299Y271111D01*
X239269Y271357D01*
X239233Y271602D01*
X239191Y271845D01*
X239143Y272088D01*
X239089Y272330D01*
X239030Y272570D01*
X238964Y272808D01*
X238893Y273045D01*
X238816Y273280D01*
X238733Y273514D01*
X238645Y273745D01*
X238551Y273974D01*
X238451Y274200D01*
X238346Y274424D01*
X238236Y274646D01*
X238120Y274864D01*
X237999Y275080D01*
X237873Y275293D01*
X237741Y275502D01*
X237605Y275709D01*
X237463Y275912D01*
X237317Y276111D01*
X237165Y276307D01*
X237009Y276499D01*
X236849Y276687D01*
X236684Y276872D01*
X236514Y277052D01*
X236340Y277228D01*
X236162Y277400D01*
X235980Y277567D01*
X235794Y277730D01*
X235604Y277888D01*
X235410Y278042D01*
X235212Y278190D01*
X235011Y278334D01*
X234806Y278473D01*
X234598Y278607D01*
X234387Y278736D01*
X234172Y278860D01*
X233955Y278978D01*
X233735Y279092D01*
X233512Y279199D01*
X233287Y279302D01*
X233059Y279398D01*
X232829Y279490D01*
X232597Y279575D01*
X232363Y279655D01*
X232127Y279729D01*
X231889Y279798D01*
X231650Y279860D01*
X231409Y279917D01*
X231167Y279968D01*
X230924Y280013D01*
X230679Y280052D01*
X230434Y280085D01*
X230188Y280112D01*
X229942Y280133D01*
X229695Y280148D01*
X229447Y280157D01*
X229200Y280160D01*
D12*
X210157Y291018D02*
X210157Y300002D01*
X209158Y291018D02*
X211155Y291018D01*
X211155Y300002D02*
X209158Y300002D01*
X216828Y291018D02*
X218824Y291018D01*
X216828Y291018D02*
X216741Y291020D01*
X216654Y291026D01*
X216567Y291035D01*
X216481Y291048D01*
X216396Y291065D01*
X216311Y291086D01*
X216228Y291110D01*
X216145Y291138D01*
X216064Y291170D01*
X215984Y291205D01*
X215906Y291244D01*
X215830Y291285D01*
X215756Y291331D01*
X215683Y291379D01*
X215613Y291430D01*
X215545Y291485D01*
X215480Y291542D01*
X215417Y291603D01*
X215356Y291666D01*
X215299Y291731D01*
X215244Y291799D01*
X215193Y291869D01*
X215145Y291942D01*
X215099Y292016D01*
X215058Y292092D01*
X215019Y292170D01*
X214984Y292250D01*
X214952Y292331D01*
X214924Y292414D01*
X214900Y292497D01*
X214879Y292582D01*
X214862Y292667D01*
X214849Y292753D01*
X214840Y292840D01*
X214834Y292927D01*
X214832Y293014D01*
X214831Y293014D02*
X214831Y298006D01*
X214832Y298006D02*
X214834Y298093D01*
X214840Y298180D01*
X214849Y298267D01*
X214862Y298353D01*
X214879Y298438D01*
X214900Y298523D01*
X214924Y298606D01*
X214952Y298689D01*
X214984Y298770D01*
X215019Y298850D01*
X215058Y298928D01*
X215099Y299004D01*
X215145Y299078D01*
X215193Y299151D01*
X215244Y299221D01*
X215299Y299289D01*
X215356Y299354D01*
X215417Y299417D01*
X215480Y299478D01*
X215545Y299535D01*
X215613Y299590D01*
X215683Y299641D01*
X215756Y299689D01*
X215830Y299735D01*
X215906Y299776D01*
X215984Y299815D01*
X216064Y299850D01*
X216145Y299882D01*
X216228Y299910D01*
X216311Y299934D01*
X216396Y299955D01*
X216481Y299972D01*
X216567Y299985D01*
X216654Y299994D01*
X216741Y300000D01*
X216828Y300002D01*
X218824Y300002D01*
X222361Y298006D02*
X224856Y300002D01*
X224856Y291018D01*
X222361Y291018D02*
X227352Y291018D01*
D10*
X399200Y299210D02*
X500800Y299210D01*
X500800Y240790D02*
X399200Y240790D01*
X500800Y240790D02*
X500800Y299210D01*
X399200Y299210D02*
X399200Y280160D01*
X399200Y259840D02*
X399200Y240790D01*
X399200Y259840D02*
X399447Y259843D01*
X399695Y259852D01*
X399942Y259867D01*
X400188Y259888D01*
X400434Y259915D01*
X400679Y259948D01*
X400924Y259987D01*
X401167Y260032D01*
X401409Y260083D01*
X401650Y260140D01*
X401889Y260202D01*
X402127Y260271D01*
X402363Y260345D01*
X402597Y260425D01*
X402829Y260510D01*
X403059Y260602D01*
X403287Y260698D01*
X403512Y260801D01*
X403735Y260908D01*
X403955Y261022D01*
X404172Y261140D01*
X404387Y261264D01*
X404598Y261393D01*
X404806Y261527D01*
X405011Y261666D01*
X405212Y261810D01*
X405410Y261958D01*
X405604Y262112D01*
X405794Y262270D01*
X405980Y262433D01*
X406162Y262600D01*
X406340Y262772D01*
X406514Y262948D01*
X406684Y263128D01*
X406849Y263313D01*
X407009Y263501D01*
X407165Y263693D01*
X407317Y263889D01*
X407463Y264088D01*
X407605Y264291D01*
X407741Y264498D01*
X407873Y264707D01*
X407999Y264920D01*
X408120Y265136D01*
X408236Y265354D01*
X408346Y265576D01*
X408451Y265800D01*
X408551Y266026D01*
X408645Y266255D01*
X408733Y266486D01*
X408816Y266720D01*
X408893Y266955D01*
X408964Y267192D01*
X409030Y267430D01*
X409089Y267670D01*
X409143Y267912D01*
X409191Y268155D01*
X409233Y268398D01*
X409269Y268643D01*
X409299Y268889D01*
X409323Y269135D01*
X409341Y269382D01*
X409353Y269629D01*
X409359Y269876D01*
X409359Y270124D01*
X409353Y270371D01*
X409341Y270618D01*
X409323Y270865D01*
X409299Y271111D01*
X409269Y271357D01*
X409233Y271602D01*
X409191Y271845D01*
X409143Y272088D01*
X409089Y272330D01*
X409030Y272570D01*
X408964Y272808D01*
X408893Y273045D01*
X408816Y273280D01*
X408733Y273514D01*
X408645Y273745D01*
X408551Y273974D01*
X408451Y274200D01*
X408346Y274424D01*
X408236Y274646D01*
X408120Y274864D01*
X407999Y275080D01*
X407873Y275293D01*
X407741Y275502D01*
X407605Y275709D01*
X407463Y275912D01*
X407317Y276111D01*
X407165Y276307D01*
X407009Y276499D01*
X406849Y276687D01*
X406684Y276872D01*
X406514Y277052D01*
X406340Y277228D01*
X406162Y277400D01*
X405980Y277567D01*
X405794Y277730D01*
X405604Y277888D01*
X405410Y278042D01*
X405212Y278190D01*
X405011Y278334D01*
X404806Y278473D01*
X404598Y278607D01*
X404387Y278736D01*
X404172Y278860D01*
X403955Y278978D01*
X403735Y279092D01*
X403512Y279199D01*
X403287Y279302D01*
X403059Y279398D01*
X402829Y279490D01*
X402597Y279575D01*
X402363Y279655D01*
X402127Y279729D01*
X401889Y279798D01*
X401650Y279860D01*
X401409Y279917D01*
X401167Y279968D01*
X400924Y280013D01*
X400679Y280052D01*
X400434Y280085D01*
X400188Y280112D01*
X399942Y280133D01*
X399695Y280148D01*
X399447Y280157D01*
X399200Y280160D01*
D12*
X375907Y273002D02*
X375907Y264018D01*
X376905Y264018D02*
X374908Y264018D01*
X374908Y273002D02*
X376905Y273002D01*
X382578Y264018D02*
X384574Y264018D01*
X382578Y264018D02*
X382491Y264020D01*
X382404Y264026D01*
X382317Y264035D01*
X382231Y264048D01*
X382146Y264065D01*
X382061Y264086D01*
X381978Y264110D01*
X381895Y264138D01*
X381814Y264170D01*
X381734Y264205D01*
X381656Y264244D01*
X381580Y264285D01*
X381506Y264331D01*
X381433Y264379D01*
X381363Y264430D01*
X381295Y264485D01*
X381230Y264542D01*
X381167Y264603D01*
X381106Y264666D01*
X381049Y264731D01*
X380994Y264799D01*
X380943Y264869D01*
X380895Y264942D01*
X380849Y265016D01*
X380808Y265092D01*
X380769Y265170D01*
X380734Y265250D01*
X380702Y265331D01*
X380674Y265414D01*
X380650Y265497D01*
X380629Y265582D01*
X380612Y265667D01*
X380599Y265753D01*
X380590Y265840D01*
X380584Y265927D01*
X380582Y266014D01*
X380581Y266014D02*
X380581Y271006D01*
X380582Y271006D02*
X380584Y271093D01*
X380590Y271180D01*
X380599Y271267D01*
X380612Y271353D01*
X380629Y271438D01*
X380650Y271523D01*
X380674Y271606D01*
X380702Y271689D01*
X380734Y271770D01*
X380769Y271850D01*
X380808Y271928D01*
X380849Y272004D01*
X380895Y272078D01*
X380943Y272151D01*
X380994Y272221D01*
X381049Y272289D01*
X381106Y272354D01*
X381167Y272417D01*
X381230Y272478D01*
X381295Y272535D01*
X381363Y272590D01*
X381433Y272641D01*
X381506Y272689D01*
X381580Y272735D01*
X381656Y272776D01*
X381734Y272815D01*
X381814Y272850D01*
X381895Y272882D01*
X381978Y272910D01*
X382061Y272934D01*
X382146Y272955D01*
X382231Y272972D01*
X382317Y272985D01*
X382404Y272994D01*
X382491Y273000D01*
X382578Y273002D01*
X384574Y273002D01*
X390856Y273002D02*
X390949Y273000D01*
X391041Y272994D01*
X391134Y272985D01*
X391226Y272971D01*
X391317Y272954D01*
X391407Y272933D01*
X391497Y272909D01*
X391585Y272880D01*
X391672Y272848D01*
X391758Y272813D01*
X391842Y272774D01*
X391925Y272731D01*
X392006Y272685D01*
X392084Y272636D01*
X392161Y272584D01*
X392236Y272528D01*
X392308Y272470D01*
X392377Y272408D01*
X392444Y272344D01*
X392508Y272277D01*
X392570Y272208D01*
X392628Y272136D01*
X392684Y272061D01*
X392736Y271984D01*
X392785Y271906D01*
X392831Y271825D01*
X392874Y271742D01*
X392913Y271658D01*
X392948Y271572D01*
X392980Y271485D01*
X393009Y271397D01*
X393033Y271307D01*
X393054Y271217D01*
X393071Y271126D01*
X393085Y271034D01*
X393094Y270941D01*
X393100Y270849D01*
X393102Y270756D01*
X390856Y273003D02*
X390749Y273001D01*
X390643Y272995D01*
X390536Y272985D01*
X390431Y272971D01*
X390325Y272954D01*
X390221Y272932D01*
X390117Y272907D01*
X390014Y272878D01*
X389913Y272845D01*
X389813Y272808D01*
X389714Y272767D01*
X389617Y272723D01*
X389521Y272676D01*
X389427Y272625D01*
X389336Y272570D01*
X389246Y272512D01*
X389159Y272451D01*
X389073Y272387D01*
X388991Y272319D01*
X388911Y272249D01*
X388833Y272175D01*
X388758Y272099D01*
X388686Y272020D01*
X388618Y271939D01*
X388552Y271855D01*
X388489Y271768D01*
X388430Y271680D01*
X388373Y271589D01*
X388321Y271496D01*
X388271Y271401D01*
X388226Y271305D01*
X388184Y271207D01*
X388145Y271107D01*
X388110Y271006D01*
X392354Y269009D02*
X392424Y269078D01*
X392490Y269149D01*
X392554Y269223D01*
X392614Y269300D01*
X392672Y269379D01*
X392726Y269460D01*
X392776Y269544D01*
X392824Y269629D01*
X392868Y269717D01*
X392908Y269806D01*
X392945Y269896D01*
X392978Y269988D01*
X393007Y270081D01*
X393032Y270176D01*
X393054Y270271D01*
X393071Y270367D01*
X393085Y270464D01*
X393095Y270561D01*
X393101Y270658D01*
X393103Y270756D01*
X392353Y269009D02*
X388111Y264018D01*
X393102Y264018D01*
D10*
X569200Y299210D02*
X670800Y299210D01*
X670800Y240790D02*
X569200Y240790D01*
X670800Y240790D02*
X670800Y299210D01*
X569200Y299210D02*
X569200Y280160D01*
X569200Y259840D02*
X569200Y240790D01*
X569200Y259840D02*
X569447Y259843D01*
X569695Y259852D01*
X569942Y259867D01*
X570188Y259888D01*
X570434Y259915D01*
X570679Y259948D01*
X570924Y259987D01*
X571167Y260032D01*
X571409Y260083D01*
X571650Y260140D01*
X571889Y260202D01*
X572127Y260271D01*
X572363Y260345D01*
X572597Y260425D01*
X572829Y260510D01*
X573059Y260602D01*
X573287Y260698D01*
X573512Y260801D01*
X573735Y260908D01*
X573955Y261022D01*
X574172Y261140D01*
X574387Y261264D01*
X574598Y261393D01*
X574806Y261527D01*
X575011Y261666D01*
X575212Y261810D01*
X575410Y261958D01*
X575604Y262112D01*
X575794Y262270D01*
X575980Y262433D01*
X576162Y262600D01*
X576340Y262772D01*
X576514Y262948D01*
X576684Y263128D01*
X576849Y263313D01*
X577009Y263501D01*
X577165Y263693D01*
X577317Y263889D01*
X577463Y264088D01*
X577605Y264291D01*
X577741Y264498D01*
X577873Y264707D01*
X577999Y264920D01*
X578120Y265136D01*
X578236Y265354D01*
X578346Y265576D01*
X578451Y265800D01*
X578551Y266026D01*
X578645Y266255D01*
X578733Y266486D01*
X578816Y266720D01*
X578893Y266955D01*
X578964Y267192D01*
X579030Y267430D01*
X579089Y267670D01*
X579143Y267912D01*
X579191Y268155D01*
X579233Y268398D01*
X579269Y268643D01*
X579299Y268889D01*
X579323Y269135D01*
X579341Y269382D01*
X579353Y269629D01*
X579359Y269876D01*
X579359Y270124D01*
X579353Y270371D01*
X579341Y270618D01*
X579323Y270865D01*
X579299Y271111D01*
X579269Y271357D01*
X579233Y271602D01*
X579191Y271845D01*
X579143Y272088D01*
X579089Y272330D01*
X579030Y272570D01*
X578964Y272808D01*
X578893Y273045D01*
X578816Y273280D01*
X578733Y273514D01*
X578645Y273745D01*
X578551Y273974D01*
X578451Y274200D01*
X578346Y274424D01*
X578236Y274646D01*
X578120Y274864D01*
X577999Y275080D01*
X577873Y275293D01*
X577741Y275502D01*
X577605Y275709D01*
X577463Y275912D01*
X577317Y276111D01*
X577165Y276307D01*
X577009Y276499D01*
X576849Y276687D01*
X576684Y276872D01*
X576514Y277052D01*
X576340Y277228D01*
X576162Y277400D01*
X575980Y277567D01*
X575794Y277730D01*
X575604Y277888D01*
X575410Y278042D01*
X575212Y278190D01*
X575011Y278334D01*
X574806Y278473D01*
X574598Y278607D01*
X574387Y278736D01*
X574172Y278860D01*
X573955Y278978D01*
X573735Y279092D01*
X573512Y279199D01*
X573287Y279302D01*
X573059Y279398D01*
X572829Y279490D01*
X572597Y279575D01*
X572363Y279655D01*
X572127Y279729D01*
X571889Y279798D01*
X571650Y279860D01*
X571409Y279917D01*
X571167Y279968D01*
X570924Y280013D01*
X570679Y280052D01*
X570434Y280085D01*
X570188Y280112D01*
X569942Y280133D01*
X569695Y280148D01*
X569447Y280157D01*
X569200Y280160D01*
D12*
X679157Y287018D02*
X679157Y296002D01*
X678158Y287018D02*
X680155Y287018D01*
X680155Y296002D02*
X678158Y296002D01*
X685828Y287018D02*
X687824Y287018D01*
X685828Y287018D02*
X685741Y287020D01*
X685654Y287026D01*
X685567Y287035D01*
X685481Y287048D01*
X685396Y287065D01*
X685311Y287086D01*
X685228Y287110D01*
X685145Y287138D01*
X685064Y287170D01*
X684984Y287205D01*
X684906Y287244D01*
X684830Y287285D01*
X684756Y287331D01*
X684683Y287379D01*
X684613Y287430D01*
X684545Y287485D01*
X684480Y287542D01*
X684417Y287603D01*
X684356Y287666D01*
X684299Y287731D01*
X684244Y287799D01*
X684193Y287869D01*
X684145Y287942D01*
X684099Y288016D01*
X684058Y288092D01*
X684019Y288170D01*
X683984Y288250D01*
X683952Y288331D01*
X683924Y288414D01*
X683900Y288497D01*
X683879Y288582D01*
X683862Y288667D01*
X683849Y288753D01*
X683840Y288840D01*
X683834Y288927D01*
X683832Y289014D01*
X683831Y289014D02*
X683831Y294006D01*
X683832Y294006D02*
X683834Y294093D01*
X683840Y294180D01*
X683849Y294267D01*
X683862Y294353D01*
X683879Y294438D01*
X683900Y294523D01*
X683924Y294606D01*
X683952Y294689D01*
X683984Y294770D01*
X684019Y294850D01*
X684058Y294928D01*
X684099Y295004D01*
X684145Y295078D01*
X684193Y295151D01*
X684244Y295221D01*
X684299Y295289D01*
X684356Y295354D01*
X684417Y295417D01*
X684480Y295478D01*
X684545Y295535D01*
X684613Y295590D01*
X684683Y295641D01*
X684756Y295689D01*
X684830Y295735D01*
X684906Y295776D01*
X684984Y295815D01*
X685064Y295850D01*
X685145Y295882D01*
X685228Y295910D01*
X685311Y295934D01*
X685396Y295955D01*
X685481Y295972D01*
X685567Y295985D01*
X685654Y295994D01*
X685741Y296000D01*
X685828Y296002D01*
X687824Y296002D01*
X691361Y287018D02*
X693856Y287018D01*
X693955Y287020D01*
X694054Y287026D01*
X694153Y287036D01*
X694251Y287050D01*
X694349Y287067D01*
X694446Y287089D01*
X694542Y287114D01*
X694637Y287143D01*
X694730Y287176D01*
X694823Y287213D01*
X694913Y287253D01*
X695002Y287297D01*
X695090Y287344D01*
X695175Y287395D01*
X695258Y287449D01*
X695339Y287506D01*
X695418Y287567D01*
X695494Y287631D01*
X695568Y287697D01*
X695638Y287767D01*
X695706Y287839D01*
X695772Y287914D01*
X695834Y287991D01*
X695893Y288071D01*
X695948Y288153D01*
X696001Y288237D01*
X696050Y288324D01*
X696096Y288412D01*
X696138Y288502D01*
X696176Y288593D01*
X696211Y288686D01*
X696242Y288781D01*
X696269Y288876D01*
X696293Y288972D01*
X696312Y289070D01*
X696328Y289168D01*
X696340Y289266D01*
X696348Y289365D01*
X696352Y289464D01*
X696352Y289564D01*
X696348Y289663D01*
X696340Y289762D01*
X696328Y289860D01*
X696312Y289958D01*
X696293Y290056D01*
X696269Y290152D01*
X696242Y290247D01*
X696211Y290342D01*
X696176Y290435D01*
X696138Y290526D01*
X696096Y290616D01*
X696050Y290704D01*
X696001Y290791D01*
X695948Y290875D01*
X695893Y290957D01*
X695834Y291037D01*
X695772Y291114D01*
X695706Y291189D01*
X695638Y291261D01*
X695568Y291331D01*
X695494Y291397D01*
X695418Y291461D01*
X695339Y291522D01*
X695258Y291579D01*
X695175Y291633D01*
X695090Y291684D01*
X695002Y291731D01*
X694913Y291775D01*
X694823Y291815D01*
X694730Y291852D01*
X694637Y291885D01*
X694542Y291914D01*
X694446Y291939D01*
X694349Y291961D01*
X694251Y291978D01*
X694153Y291992D01*
X694054Y292002D01*
X693955Y292008D01*
X693856Y292010D01*
X694356Y296002D02*
X691361Y296002D01*
X694356Y296002D02*
X694444Y296000D01*
X694532Y295994D01*
X694620Y295984D01*
X694707Y295971D01*
X694794Y295953D01*
X694880Y295932D01*
X694964Y295907D01*
X695048Y295878D01*
X695130Y295846D01*
X695211Y295810D01*
X695290Y295770D01*
X695367Y295727D01*
X695442Y295681D01*
X695515Y295631D01*
X695586Y295578D01*
X695654Y295522D01*
X695720Y295463D01*
X695783Y295402D01*
X695843Y295337D01*
X695901Y295270D01*
X695955Y295201D01*
X696006Y295129D01*
X696054Y295055D01*
X696099Y294978D01*
X696140Y294900D01*
X696178Y294821D01*
X696212Y294739D01*
X696243Y294656D01*
X696270Y294572D01*
X696293Y294487D01*
X696313Y294401D01*
X696328Y294314D01*
X696340Y294226D01*
X696348Y294138D01*
X696352Y294050D01*
X696352Y293962D01*
X696348Y293874D01*
X696340Y293786D01*
X696328Y293698D01*
X696313Y293611D01*
X696293Y293525D01*
X696270Y293440D01*
X696243Y293356D01*
X696212Y293273D01*
X696178Y293191D01*
X696140Y293112D01*
X696099Y293034D01*
X696054Y292957D01*
X696006Y292883D01*
X695955Y292811D01*
X695901Y292742D01*
X695843Y292675D01*
X695783Y292610D01*
X695720Y292549D01*
X695654Y292490D01*
X695586Y292434D01*
X695515Y292381D01*
X695442Y292331D01*
X695367Y292285D01*
X695290Y292242D01*
X695211Y292202D01*
X695130Y292166D01*
X695048Y292134D01*
X694964Y292105D01*
X694880Y292080D01*
X694794Y292059D01*
X694707Y292041D01*
X694620Y292028D01*
X694532Y292018D01*
X694444Y292012D01*
X694356Y292010D01*
X694356Y292009D02*
X692359Y292009D01*
D13*
X630484Y74966D02*
X587516Y74966D01*
X630484Y74966D02*
X630484Y122934D01*
X587516Y122934D01*
X587516Y74966D01*
D14*
X593250Y118200D03*
D11*
X622407Y131081D02*
X622407Y140319D01*
X621381Y131081D02*
X623434Y131081D01*
X623434Y140319D02*
X621381Y140319D01*
X629069Y131081D02*
X631122Y131081D01*
X629069Y131081D02*
X628979Y131083D01*
X628890Y131089D01*
X628801Y131099D01*
X628713Y131112D01*
X628625Y131130D01*
X628538Y131151D01*
X628452Y131176D01*
X628367Y131205D01*
X628283Y131237D01*
X628201Y131273D01*
X628121Y131313D01*
X628043Y131356D01*
X627966Y131403D01*
X627891Y131452D01*
X627819Y131505D01*
X627749Y131561D01*
X627682Y131620D01*
X627617Y131682D01*
X627555Y131747D01*
X627496Y131814D01*
X627440Y131884D01*
X627387Y131956D01*
X627338Y132031D01*
X627291Y132108D01*
X627248Y132186D01*
X627208Y132266D01*
X627172Y132348D01*
X627140Y132432D01*
X627111Y132517D01*
X627086Y132603D01*
X627065Y132690D01*
X627047Y132778D01*
X627034Y132866D01*
X627024Y132955D01*
X627018Y133044D01*
X627016Y133134D01*
X627016Y138266D01*
X627018Y138356D01*
X627024Y138445D01*
X627034Y138534D01*
X627047Y138622D01*
X627065Y138710D01*
X627086Y138797D01*
X627111Y138883D01*
X627140Y138968D01*
X627172Y139052D01*
X627208Y139134D01*
X627248Y139214D01*
X627291Y139292D01*
X627338Y139369D01*
X627387Y139444D01*
X627440Y139516D01*
X627496Y139586D01*
X627555Y139653D01*
X627617Y139718D01*
X627682Y139780D01*
X627749Y139839D01*
X627819Y139895D01*
X627891Y139948D01*
X627966Y139997D01*
X628042Y140044D01*
X628121Y140087D01*
X628201Y140127D01*
X628283Y140163D01*
X628367Y140195D01*
X628452Y140224D01*
X628538Y140249D01*
X628625Y140270D01*
X628712Y140288D01*
X628801Y140301D01*
X628890Y140311D01*
X628979Y140317D01*
X629069Y140319D01*
X631122Y140319D01*
X636594Y140319D02*
X634541Y133134D01*
X639674Y133134D01*
X638134Y135187D02*
X638134Y131081D01*
D15*
X76900Y395720D02*
X51500Y395720D01*
X76900Y395720D02*
X153100Y395720D01*
X153100Y306820D01*
X51500Y306820D02*
X51500Y395720D01*
D16*
X76900Y395720D02*
X76900Y306820D01*
D15*
X153100Y306820D01*
X76900Y306820D02*
X51500Y306820D01*
D17*
X115000Y369812D03*
X115000Y330188D03*
D10*
X61828Y410094D02*
X61828Y422738D01*
X61827Y410094D02*
X61825Y409976D01*
X61819Y409858D01*
X61810Y409740D01*
X61796Y409623D01*
X61779Y409506D01*
X61758Y409389D01*
X61733Y409274D01*
X61704Y409159D01*
X61671Y409045D01*
X61635Y408933D01*
X61595Y408822D01*
X61552Y408712D01*
X61505Y408603D01*
X61455Y408496D01*
X61400Y408391D01*
X61343Y408288D01*
X61282Y408187D01*
X61218Y408087D01*
X61151Y407990D01*
X61081Y407895D01*
X61007Y407803D01*
X60931Y407712D01*
X60851Y407625D01*
X60769Y407540D01*
X60684Y407458D01*
X60597Y407378D01*
X60506Y407302D01*
X60414Y407228D01*
X60319Y407158D01*
X60222Y407091D01*
X60122Y407027D01*
X60021Y406966D01*
X59918Y406909D01*
X59813Y406854D01*
X59706Y406804D01*
X59597Y406757D01*
X59487Y406714D01*
X59376Y406674D01*
X59264Y406638D01*
X59150Y406605D01*
X59035Y406576D01*
X58920Y406551D01*
X58803Y406530D01*
X58686Y406513D01*
X58569Y406499D01*
X58451Y406490D01*
X58333Y406484D01*
X58215Y406482D01*
X56409Y406482D01*
X68895Y419126D02*
X73410Y422738D01*
X73410Y406482D01*
X68895Y406482D02*
X77926Y406482D01*
D15*
X746500Y395720D02*
X771900Y395720D01*
X848100Y395720D01*
X848100Y306820D01*
X746500Y306820D02*
X746500Y395720D01*
D16*
X771900Y395720D02*
X771900Y306820D01*
D15*
X848100Y306820D01*
X771900Y306820D02*
X746500Y306820D01*
D17*
X810000Y369812D03*
X810000Y330188D03*
D10*
X834528Y411794D02*
X834528Y424438D01*
X834527Y411794D02*
X834525Y411676D01*
X834519Y411558D01*
X834510Y411440D01*
X834496Y411323D01*
X834479Y411206D01*
X834458Y411089D01*
X834433Y410974D01*
X834404Y410859D01*
X834371Y410745D01*
X834335Y410633D01*
X834295Y410522D01*
X834252Y410412D01*
X834205Y410303D01*
X834155Y410196D01*
X834100Y410091D01*
X834043Y409988D01*
X833982Y409887D01*
X833918Y409787D01*
X833851Y409690D01*
X833781Y409595D01*
X833707Y409503D01*
X833631Y409412D01*
X833551Y409325D01*
X833469Y409240D01*
X833384Y409158D01*
X833297Y409078D01*
X833206Y409002D01*
X833114Y408928D01*
X833019Y408858D01*
X832922Y408791D01*
X832822Y408727D01*
X832721Y408666D01*
X832618Y408609D01*
X832513Y408554D01*
X832406Y408504D01*
X832297Y408457D01*
X832187Y408414D01*
X832076Y408374D01*
X831964Y408338D01*
X831850Y408305D01*
X831735Y408276D01*
X831620Y408251D01*
X831503Y408230D01*
X831386Y408213D01*
X831269Y408199D01*
X831151Y408190D01*
X831033Y408184D01*
X830915Y408182D01*
X829109Y408182D01*
X846562Y424438D02*
X846687Y424436D01*
X846812Y424430D01*
X846937Y424421D01*
X847061Y424407D01*
X847185Y424390D01*
X847309Y424369D01*
X847431Y424344D01*
X847553Y424315D01*
X847674Y424283D01*
X847794Y424247D01*
X847913Y424207D01*
X848030Y424164D01*
X848146Y424117D01*
X848261Y424066D01*
X848373Y424012D01*
X848485Y423954D01*
X848594Y423894D01*
X848701Y423829D01*
X848807Y423762D01*
X848910Y423691D01*
X849011Y423617D01*
X849110Y423540D01*
X849206Y423460D01*
X849300Y423377D01*
X849391Y423292D01*
X849480Y423203D01*
X849565Y423112D01*
X849648Y423018D01*
X849728Y422922D01*
X849805Y422823D01*
X849879Y422722D01*
X849950Y422619D01*
X850017Y422513D01*
X850082Y422406D01*
X850142Y422297D01*
X850200Y422185D01*
X850254Y422073D01*
X850305Y421958D01*
X850352Y421842D01*
X850395Y421725D01*
X850435Y421606D01*
X850471Y421486D01*
X850503Y421365D01*
X850532Y421243D01*
X850557Y421121D01*
X850578Y420997D01*
X850595Y420873D01*
X850609Y420749D01*
X850618Y420624D01*
X850624Y420499D01*
X850626Y420374D01*
X846562Y424438D02*
X846419Y424436D01*
X846277Y424430D01*
X846134Y424420D01*
X845992Y424407D01*
X845851Y424389D01*
X845709Y424368D01*
X845569Y424343D01*
X845429Y424314D01*
X845290Y424281D01*
X845152Y424244D01*
X845015Y424204D01*
X844880Y424160D01*
X844745Y424112D01*
X844612Y424060D01*
X844480Y424005D01*
X844350Y423946D01*
X844222Y423884D01*
X844095Y423818D01*
X843970Y423749D01*
X843847Y423677D01*
X843727Y423601D01*
X843608Y423522D01*
X843491Y423439D01*
X843377Y423354D01*
X843265Y423265D01*
X843156Y423174D01*
X843049Y423079D01*
X842944Y422982D01*
X842843Y422881D01*
X842744Y422778D01*
X842648Y422673D01*
X842555Y422564D01*
X842465Y422453D01*
X842378Y422340D01*
X842294Y422225D01*
X842214Y422107D01*
X842136Y421987D01*
X842062Y421865D01*
X841992Y421741D01*
X841924Y421615D01*
X841861Y421487D01*
X841800Y421358D01*
X841743Y421227D01*
X841690Y421095D01*
X841641Y420961D01*
X841595Y420826D01*
X849271Y417213D02*
X849365Y417305D01*
X849455Y417399D01*
X849543Y417496D01*
X849628Y417596D01*
X849710Y417698D01*
X849789Y417803D01*
X849864Y417910D01*
X849936Y418019D01*
X850005Y418130D01*
X850071Y418244D01*
X850133Y418359D01*
X850192Y418476D01*
X850247Y418595D01*
X850298Y418715D01*
X850346Y418837D01*
X850391Y418960D01*
X850431Y419084D01*
X850468Y419210D01*
X850501Y419337D01*
X850530Y419464D01*
X850556Y419593D01*
X850577Y419722D01*
X850595Y419852D01*
X850608Y419982D01*
X850618Y420112D01*
X850624Y420243D01*
X850626Y420374D01*
X849271Y417213D02*
X841595Y408182D01*
X850626Y408182D01*
D15*
X76900Y228246D02*
X51500Y228246D01*
X76900Y228246D02*
X153100Y228246D01*
X153100Y101246D02*
X76900Y101246D01*
X51500Y101246D01*
X51500Y228246D01*
D16*
X76900Y228246D02*
X76900Y101246D01*
D15*
X153100Y101246D02*
X153100Y228246D01*
D17*
X115000Y204370D03*
X115000Y164746D03*
X115000Y125122D03*
D10*
X62056Y240606D02*
X62056Y253250D01*
X62055Y240606D02*
X62053Y240488D01*
X62047Y240370D01*
X62038Y240252D01*
X62024Y240135D01*
X62007Y240018D01*
X61986Y239901D01*
X61961Y239786D01*
X61932Y239671D01*
X61899Y239557D01*
X61863Y239445D01*
X61823Y239334D01*
X61780Y239224D01*
X61733Y239115D01*
X61683Y239008D01*
X61628Y238903D01*
X61571Y238800D01*
X61510Y238699D01*
X61446Y238599D01*
X61379Y238502D01*
X61309Y238407D01*
X61235Y238315D01*
X61159Y238224D01*
X61079Y238137D01*
X60997Y238052D01*
X60912Y237970D01*
X60825Y237890D01*
X60734Y237814D01*
X60642Y237740D01*
X60547Y237670D01*
X60450Y237603D01*
X60350Y237539D01*
X60249Y237478D01*
X60146Y237421D01*
X60041Y237366D01*
X59934Y237316D01*
X59825Y237269D01*
X59715Y237226D01*
X59604Y237186D01*
X59492Y237150D01*
X59378Y237117D01*
X59263Y237088D01*
X59148Y237063D01*
X59031Y237042D01*
X58914Y237025D01*
X58797Y237011D01*
X58679Y237002D01*
X58561Y236996D01*
X58443Y236994D01*
X56637Y236994D01*
X69123Y236994D02*
X73638Y236994D01*
X73771Y236996D01*
X73903Y237002D01*
X74035Y237012D01*
X74167Y237025D01*
X74299Y237043D01*
X74429Y237064D01*
X74560Y237089D01*
X74689Y237118D01*
X74817Y237151D01*
X74945Y237187D01*
X75071Y237227D01*
X75196Y237271D01*
X75320Y237319D01*
X75442Y237370D01*
X75563Y237425D01*
X75682Y237483D01*
X75800Y237545D01*
X75915Y237610D01*
X76029Y237679D01*
X76140Y237750D01*
X76249Y237826D01*
X76356Y237904D01*
X76461Y237985D01*
X76563Y238070D01*
X76663Y238157D01*
X76760Y238247D01*
X76855Y238340D01*
X76946Y238436D01*
X77035Y238534D01*
X77121Y238635D01*
X77204Y238739D01*
X77284Y238845D01*
X77360Y238953D01*
X77434Y239063D01*
X77504Y239176D01*
X77571Y239290D01*
X77634Y239407D01*
X77694Y239525D01*
X77751Y239645D01*
X77804Y239767D01*
X77853Y239890D01*
X77899Y240014D01*
X77941Y240140D01*
X77979Y240267D01*
X78014Y240395D01*
X78045Y240524D01*
X78072Y240653D01*
X78095Y240784D01*
X78115Y240915D01*
X78130Y241047D01*
X78142Y241179D01*
X78150Y241311D01*
X78154Y241444D01*
X78154Y241576D01*
X78150Y241709D01*
X78142Y241841D01*
X78130Y241973D01*
X78115Y242105D01*
X78095Y242236D01*
X78072Y242367D01*
X78045Y242496D01*
X78014Y242625D01*
X77979Y242753D01*
X77941Y242880D01*
X77899Y243006D01*
X77853Y243130D01*
X77804Y243253D01*
X77751Y243375D01*
X77694Y243495D01*
X77634Y243613D01*
X77571Y243730D01*
X77504Y243844D01*
X77434Y243957D01*
X77360Y244067D01*
X77284Y244175D01*
X77204Y244281D01*
X77121Y244385D01*
X77035Y244486D01*
X76946Y244584D01*
X76855Y244680D01*
X76760Y244773D01*
X76663Y244863D01*
X76563Y244950D01*
X76461Y245035D01*
X76356Y245116D01*
X76249Y245194D01*
X76140Y245270D01*
X76029Y245341D01*
X75915Y245410D01*
X75800Y245475D01*
X75682Y245537D01*
X75563Y245595D01*
X75442Y245650D01*
X75320Y245701D01*
X75196Y245749D01*
X75071Y245793D01*
X74945Y245833D01*
X74817Y245869D01*
X74689Y245902D01*
X74560Y245931D01*
X74429Y245956D01*
X74299Y245977D01*
X74167Y245995D01*
X74035Y246008D01*
X73903Y246018D01*
X73771Y246024D01*
X73638Y246026D01*
X74542Y253250D02*
X69123Y253250D01*
X74542Y253250D02*
X74661Y253248D01*
X74781Y253242D01*
X74900Y253232D01*
X75018Y253218D01*
X75137Y253201D01*
X75254Y253179D01*
X75371Y253154D01*
X75486Y253124D01*
X75601Y253091D01*
X75715Y253054D01*
X75827Y253014D01*
X75938Y252969D01*
X76047Y252921D01*
X76155Y252870D01*
X76261Y252815D01*
X76365Y252756D01*
X76467Y252694D01*
X76567Y252629D01*
X76665Y252560D01*
X76761Y252488D01*
X76854Y252413D01*
X76944Y252336D01*
X77032Y252255D01*
X77117Y252171D01*
X77199Y252084D01*
X77279Y251995D01*
X77355Y251903D01*
X77429Y251809D01*
X77499Y251712D01*
X77566Y251614D01*
X77630Y251513D01*
X77690Y251409D01*
X77747Y251304D01*
X77800Y251197D01*
X77850Y251089D01*
X77896Y250979D01*
X77938Y250867D01*
X77977Y250754D01*
X78012Y250640D01*
X78043Y250525D01*
X78071Y250408D01*
X78094Y250291D01*
X78114Y250174D01*
X78130Y250055D01*
X78142Y249936D01*
X78150Y249817D01*
X78154Y249698D01*
X78154Y249578D01*
X78150Y249459D01*
X78142Y249340D01*
X78130Y249221D01*
X78114Y249102D01*
X78094Y248985D01*
X78071Y248868D01*
X78043Y248751D01*
X78012Y248636D01*
X77977Y248522D01*
X77938Y248409D01*
X77896Y248297D01*
X77850Y248187D01*
X77800Y248079D01*
X77747Y247972D01*
X77690Y247867D01*
X77630Y247763D01*
X77566Y247662D01*
X77499Y247564D01*
X77429Y247467D01*
X77355Y247373D01*
X77279Y247281D01*
X77199Y247192D01*
X77117Y247105D01*
X77032Y247021D01*
X76944Y246940D01*
X76854Y246863D01*
X76761Y246788D01*
X76665Y246716D01*
X76567Y246647D01*
X76467Y246582D01*
X76365Y246520D01*
X76261Y246461D01*
X76155Y246406D01*
X76047Y246355D01*
X75938Y246307D01*
X75827Y246262D01*
X75715Y246222D01*
X75601Y246185D01*
X75486Y246152D01*
X75371Y246122D01*
X75254Y246097D01*
X75137Y246075D01*
X75018Y246058D01*
X74900Y246044D01*
X74781Y246034D01*
X74661Y246028D01*
X74542Y246026D01*
X74542Y246025D02*
X70929Y246025D01*
D15*
X746500Y228246D02*
X771900Y228246D01*
X848100Y228246D01*
X848100Y101246D02*
X771900Y101246D01*
X746500Y101246D01*
X746500Y228246D01*
D16*
X771900Y228246D02*
X771900Y101246D01*
D15*
X848100Y101246D02*
X848100Y228246D01*
D17*
X810000Y204370D03*
X810000Y164746D03*
X810000Y125122D03*
D10*
X836756Y245306D02*
X836756Y257950D01*
X836755Y245306D02*
X836753Y245188D01*
X836747Y245070D01*
X836738Y244952D01*
X836724Y244835D01*
X836707Y244718D01*
X836686Y244601D01*
X836661Y244486D01*
X836632Y244371D01*
X836599Y244257D01*
X836563Y244145D01*
X836523Y244034D01*
X836480Y243924D01*
X836433Y243815D01*
X836383Y243708D01*
X836328Y243603D01*
X836271Y243500D01*
X836210Y243399D01*
X836146Y243299D01*
X836079Y243202D01*
X836009Y243107D01*
X835935Y243015D01*
X835859Y242924D01*
X835779Y242837D01*
X835697Y242752D01*
X835612Y242670D01*
X835525Y242590D01*
X835434Y242514D01*
X835342Y242440D01*
X835247Y242370D01*
X835150Y242303D01*
X835050Y242239D01*
X834949Y242178D01*
X834846Y242121D01*
X834741Y242066D01*
X834634Y242016D01*
X834525Y241969D01*
X834415Y241926D01*
X834304Y241886D01*
X834192Y241850D01*
X834078Y241817D01*
X833963Y241788D01*
X833848Y241763D01*
X833731Y241742D01*
X833614Y241725D01*
X833497Y241711D01*
X833379Y241702D01*
X833261Y241696D01*
X833143Y241694D01*
X831337Y241694D01*
X843823Y245306D02*
X847435Y257950D01*
X843823Y245306D02*
X852854Y245306D01*
X850145Y248919D02*
X850145Y241694D01*
D11*
X597781Y463081D02*
X597781Y472319D01*
X600347Y472319D01*
X600446Y472317D01*
X600546Y472311D01*
X600645Y472302D01*
X600743Y472288D01*
X600841Y472271D01*
X600939Y472250D01*
X601035Y472225D01*
X601130Y472196D01*
X601225Y472164D01*
X601317Y472128D01*
X601409Y472089D01*
X601499Y472046D01*
X601587Y472000D01*
X601673Y471950D01*
X601757Y471897D01*
X601839Y471841D01*
X601919Y471781D01*
X601996Y471719D01*
X602071Y471653D01*
X602144Y471585D01*
X602213Y471514D01*
X602280Y471440D01*
X602344Y471364D01*
X602405Y471285D01*
X602463Y471204D01*
X602518Y471121D01*
X602569Y471036D01*
X602617Y470949D01*
X602662Y470860D01*
X602703Y470769D01*
X602741Y470677D01*
X602775Y470584D01*
X602805Y470489D01*
X602832Y470393D01*
X602855Y470296D01*
X602874Y470199D01*
X602889Y470100D01*
X602901Y470001D01*
X602909Y469902D01*
X602913Y469803D01*
X602913Y469703D01*
X602909Y469604D01*
X602901Y469505D01*
X602889Y469406D01*
X602874Y469307D01*
X602855Y469210D01*
X602832Y469113D01*
X602805Y469017D01*
X602775Y468922D01*
X602741Y468829D01*
X602703Y468737D01*
X602662Y468646D01*
X602617Y468557D01*
X602569Y468470D01*
X602518Y468385D01*
X602463Y468302D01*
X602405Y468221D01*
X602344Y468142D01*
X602280Y468066D01*
X602213Y467992D01*
X602144Y467921D01*
X602071Y467853D01*
X601996Y467787D01*
X601919Y467725D01*
X601839Y467665D01*
X601757Y467609D01*
X601673Y467556D01*
X601587Y467506D01*
X601499Y467460D01*
X601409Y467417D01*
X601317Y467378D01*
X601225Y467342D01*
X601130Y467310D01*
X601035Y467281D01*
X600939Y467256D01*
X600841Y467235D01*
X600743Y467218D01*
X600645Y467204D01*
X600546Y467195D01*
X600446Y467189D01*
X600347Y467187D01*
X597781Y467187D01*
X600860Y467187D02*
X602913Y463081D01*
X606724Y470266D02*
X609290Y472319D01*
X609290Y463081D01*
X606724Y463081D02*
X611857Y463081D01*
X615724Y470266D02*
X618290Y472319D01*
X618290Y463081D01*
X615724Y463081D02*
X620857Y463081D01*
X624338Y462055D02*
X628443Y462055D01*
X631924Y470266D02*
X634490Y472319D01*
X634490Y463081D01*
X631924Y463081D02*
X637057Y463081D01*
X671531Y463081D02*
X671531Y472319D01*
X674097Y472319D01*
X674196Y472317D01*
X674296Y472311D01*
X674395Y472302D01*
X674493Y472288D01*
X674591Y472271D01*
X674689Y472250D01*
X674785Y472225D01*
X674880Y472196D01*
X674975Y472164D01*
X675067Y472128D01*
X675159Y472089D01*
X675249Y472046D01*
X675337Y472000D01*
X675423Y471950D01*
X675507Y471897D01*
X675589Y471841D01*
X675669Y471781D01*
X675746Y471719D01*
X675821Y471653D01*
X675894Y471585D01*
X675963Y471514D01*
X676030Y471440D01*
X676094Y471364D01*
X676155Y471285D01*
X676213Y471204D01*
X676268Y471121D01*
X676319Y471036D01*
X676367Y470949D01*
X676412Y470860D01*
X676453Y470769D01*
X676491Y470677D01*
X676525Y470584D01*
X676555Y470489D01*
X676582Y470393D01*
X676605Y470296D01*
X676624Y470199D01*
X676639Y470100D01*
X676651Y470001D01*
X676659Y469902D01*
X676663Y469803D01*
X676663Y469703D01*
X676659Y469604D01*
X676651Y469505D01*
X676639Y469406D01*
X676624Y469307D01*
X676605Y469210D01*
X676582Y469113D01*
X676555Y469017D01*
X676525Y468922D01*
X676491Y468829D01*
X676453Y468737D01*
X676412Y468646D01*
X676367Y468557D01*
X676319Y468470D01*
X676268Y468385D01*
X676213Y468302D01*
X676155Y468221D01*
X676094Y468142D01*
X676030Y468066D01*
X675963Y467992D01*
X675894Y467921D01*
X675821Y467853D01*
X675746Y467787D01*
X675669Y467725D01*
X675589Y467665D01*
X675507Y467609D01*
X675423Y467556D01*
X675337Y467506D01*
X675249Y467460D01*
X675159Y467417D01*
X675067Y467378D01*
X674975Y467342D01*
X674880Y467310D01*
X674785Y467281D01*
X674689Y467256D01*
X674591Y467235D01*
X674493Y467218D01*
X674395Y467204D01*
X674296Y467195D01*
X674196Y467189D01*
X674097Y467187D01*
X671531Y467187D01*
X674610Y467187D02*
X676663Y463081D01*
X680474Y470266D02*
X683040Y472319D01*
X683040Y463081D01*
X680474Y463081D02*
X685607Y463081D01*
X689474Y470266D02*
X692040Y472319D01*
X692040Y463081D01*
X689474Y463081D02*
X694607Y463081D01*
X698088Y462055D02*
X702193Y462055D01*
X710807Y470009D02*
X710805Y470102D01*
X710800Y470195D01*
X710790Y470287D01*
X710777Y470380D01*
X710760Y470471D01*
X710740Y470562D01*
X710716Y470652D01*
X710688Y470741D01*
X710657Y470828D01*
X710622Y470914D01*
X710584Y470999D01*
X710542Y471083D01*
X710498Y471164D01*
X710449Y471244D01*
X710398Y471321D01*
X710344Y471397D01*
X710286Y471470D01*
X710226Y471541D01*
X710163Y471609D01*
X710097Y471675D01*
X710029Y471738D01*
X709958Y471798D01*
X709885Y471856D01*
X709809Y471910D01*
X709732Y471961D01*
X709652Y472010D01*
X709571Y472054D01*
X709487Y472096D01*
X709402Y472134D01*
X709316Y472169D01*
X709229Y472200D01*
X709140Y472228D01*
X709050Y472252D01*
X708959Y472272D01*
X708868Y472289D01*
X708775Y472302D01*
X708683Y472312D01*
X708590Y472317D01*
X708497Y472319D01*
X708390Y472317D01*
X708284Y472311D01*
X708178Y472302D01*
X708072Y472288D01*
X707967Y472271D01*
X707862Y472250D01*
X707759Y472226D01*
X707656Y472197D01*
X707554Y472165D01*
X707454Y472130D01*
X707355Y472090D01*
X707257Y472047D01*
X707161Y472001D01*
X707067Y471951D01*
X706974Y471898D01*
X706884Y471842D01*
X706795Y471782D01*
X706709Y471720D01*
X706625Y471654D01*
X706544Y471585D01*
X706465Y471514D01*
X706388Y471439D01*
X706315Y471362D01*
X706244Y471283D01*
X706176Y471200D01*
X706111Y471116D01*
X706049Y471029D01*
X705991Y470940D01*
X705935Y470849D01*
X705883Y470756D01*
X705834Y470661D01*
X705789Y470565D01*
X705747Y470466D01*
X705709Y470367D01*
X705674Y470266D01*
X710037Y468212D02*
X710105Y468280D01*
X710170Y468350D01*
X710233Y468422D01*
X710293Y468497D01*
X710350Y468574D01*
X710403Y468653D01*
X710454Y468734D01*
X710502Y468817D01*
X710546Y468901D01*
X710587Y468988D01*
X710625Y469076D01*
X710659Y469165D01*
X710690Y469256D01*
X710717Y469347D01*
X710741Y469440D01*
X710761Y469534D01*
X710778Y469628D01*
X710790Y469723D01*
X710800Y469818D01*
X710805Y469913D01*
X710807Y470009D01*
X710037Y468213D02*
X705674Y463081D01*
X710807Y463081D01*
X751531Y463081D02*
X751531Y472319D01*
X754097Y472319D01*
X754196Y472317D01*
X754296Y472311D01*
X754395Y472302D01*
X754493Y472288D01*
X754591Y472271D01*
X754689Y472250D01*
X754785Y472225D01*
X754880Y472196D01*
X754975Y472164D01*
X755067Y472128D01*
X755159Y472089D01*
X755249Y472046D01*
X755337Y472000D01*
X755423Y471950D01*
X755507Y471897D01*
X755589Y471841D01*
X755669Y471781D01*
X755746Y471719D01*
X755821Y471653D01*
X755894Y471585D01*
X755963Y471514D01*
X756030Y471440D01*
X756094Y471364D01*
X756155Y471285D01*
X756213Y471204D01*
X756268Y471121D01*
X756319Y471036D01*
X756367Y470949D01*
X756412Y470860D01*
X756453Y470769D01*
X756491Y470677D01*
X756525Y470584D01*
X756555Y470489D01*
X756582Y470393D01*
X756605Y470296D01*
X756624Y470199D01*
X756639Y470100D01*
X756651Y470001D01*
X756659Y469902D01*
X756663Y469803D01*
X756663Y469703D01*
X756659Y469604D01*
X756651Y469505D01*
X756639Y469406D01*
X756624Y469307D01*
X756605Y469210D01*
X756582Y469113D01*
X756555Y469017D01*
X756525Y468922D01*
X756491Y468829D01*
X756453Y468737D01*
X756412Y468646D01*
X756367Y468557D01*
X756319Y468470D01*
X756268Y468385D01*
X756213Y468302D01*
X756155Y468221D01*
X756094Y468142D01*
X756030Y468066D01*
X755963Y467992D01*
X755894Y467921D01*
X755821Y467853D01*
X755746Y467787D01*
X755669Y467725D01*
X755589Y467665D01*
X755507Y467609D01*
X755423Y467556D01*
X755337Y467506D01*
X755249Y467460D01*
X755159Y467417D01*
X755067Y467378D01*
X754975Y467342D01*
X754880Y467310D01*
X754785Y467281D01*
X754689Y467256D01*
X754591Y467235D01*
X754493Y467218D01*
X754395Y467204D01*
X754296Y467195D01*
X754196Y467189D01*
X754097Y467187D01*
X751531Y467187D01*
X754610Y467187D02*
X756663Y463081D01*
X760474Y470266D02*
X763040Y472319D01*
X763040Y463081D01*
X760474Y463081D02*
X765607Y463081D01*
X769474Y470266D02*
X772040Y472319D01*
X772040Y463081D01*
X769474Y463081D02*
X774607Y463081D01*
X778088Y462055D02*
X782193Y462055D01*
X785674Y463081D02*
X788240Y463081D01*
X788339Y463083D01*
X788439Y463089D01*
X788538Y463098D01*
X788636Y463112D01*
X788734Y463129D01*
X788832Y463150D01*
X788928Y463175D01*
X789023Y463204D01*
X789118Y463236D01*
X789210Y463272D01*
X789302Y463311D01*
X789392Y463354D01*
X789480Y463400D01*
X789566Y463450D01*
X789650Y463503D01*
X789732Y463559D01*
X789812Y463619D01*
X789889Y463681D01*
X789964Y463747D01*
X790037Y463815D01*
X790106Y463886D01*
X790173Y463960D01*
X790237Y464036D01*
X790298Y464115D01*
X790356Y464196D01*
X790411Y464279D01*
X790462Y464364D01*
X790510Y464451D01*
X790555Y464540D01*
X790596Y464631D01*
X790634Y464723D01*
X790668Y464816D01*
X790698Y464911D01*
X790725Y465007D01*
X790748Y465104D01*
X790767Y465201D01*
X790782Y465300D01*
X790794Y465399D01*
X790802Y465498D01*
X790806Y465597D01*
X790806Y465697D01*
X790802Y465796D01*
X790794Y465895D01*
X790782Y465994D01*
X790767Y466093D01*
X790748Y466190D01*
X790725Y466287D01*
X790698Y466383D01*
X790668Y466478D01*
X790634Y466571D01*
X790596Y466663D01*
X790555Y466754D01*
X790510Y466843D01*
X790462Y466930D01*
X790411Y467015D01*
X790356Y467098D01*
X790298Y467179D01*
X790237Y467258D01*
X790173Y467334D01*
X790106Y467408D01*
X790037Y467479D01*
X789964Y467547D01*
X789889Y467613D01*
X789812Y467675D01*
X789732Y467735D01*
X789650Y467791D01*
X789566Y467844D01*
X789480Y467894D01*
X789392Y467940D01*
X789302Y467983D01*
X789210Y468022D01*
X789118Y468058D01*
X789023Y468090D01*
X788928Y468119D01*
X788832Y468144D01*
X788734Y468165D01*
X788636Y468182D01*
X788538Y468196D01*
X788439Y468205D01*
X788339Y468211D01*
X788240Y468213D01*
X788754Y472319D02*
X785674Y472319D01*
X788754Y472319D02*
X788844Y472317D01*
X788933Y472311D01*
X789022Y472301D01*
X789110Y472288D01*
X789198Y472270D01*
X789285Y472249D01*
X789371Y472224D01*
X789456Y472195D01*
X789540Y472163D01*
X789622Y472127D01*
X789702Y472087D01*
X789781Y472044D01*
X789857Y471997D01*
X789932Y471948D01*
X790004Y471895D01*
X790074Y471839D01*
X790141Y471780D01*
X790206Y471718D01*
X790268Y471653D01*
X790327Y471586D01*
X790383Y471516D01*
X790436Y471444D01*
X790485Y471369D01*
X790532Y471293D01*
X790575Y471214D01*
X790615Y471134D01*
X790651Y471052D01*
X790683Y470968D01*
X790712Y470883D01*
X790737Y470797D01*
X790758Y470710D01*
X790776Y470622D01*
X790789Y470534D01*
X790799Y470445D01*
X790805Y470356D01*
X790807Y470266D01*
X790805Y470176D01*
X790799Y470087D01*
X790789Y469998D01*
X790776Y469910D01*
X790758Y469822D01*
X790737Y469735D01*
X790712Y469649D01*
X790683Y469564D01*
X790651Y469480D01*
X790615Y469398D01*
X790575Y469318D01*
X790532Y469240D01*
X790485Y469163D01*
X790436Y469088D01*
X790383Y469016D01*
X790327Y468946D01*
X790268Y468879D01*
X790206Y468814D01*
X790141Y468752D01*
X790074Y468693D01*
X790004Y468637D01*
X789932Y468584D01*
X789857Y468535D01*
X789781Y468488D01*
X789702Y468445D01*
X789622Y468405D01*
X789540Y468369D01*
X789456Y468337D01*
X789371Y468308D01*
X789285Y468283D01*
X789198Y468262D01*
X789110Y468244D01*
X789022Y468231D01*
X788933Y468221D01*
X788844Y468215D01*
X788754Y468213D01*
X786701Y468213D01*
X681531Y402319D02*
X681531Y393081D01*
X681531Y402319D02*
X684097Y402319D01*
X684196Y402317D01*
X684296Y402311D01*
X684395Y402302D01*
X684493Y402288D01*
X684591Y402271D01*
X684689Y402250D01*
X684785Y402225D01*
X684880Y402196D01*
X684975Y402164D01*
X685067Y402128D01*
X685159Y402089D01*
X685249Y402046D01*
X685337Y402000D01*
X685423Y401950D01*
X685507Y401897D01*
X685589Y401841D01*
X685669Y401781D01*
X685746Y401719D01*
X685821Y401653D01*
X685894Y401585D01*
X685963Y401514D01*
X686030Y401440D01*
X686094Y401364D01*
X686155Y401285D01*
X686213Y401204D01*
X686268Y401121D01*
X686319Y401036D01*
X686367Y400949D01*
X686412Y400860D01*
X686453Y400769D01*
X686491Y400677D01*
X686525Y400584D01*
X686555Y400489D01*
X686582Y400393D01*
X686605Y400296D01*
X686624Y400199D01*
X686639Y400100D01*
X686651Y400001D01*
X686659Y399902D01*
X686663Y399803D01*
X686663Y399703D01*
X686659Y399604D01*
X686651Y399505D01*
X686639Y399406D01*
X686624Y399307D01*
X686605Y399210D01*
X686582Y399113D01*
X686555Y399017D01*
X686525Y398922D01*
X686491Y398829D01*
X686453Y398737D01*
X686412Y398646D01*
X686367Y398557D01*
X686319Y398470D01*
X686268Y398385D01*
X686213Y398302D01*
X686155Y398221D01*
X686094Y398142D01*
X686030Y398066D01*
X685963Y397992D01*
X685894Y397921D01*
X685821Y397853D01*
X685746Y397787D01*
X685669Y397725D01*
X685589Y397665D01*
X685507Y397609D01*
X685423Y397556D01*
X685337Y397506D01*
X685249Y397460D01*
X685159Y397417D01*
X685067Y397378D01*
X684975Y397342D01*
X684880Y397310D01*
X684785Y397281D01*
X684689Y397256D01*
X684591Y397235D01*
X684493Y397218D01*
X684395Y397204D01*
X684296Y397195D01*
X684196Y397189D01*
X684097Y397187D01*
X681531Y397187D01*
X684610Y397187D02*
X686663Y393081D01*
X690474Y400266D02*
X693040Y402319D01*
X693040Y393081D01*
X690474Y393081D02*
X695607Y393081D01*
X704607Y400009D02*
X704605Y400102D01*
X704600Y400195D01*
X704590Y400287D01*
X704577Y400380D01*
X704560Y400471D01*
X704540Y400562D01*
X704516Y400652D01*
X704488Y400741D01*
X704457Y400828D01*
X704422Y400914D01*
X704384Y400999D01*
X704342Y401083D01*
X704298Y401164D01*
X704249Y401244D01*
X704198Y401321D01*
X704144Y401397D01*
X704086Y401470D01*
X704026Y401541D01*
X703963Y401609D01*
X703897Y401675D01*
X703829Y401738D01*
X703758Y401798D01*
X703685Y401856D01*
X703609Y401910D01*
X703532Y401961D01*
X703452Y402010D01*
X703371Y402054D01*
X703287Y402096D01*
X703202Y402134D01*
X703116Y402169D01*
X703029Y402200D01*
X702940Y402228D01*
X702850Y402252D01*
X702759Y402272D01*
X702668Y402289D01*
X702575Y402302D01*
X702483Y402312D01*
X702390Y402317D01*
X702297Y402319D01*
X702190Y402317D01*
X702084Y402311D01*
X701978Y402302D01*
X701872Y402288D01*
X701767Y402271D01*
X701662Y402250D01*
X701559Y402226D01*
X701456Y402197D01*
X701354Y402165D01*
X701254Y402130D01*
X701155Y402090D01*
X701057Y402047D01*
X700961Y402001D01*
X700867Y401951D01*
X700774Y401898D01*
X700684Y401842D01*
X700595Y401782D01*
X700509Y401720D01*
X700425Y401654D01*
X700344Y401585D01*
X700265Y401514D01*
X700188Y401439D01*
X700115Y401362D01*
X700044Y401283D01*
X699976Y401200D01*
X699911Y401116D01*
X699849Y401029D01*
X699791Y400940D01*
X699735Y400849D01*
X699683Y400756D01*
X699634Y400661D01*
X699589Y400565D01*
X699547Y400466D01*
X699509Y400367D01*
X699474Y400266D01*
X703837Y398212D02*
X703905Y398280D01*
X703970Y398350D01*
X704033Y398422D01*
X704093Y398497D01*
X704150Y398574D01*
X704203Y398653D01*
X704254Y398734D01*
X704302Y398817D01*
X704346Y398901D01*
X704387Y398988D01*
X704425Y399076D01*
X704459Y399165D01*
X704490Y399256D01*
X704517Y399347D01*
X704541Y399440D01*
X704561Y399534D01*
X704578Y399628D01*
X704590Y399723D01*
X704600Y399818D01*
X704605Y399913D01*
X704607Y400009D01*
X703837Y398213D02*
X699474Y393081D01*
X704607Y393081D01*
X708088Y392055D02*
X712193Y392055D01*
X715674Y400266D02*
X718240Y402319D01*
X718240Y393081D01*
X715674Y393081D02*
X720807Y393081D01*
X749031Y263569D02*
X749031Y254331D01*
X749031Y263569D02*
X751597Y263569D01*
X751696Y263567D01*
X751796Y263561D01*
X751895Y263552D01*
X751993Y263538D01*
X752091Y263521D01*
X752189Y263500D01*
X752285Y263475D01*
X752380Y263446D01*
X752475Y263414D01*
X752567Y263378D01*
X752659Y263339D01*
X752749Y263296D01*
X752837Y263250D01*
X752923Y263200D01*
X753007Y263147D01*
X753089Y263091D01*
X753169Y263031D01*
X753246Y262969D01*
X753321Y262903D01*
X753394Y262835D01*
X753463Y262764D01*
X753530Y262690D01*
X753594Y262614D01*
X753655Y262535D01*
X753713Y262454D01*
X753768Y262371D01*
X753819Y262286D01*
X753867Y262199D01*
X753912Y262110D01*
X753953Y262019D01*
X753991Y261927D01*
X754025Y261834D01*
X754055Y261739D01*
X754082Y261643D01*
X754105Y261546D01*
X754124Y261449D01*
X754139Y261350D01*
X754151Y261251D01*
X754159Y261152D01*
X754163Y261053D01*
X754163Y260953D01*
X754159Y260854D01*
X754151Y260755D01*
X754139Y260656D01*
X754124Y260557D01*
X754105Y260460D01*
X754082Y260363D01*
X754055Y260267D01*
X754025Y260172D01*
X753991Y260079D01*
X753953Y259987D01*
X753912Y259896D01*
X753867Y259807D01*
X753819Y259720D01*
X753768Y259635D01*
X753713Y259552D01*
X753655Y259471D01*
X753594Y259392D01*
X753530Y259316D01*
X753463Y259242D01*
X753394Y259171D01*
X753321Y259103D01*
X753246Y259037D01*
X753169Y258975D01*
X753089Y258915D01*
X753007Y258859D01*
X752923Y258806D01*
X752837Y258756D01*
X752749Y258710D01*
X752659Y258667D01*
X752567Y258628D01*
X752475Y258592D01*
X752380Y258560D01*
X752285Y258531D01*
X752189Y258506D01*
X752091Y258485D01*
X751993Y258468D01*
X751895Y258454D01*
X751796Y258445D01*
X751696Y258439D01*
X751597Y258437D01*
X749031Y258437D01*
X752110Y258437D02*
X754163Y254331D01*
X757974Y261516D02*
X760540Y263569D01*
X760540Y254331D01*
X757974Y254331D02*
X763107Y254331D01*
X772107Y261259D02*
X772105Y261352D01*
X772100Y261445D01*
X772090Y261537D01*
X772077Y261630D01*
X772060Y261721D01*
X772040Y261812D01*
X772016Y261902D01*
X771988Y261991D01*
X771957Y262078D01*
X771922Y262164D01*
X771884Y262249D01*
X771842Y262333D01*
X771798Y262414D01*
X771749Y262494D01*
X771698Y262571D01*
X771644Y262647D01*
X771586Y262720D01*
X771526Y262791D01*
X771463Y262859D01*
X771397Y262925D01*
X771329Y262988D01*
X771258Y263048D01*
X771185Y263106D01*
X771109Y263160D01*
X771032Y263211D01*
X770952Y263260D01*
X770871Y263304D01*
X770787Y263346D01*
X770702Y263384D01*
X770616Y263419D01*
X770529Y263450D01*
X770440Y263478D01*
X770350Y263502D01*
X770259Y263522D01*
X770168Y263539D01*
X770075Y263552D01*
X769983Y263562D01*
X769890Y263567D01*
X769797Y263569D01*
X769690Y263567D01*
X769584Y263561D01*
X769478Y263552D01*
X769372Y263538D01*
X769267Y263521D01*
X769162Y263500D01*
X769059Y263476D01*
X768956Y263447D01*
X768854Y263415D01*
X768754Y263380D01*
X768655Y263340D01*
X768557Y263297D01*
X768461Y263251D01*
X768367Y263201D01*
X768274Y263148D01*
X768184Y263092D01*
X768095Y263032D01*
X768009Y262970D01*
X767925Y262904D01*
X767844Y262835D01*
X767765Y262764D01*
X767688Y262689D01*
X767615Y262612D01*
X767544Y262533D01*
X767476Y262450D01*
X767411Y262366D01*
X767349Y262279D01*
X767291Y262190D01*
X767235Y262099D01*
X767183Y262006D01*
X767134Y261911D01*
X767089Y261815D01*
X767047Y261716D01*
X767009Y261617D01*
X766974Y261516D01*
X771337Y259462D02*
X771405Y259530D01*
X771470Y259600D01*
X771533Y259672D01*
X771593Y259747D01*
X771650Y259824D01*
X771703Y259903D01*
X771754Y259984D01*
X771802Y260067D01*
X771846Y260151D01*
X771887Y260238D01*
X771925Y260326D01*
X771959Y260415D01*
X771990Y260506D01*
X772017Y260597D01*
X772041Y260690D01*
X772061Y260784D01*
X772078Y260878D01*
X772090Y260973D01*
X772100Y261068D01*
X772105Y261163D01*
X772107Y261259D01*
X771337Y259463D02*
X766974Y254331D01*
X772107Y254331D01*
X775588Y253305D02*
X779693Y253305D01*
X788307Y261259D02*
X788305Y261352D01*
X788300Y261445D01*
X788290Y261537D01*
X788277Y261630D01*
X788260Y261721D01*
X788240Y261812D01*
X788216Y261902D01*
X788188Y261991D01*
X788157Y262078D01*
X788122Y262164D01*
X788084Y262249D01*
X788042Y262333D01*
X787998Y262414D01*
X787949Y262494D01*
X787898Y262571D01*
X787844Y262647D01*
X787786Y262720D01*
X787726Y262791D01*
X787663Y262859D01*
X787597Y262925D01*
X787529Y262988D01*
X787458Y263048D01*
X787385Y263106D01*
X787309Y263160D01*
X787232Y263211D01*
X787152Y263260D01*
X787071Y263304D01*
X786987Y263346D01*
X786902Y263384D01*
X786816Y263419D01*
X786729Y263450D01*
X786640Y263478D01*
X786550Y263502D01*
X786459Y263522D01*
X786368Y263539D01*
X786275Y263552D01*
X786183Y263562D01*
X786090Y263567D01*
X785997Y263569D01*
X785890Y263567D01*
X785784Y263561D01*
X785678Y263552D01*
X785572Y263538D01*
X785467Y263521D01*
X785362Y263500D01*
X785259Y263476D01*
X785156Y263447D01*
X785054Y263415D01*
X784954Y263380D01*
X784855Y263340D01*
X784757Y263297D01*
X784661Y263251D01*
X784567Y263201D01*
X784474Y263148D01*
X784384Y263092D01*
X784295Y263032D01*
X784209Y262970D01*
X784125Y262904D01*
X784044Y262835D01*
X783965Y262764D01*
X783888Y262689D01*
X783815Y262612D01*
X783744Y262533D01*
X783676Y262450D01*
X783611Y262366D01*
X783549Y262279D01*
X783491Y262190D01*
X783435Y262099D01*
X783383Y262006D01*
X783334Y261911D01*
X783289Y261815D01*
X783247Y261716D01*
X783209Y261617D01*
X783174Y261516D01*
X787537Y259462D02*
X787605Y259530D01*
X787670Y259600D01*
X787733Y259672D01*
X787793Y259747D01*
X787850Y259824D01*
X787903Y259903D01*
X787954Y259984D01*
X788002Y260067D01*
X788046Y260151D01*
X788087Y260238D01*
X788125Y260326D01*
X788159Y260415D01*
X788190Y260506D01*
X788217Y260597D01*
X788241Y260690D01*
X788261Y260784D01*
X788278Y260878D01*
X788290Y260973D01*
X788300Y261068D01*
X788305Y261163D01*
X788307Y261259D01*
X787537Y259463D02*
X783174Y254331D01*
X788307Y254331D01*
X514031Y463081D02*
X514031Y472319D01*
X516597Y472319D01*
X516696Y472317D01*
X516796Y472311D01*
X516895Y472302D01*
X516993Y472288D01*
X517091Y472271D01*
X517189Y472250D01*
X517285Y472225D01*
X517380Y472196D01*
X517475Y472164D01*
X517567Y472128D01*
X517659Y472089D01*
X517749Y472046D01*
X517837Y472000D01*
X517923Y471950D01*
X518007Y471897D01*
X518089Y471841D01*
X518169Y471781D01*
X518246Y471719D01*
X518321Y471653D01*
X518394Y471585D01*
X518463Y471514D01*
X518530Y471440D01*
X518594Y471364D01*
X518655Y471285D01*
X518713Y471204D01*
X518768Y471121D01*
X518819Y471036D01*
X518867Y470949D01*
X518912Y470860D01*
X518953Y470769D01*
X518991Y470677D01*
X519025Y470584D01*
X519055Y470489D01*
X519082Y470393D01*
X519105Y470296D01*
X519124Y470199D01*
X519139Y470100D01*
X519151Y470001D01*
X519159Y469902D01*
X519163Y469803D01*
X519163Y469703D01*
X519159Y469604D01*
X519151Y469505D01*
X519139Y469406D01*
X519124Y469307D01*
X519105Y469210D01*
X519082Y469113D01*
X519055Y469017D01*
X519025Y468922D01*
X518991Y468829D01*
X518953Y468737D01*
X518912Y468646D01*
X518867Y468557D01*
X518819Y468470D01*
X518768Y468385D01*
X518713Y468302D01*
X518655Y468221D01*
X518594Y468142D01*
X518530Y468066D01*
X518463Y467992D01*
X518394Y467921D01*
X518321Y467853D01*
X518246Y467787D01*
X518169Y467725D01*
X518089Y467665D01*
X518007Y467609D01*
X517923Y467556D01*
X517837Y467506D01*
X517749Y467460D01*
X517659Y467417D01*
X517567Y467378D01*
X517475Y467342D01*
X517380Y467310D01*
X517285Y467281D01*
X517189Y467256D01*
X517091Y467235D01*
X516993Y467218D01*
X516895Y467204D01*
X516796Y467195D01*
X516696Y467189D01*
X516597Y467187D01*
X514031Y467187D01*
X517110Y467187D02*
X519163Y463081D01*
X522974Y470266D02*
X525540Y472319D01*
X525540Y463081D01*
X522974Y463081D02*
X528107Y463081D01*
X531974Y463081D02*
X534540Y463081D01*
X534639Y463083D01*
X534739Y463089D01*
X534838Y463098D01*
X534936Y463112D01*
X535034Y463129D01*
X535132Y463150D01*
X535228Y463175D01*
X535323Y463204D01*
X535418Y463236D01*
X535510Y463272D01*
X535602Y463311D01*
X535692Y463354D01*
X535780Y463400D01*
X535866Y463450D01*
X535950Y463503D01*
X536032Y463559D01*
X536112Y463619D01*
X536189Y463681D01*
X536264Y463747D01*
X536337Y463815D01*
X536406Y463886D01*
X536473Y463960D01*
X536537Y464036D01*
X536598Y464115D01*
X536656Y464196D01*
X536711Y464279D01*
X536762Y464364D01*
X536810Y464451D01*
X536855Y464540D01*
X536896Y464631D01*
X536934Y464723D01*
X536968Y464816D01*
X536998Y464911D01*
X537025Y465007D01*
X537048Y465104D01*
X537067Y465201D01*
X537082Y465300D01*
X537094Y465399D01*
X537102Y465498D01*
X537106Y465597D01*
X537106Y465697D01*
X537102Y465796D01*
X537094Y465895D01*
X537082Y465994D01*
X537067Y466093D01*
X537048Y466190D01*
X537025Y466287D01*
X536998Y466383D01*
X536968Y466478D01*
X536934Y466571D01*
X536896Y466663D01*
X536855Y466754D01*
X536810Y466843D01*
X536762Y466930D01*
X536711Y467015D01*
X536656Y467098D01*
X536598Y467179D01*
X536537Y467258D01*
X536473Y467334D01*
X536406Y467408D01*
X536337Y467479D01*
X536264Y467547D01*
X536189Y467613D01*
X536112Y467675D01*
X536032Y467735D01*
X535950Y467791D01*
X535866Y467844D01*
X535780Y467894D01*
X535692Y467940D01*
X535602Y467983D01*
X535510Y468022D01*
X535418Y468058D01*
X535323Y468090D01*
X535228Y468119D01*
X535132Y468144D01*
X535034Y468165D01*
X534936Y468182D01*
X534838Y468196D01*
X534739Y468205D01*
X534639Y468211D01*
X534540Y468213D01*
X535054Y472319D02*
X531974Y472319D01*
X535054Y472319D02*
X535144Y472317D01*
X535233Y472311D01*
X535322Y472301D01*
X535410Y472288D01*
X535498Y472270D01*
X535585Y472249D01*
X535671Y472224D01*
X535756Y472195D01*
X535840Y472163D01*
X535922Y472127D01*
X536002Y472087D01*
X536081Y472044D01*
X536157Y471997D01*
X536232Y471948D01*
X536304Y471895D01*
X536374Y471839D01*
X536441Y471780D01*
X536506Y471718D01*
X536568Y471653D01*
X536627Y471586D01*
X536683Y471516D01*
X536736Y471444D01*
X536785Y471369D01*
X536832Y471293D01*
X536875Y471214D01*
X536915Y471134D01*
X536951Y471052D01*
X536983Y470968D01*
X537012Y470883D01*
X537037Y470797D01*
X537058Y470710D01*
X537076Y470622D01*
X537089Y470534D01*
X537099Y470445D01*
X537105Y470356D01*
X537107Y470266D01*
X537105Y470176D01*
X537099Y470087D01*
X537089Y469998D01*
X537076Y469910D01*
X537058Y469822D01*
X537037Y469735D01*
X537012Y469649D01*
X536983Y469564D01*
X536951Y469480D01*
X536915Y469398D01*
X536875Y469318D01*
X536832Y469240D01*
X536785Y469163D01*
X536736Y469088D01*
X536683Y469016D01*
X536627Y468946D01*
X536568Y468879D01*
X536506Y468814D01*
X536441Y468752D01*
X536374Y468693D01*
X536304Y468637D01*
X536232Y468584D01*
X536157Y468535D01*
X536081Y468488D01*
X536002Y468445D01*
X535922Y468405D01*
X535840Y468369D01*
X535756Y468337D01*
X535671Y468308D01*
X535585Y468283D01*
X535498Y468262D01*
X535410Y468244D01*
X535322Y468231D01*
X535233Y468221D01*
X535144Y468215D01*
X535054Y468213D01*
X533001Y468213D01*
X540588Y462055D02*
X544693Y462055D01*
X548174Y470266D02*
X550740Y472319D01*
X550740Y463081D01*
X548174Y463081D02*
X553307Y463081D01*
X437781Y463081D02*
X437781Y472319D01*
X440347Y472319D01*
X440446Y472317D01*
X440546Y472311D01*
X440645Y472302D01*
X440743Y472288D01*
X440841Y472271D01*
X440939Y472250D01*
X441035Y472225D01*
X441130Y472196D01*
X441225Y472164D01*
X441317Y472128D01*
X441409Y472089D01*
X441499Y472046D01*
X441587Y472000D01*
X441673Y471950D01*
X441757Y471897D01*
X441839Y471841D01*
X441919Y471781D01*
X441996Y471719D01*
X442071Y471653D01*
X442144Y471585D01*
X442213Y471514D01*
X442280Y471440D01*
X442344Y471364D01*
X442405Y471285D01*
X442463Y471204D01*
X442518Y471121D01*
X442569Y471036D01*
X442617Y470949D01*
X442662Y470860D01*
X442703Y470769D01*
X442741Y470677D01*
X442775Y470584D01*
X442805Y470489D01*
X442832Y470393D01*
X442855Y470296D01*
X442874Y470199D01*
X442889Y470100D01*
X442901Y470001D01*
X442909Y469902D01*
X442913Y469803D01*
X442913Y469703D01*
X442909Y469604D01*
X442901Y469505D01*
X442889Y469406D01*
X442874Y469307D01*
X442855Y469210D01*
X442832Y469113D01*
X442805Y469017D01*
X442775Y468922D01*
X442741Y468829D01*
X442703Y468737D01*
X442662Y468646D01*
X442617Y468557D01*
X442569Y468470D01*
X442518Y468385D01*
X442463Y468302D01*
X442405Y468221D01*
X442344Y468142D01*
X442280Y468066D01*
X442213Y467992D01*
X442144Y467921D01*
X442071Y467853D01*
X441996Y467787D01*
X441919Y467725D01*
X441839Y467665D01*
X441757Y467609D01*
X441673Y467556D01*
X441587Y467506D01*
X441499Y467460D01*
X441409Y467417D01*
X441317Y467378D01*
X441225Y467342D01*
X441130Y467310D01*
X441035Y467281D01*
X440939Y467256D01*
X440841Y467235D01*
X440743Y467218D01*
X440645Y467204D01*
X440546Y467195D01*
X440446Y467189D01*
X440347Y467187D01*
X437781Y467187D01*
X440860Y467187D02*
X442913Y463081D01*
X446724Y470266D02*
X449290Y472319D01*
X449290Y463081D01*
X446724Y463081D02*
X451857Y463081D01*
X455724Y463081D02*
X458290Y463081D01*
X458389Y463083D01*
X458489Y463089D01*
X458588Y463098D01*
X458686Y463112D01*
X458784Y463129D01*
X458882Y463150D01*
X458978Y463175D01*
X459073Y463204D01*
X459168Y463236D01*
X459260Y463272D01*
X459352Y463311D01*
X459442Y463354D01*
X459530Y463400D01*
X459616Y463450D01*
X459700Y463503D01*
X459782Y463559D01*
X459862Y463619D01*
X459939Y463681D01*
X460014Y463747D01*
X460087Y463815D01*
X460156Y463886D01*
X460223Y463960D01*
X460287Y464036D01*
X460348Y464115D01*
X460406Y464196D01*
X460461Y464279D01*
X460512Y464364D01*
X460560Y464451D01*
X460605Y464540D01*
X460646Y464631D01*
X460684Y464723D01*
X460718Y464816D01*
X460748Y464911D01*
X460775Y465007D01*
X460798Y465104D01*
X460817Y465201D01*
X460832Y465300D01*
X460844Y465399D01*
X460852Y465498D01*
X460856Y465597D01*
X460856Y465697D01*
X460852Y465796D01*
X460844Y465895D01*
X460832Y465994D01*
X460817Y466093D01*
X460798Y466190D01*
X460775Y466287D01*
X460748Y466383D01*
X460718Y466478D01*
X460684Y466571D01*
X460646Y466663D01*
X460605Y466754D01*
X460560Y466843D01*
X460512Y466930D01*
X460461Y467015D01*
X460406Y467098D01*
X460348Y467179D01*
X460287Y467258D01*
X460223Y467334D01*
X460156Y467408D01*
X460087Y467479D01*
X460014Y467547D01*
X459939Y467613D01*
X459862Y467675D01*
X459782Y467735D01*
X459700Y467791D01*
X459616Y467844D01*
X459530Y467894D01*
X459442Y467940D01*
X459352Y467983D01*
X459260Y468022D01*
X459168Y468058D01*
X459073Y468090D01*
X458978Y468119D01*
X458882Y468144D01*
X458784Y468165D01*
X458686Y468182D01*
X458588Y468196D01*
X458489Y468205D01*
X458389Y468211D01*
X458290Y468213D01*
X458804Y472319D02*
X455724Y472319D01*
X458804Y472319D02*
X458894Y472317D01*
X458983Y472311D01*
X459072Y472301D01*
X459160Y472288D01*
X459248Y472270D01*
X459335Y472249D01*
X459421Y472224D01*
X459506Y472195D01*
X459590Y472163D01*
X459672Y472127D01*
X459752Y472087D01*
X459831Y472044D01*
X459907Y471997D01*
X459982Y471948D01*
X460054Y471895D01*
X460124Y471839D01*
X460191Y471780D01*
X460256Y471718D01*
X460318Y471653D01*
X460377Y471586D01*
X460433Y471516D01*
X460486Y471444D01*
X460535Y471369D01*
X460582Y471293D01*
X460625Y471214D01*
X460665Y471134D01*
X460701Y471052D01*
X460733Y470968D01*
X460762Y470883D01*
X460787Y470797D01*
X460808Y470710D01*
X460826Y470622D01*
X460839Y470534D01*
X460849Y470445D01*
X460855Y470356D01*
X460857Y470266D01*
X460855Y470176D01*
X460849Y470087D01*
X460839Y469998D01*
X460826Y469910D01*
X460808Y469822D01*
X460787Y469735D01*
X460762Y469649D01*
X460733Y469564D01*
X460701Y469480D01*
X460665Y469398D01*
X460625Y469318D01*
X460582Y469240D01*
X460535Y469163D01*
X460486Y469088D01*
X460433Y469016D01*
X460377Y468946D01*
X460318Y468879D01*
X460256Y468814D01*
X460191Y468752D01*
X460124Y468693D01*
X460054Y468637D01*
X459982Y468584D01*
X459907Y468535D01*
X459831Y468488D01*
X459752Y468445D01*
X459672Y468405D01*
X459590Y468369D01*
X459506Y468337D01*
X459421Y468308D01*
X459335Y468283D01*
X459248Y468262D01*
X459160Y468244D01*
X459072Y468231D01*
X458983Y468221D01*
X458894Y468215D01*
X458804Y468213D01*
X456751Y468213D01*
X464338Y462055D02*
X468443Y462055D01*
X477057Y470009D02*
X477055Y470102D01*
X477050Y470195D01*
X477040Y470287D01*
X477027Y470380D01*
X477010Y470471D01*
X476990Y470562D01*
X476966Y470652D01*
X476938Y470741D01*
X476907Y470828D01*
X476872Y470914D01*
X476834Y470999D01*
X476792Y471083D01*
X476748Y471164D01*
X476699Y471244D01*
X476648Y471321D01*
X476594Y471397D01*
X476536Y471470D01*
X476476Y471541D01*
X476413Y471609D01*
X476347Y471675D01*
X476279Y471738D01*
X476208Y471798D01*
X476135Y471856D01*
X476059Y471910D01*
X475982Y471961D01*
X475902Y472010D01*
X475821Y472054D01*
X475737Y472096D01*
X475652Y472134D01*
X475566Y472169D01*
X475479Y472200D01*
X475390Y472228D01*
X475300Y472252D01*
X475209Y472272D01*
X475118Y472289D01*
X475025Y472302D01*
X474933Y472312D01*
X474840Y472317D01*
X474747Y472319D01*
X474640Y472317D01*
X474534Y472311D01*
X474428Y472302D01*
X474322Y472288D01*
X474217Y472271D01*
X474112Y472250D01*
X474009Y472226D01*
X473906Y472197D01*
X473804Y472165D01*
X473704Y472130D01*
X473605Y472090D01*
X473507Y472047D01*
X473411Y472001D01*
X473317Y471951D01*
X473224Y471898D01*
X473134Y471842D01*
X473045Y471782D01*
X472959Y471720D01*
X472875Y471654D01*
X472794Y471585D01*
X472715Y471514D01*
X472638Y471439D01*
X472565Y471362D01*
X472494Y471283D01*
X472426Y471200D01*
X472361Y471116D01*
X472299Y471029D01*
X472241Y470940D01*
X472185Y470849D01*
X472133Y470756D01*
X472084Y470661D01*
X472039Y470565D01*
X471997Y470466D01*
X471959Y470367D01*
X471924Y470266D01*
X476287Y468212D02*
X476355Y468280D01*
X476420Y468350D01*
X476483Y468422D01*
X476543Y468497D01*
X476600Y468574D01*
X476653Y468653D01*
X476704Y468734D01*
X476752Y468817D01*
X476796Y468901D01*
X476837Y468988D01*
X476875Y469076D01*
X476909Y469165D01*
X476940Y469256D01*
X476967Y469347D01*
X476991Y469440D01*
X477011Y469534D01*
X477028Y469628D01*
X477040Y469723D01*
X477050Y469818D01*
X477055Y469913D01*
X477057Y470009D01*
X476287Y468213D02*
X471924Y463081D01*
X477057Y463081D01*
X427981Y123169D02*
X427981Y113931D01*
X427981Y123169D02*
X430547Y123169D01*
X430646Y123167D01*
X430746Y123161D01*
X430845Y123152D01*
X430943Y123138D01*
X431041Y123121D01*
X431139Y123100D01*
X431235Y123075D01*
X431330Y123046D01*
X431425Y123014D01*
X431517Y122978D01*
X431609Y122939D01*
X431699Y122896D01*
X431787Y122850D01*
X431873Y122800D01*
X431957Y122747D01*
X432039Y122691D01*
X432119Y122631D01*
X432196Y122569D01*
X432271Y122503D01*
X432344Y122435D01*
X432413Y122364D01*
X432480Y122290D01*
X432544Y122214D01*
X432605Y122135D01*
X432663Y122054D01*
X432718Y121971D01*
X432769Y121886D01*
X432817Y121799D01*
X432862Y121710D01*
X432903Y121619D01*
X432941Y121527D01*
X432975Y121434D01*
X433005Y121339D01*
X433032Y121243D01*
X433055Y121146D01*
X433074Y121049D01*
X433089Y120950D01*
X433101Y120851D01*
X433109Y120752D01*
X433113Y120653D01*
X433113Y120553D01*
X433109Y120454D01*
X433101Y120355D01*
X433089Y120256D01*
X433074Y120157D01*
X433055Y120060D01*
X433032Y119963D01*
X433005Y119867D01*
X432975Y119772D01*
X432941Y119679D01*
X432903Y119587D01*
X432862Y119496D01*
X432817Y119407D01*
X432769Y119320D01*
X432718Y119235D01*
X432663Y119152D01*
X432605Y119071D01*
X432544Y118992D01*
X432480Y118916D01*
X432413Y118842D01*
X432344Y118771D01*
X432271Y118703D01*
X432196Y118637D01*
X432119Y118575D01*
X432039Y118515D01*
X431957Y118459D01*
X431873Y118406D01*
X431787Y118356D01*
X431699Y118310D01*
X431609Y118267D01*
X431517Y118228D01*
X431425Y118192D01*
X431330Y118160D01*
X431235Y118131D01*
X431139Y118106D01*
X431041Y118085D01*
X430943Y118068D01*
X430845Y118054D01*
X430746Y118045D01*
X430646Y118039D01*
X430547Y118037D01*
X427981Y118037D01*
X431060Y118037D02*
X433113Y113931D01*
X436924Y121116D02*
X439490Y123169D01*
X439490Y113931D01*
X436924Y113931D02*
X442057Y113931D01*
X445924Y115984D02*
X447977Y123169D01*
X445924Y115984D02*
X451057Y115984D01*
X449517Y118037D02*
X449517Y113931D01*
X454538Y112905D02*
X458643Y112905D01*
X462124Y121116D02*
X464690Y123169D01*
X464690Y113931D01*
X462124Y113931D02*
X467257Y113931D01*
X427781Y174331D02*
X427781Y183569D01*
X430347Y183569D01*
X430446Y183567D01*
X430546Y183561D01*
X430645Y183552D01*
X430743Y183538D01*
X430841Y183521D01*
X430939Y183500D01*
X431035Y183475D01*
X431130Y183446D01*
X431225Y183414D01*
X431317Y183378D01*
X431409Y183339D01*
X431499Y183296D01*
X431587Y183250D01*
X431673Y183200D01*
X431757Y183147D01*
X431839Y183091D01*
X431919Y183031D01*
X431996Y182969D01*
X432071Y182903D01*
X432144Y182835D01*
X432213Y182764D01*
X432280Y182690D01*
X432344Y182614D01*
X432405Y182535D01*
X432463Y182454D01*
X432518Y182371D01*
X432569Y182286D01*
X432617Y182199D01*
X432662Y182110D01*
X432703Y182019D01*
X432741Y181927D01*
X432775Y181834D01*
X432805Y181739D01*
X432832Y181643D01*
X432855Y181546D01*
X432874Y181449D01*
X432889Y181350D01*
X432901Y181251D01*
X432909Y181152D01*
X432913Y181053D01*
X432913Y180953D01*
X432909Y180854D01*
X432901Y180755D01*
X432889Y180656D01*
X432874Y180557D01*
X432855Y180460D01*
X432832Y180363D01*
X432805Y180267D01*
X432775Y180172D01*
X432741Y180079D01*
X432703Y179987D01*
X432662Y179896D01*
X432617Y179807D01*
X432569Y179720D01*
X432518Y179635D01*
X432463Y179552D01*
X432405Y179471D01*
X432344Y179392D01*
X432280Y179316D01*
X432213Y179242D01*
X432144Y179171D01*
X432071Y179103D01*
X431996Y179037D01*
X431919Y178975D01*
X431839Y178915D01*
X431757Y178859D01*
X431673Y178806D01*
X431587Y178756D01*
X431499Y178710D01*
X431409Y178667D01*
X431317Y178628D01*
X431225Y178592D01*
X431130Y178560D01*
X431035Y178531D01*
X430939Y178506D01*
X430841Y178485D01*
X430743Y178468D01*
X430645Y178454D01*
X430546Y178445D01*
X430446Y178439D01*
X430347Y178437D01*
X427781Y178437D01*
X430860Y178437D02*
X432913Y174331D01*
X436724Y181516D02*
X439290Y183569D01*
X439290Y174331D01*
X436724Y174331D02*
X441857Y174331D01*
X445724Y176384D02*
X447777Y183569D01*
X445724Y176384D02*
X450857Y176384D01*
X449317Y178437D02*
X449317Y174331D01*
X454338Y173305D02*
X458443Y173305D01*
X467057Y181259D02*
X467055Y181352D01*
X467050Y181445D01*
X467040Y181537D01*
X467027Y181630D01*
X467010Y181721D01*
X466990Y181812D01*
X466966Y181902D01*
X466938Y181991D01*
X466907Y182078D01*
X466872Y182164D01*
X466834Y182249D01*
X466792Y182333D01*
X466748Y182414D01*
X466699Y182494D01*
X466648Y182571D01*
X466594Y182647D01*
X466536Y182720D01*
X466476Y182791D01*
X466413Y182859D01*
X466347Y182925D01*
X466279Y182988D01*
X466208Y183048D01*
X466135Y183106D01*
X466059Y183160D01*
X465982Y183211D01*
X465902Y183260D01*
X465821Y183304D01*
X465737Y183346D01*
X465652Y183384D01*
X465566Y183419D01*
X465479Y183450D01*
X465390Y183478D01*
X465300Y183502D01*
X465209Y183522D01*
X465118Y183539D01*
X465025Y183552D01*
X464933Y183562D01*
X464840Y183567D01*
X464747Y183569D01*
X464640Y183567D01*
X464534Y183561D01*
X464428Y183552D01*
X464322Y183538D01*
X464217Y183521D01*
X464112Y183500D01*
X464009Y183476D01*
X463906Y183447D01*
X463804Y183415D01*
X463704Y183380D01*
X463605Y183340D01*
X463507Y183297D01*
X463411Y183251D01*
X463317Y183201D01*
X463224Y183148D01*
X463134Y183092D01*
X463045Y183032D01*
X462959Y182970D01*
X462875Y182904D01*
X462794Y182835D01*
X462715Y182764D01*
X462638Y182689D01*
X462565Y182612D01*
X462494Y182533D01*
X462426Y182450D01*
X462361Y182366D01*
X462299Y182279D01*
X462241Y182190D01*
X462185Y182099D01*
X462133Y182006D01*
X462084Y181911D01*
X462039Y181815D01*
X461997Y181716D01*
X461959Y181617D01*
X461924Y181516D01*
X466287Y179462D02*
X466355Y179530D01*
X466420Y179600D01*
X466483Y179672D01*
X466543Y179747D01*
X466600Y179824D01*
X466653Y179903D01*
X466704Y179984D01*
X466752Y180067D01*
X466796Y180151D01*
X466837Y180238D01*
X466875Y180326D01*
X466909Y180415D01*
X466940Y180506D01*
X466967Y180597D01*
X466991Y180690D01*
X467011Y180784D01*
X467028Y180878D01*
X467040Y180973D01*
X467050Y181068D01*
X467055Y181163D01*
X467057Y181259D01*
X466287Y179463D02*
X461924Y174331D01*
X467057Y174331D01*
X327781Y174331D02*
X327781Y183569D01*
X330347Y183569D01*
X330446Y183567D01*
X330546Y183561D01*
X330645Y183552D01*
X330743Y183538D01*
X330841Y183521D01*
X330939Y183500D01*
X331035Y183475D01*
X331130Y183446D01*
X331225Y183414D01*
X331317Y183378D01*
X331409Y183339D01*
X331499Y183296D01*
X331587Y183250D01*
X331673Y183200D01*
X331757Y183147D01*
X331839Y183091D01*
X331919Y183031D01*
X331996Y182969D01*
X332071Y182903D01*
X332144Y182835D01*
X332213Y182764D01*
X332280Y182690D01*
X332344Y182614D01*
X332405Y182535D01*
X332463Y182454D01*
X332518Y182371D01*
X332569Y182286D01*
X332617Y182199D01*
X332662Y182110D01*
X332703Y182019D01*
X332741Y181927D01*
X332775Y181834D01*
X332805Y181739D01*
X332832Y181643D01*
X332855Y181546D01*
X332874Y181449D01*
X332889Y181350D01*
X332901Y181251D01*
X332909Y181152D01*
X332913Y181053D01*
X332913Y180953D01*
X332909Y180854D01*
X332901Y180755D01*
X332889Y180656D01*
X332874Y180557D01*
X332855Y180460D01*
X332832Y180363D01*
X332805Y180267D01*
X332775Y180172D01*
X332741Y180079D01*
X332703Y179987D01*
X332662Y179896D01*
X332617Y179807D01*
X332569Y179720D01*
X332518Y179635D01*
X332463Y179552D01*
X332405Y179471D01*
X332344Y179392D01*
X332280Y179316D01*
X332213Y179242D01*
X332144Y179171D01*
X332071Y179103D01*
X331996Y179037D01*
X331919Y178975D01*
X331839Y178915D01*
X331757Y178859D01*
X331673Y178806D01*
X331587Y178756D01*
X331499Y178710D01*
X331409Y178667D01*
X331317Y178628D01*
X331225Y178592D01*
X331130Y178560D01*
X331035Y178531D01*
X330939Y178506D01*
X330841Y178485D01*
X330743Y178468D01*
X330645Y178454D01*
X330546Y178445D01*
X330446Y178439D01*
X330347Y178437D01*
X327781Y178437D01*
X330860Y178437D02*
X332913Y174331D01*
X336724Y181516D02*
X339290Y183569D01*
X339290Y174331D01*
X336724Y174331D02*
X341857Y174331D01*
X345724Y176384D02*
X347777Y183569D01*
X345724Y176384D02*
X350857Y176384D01*
X349317Y178437D02*
X349317Y174331D01*
X354338Y173305D02*
X358443Y173305D01*
X361924Y174331D02*
X364490Y174331D01*
X364589Y174333D01*
X364689Y174339D01*
X364788Y174348D01*
X364886Y174362D01*
X364984Y174379D01*
X365082Y174400D01*
X365178Y174425D01*
X365273Y174454D01*
X365368Y174486D01*
X365460Y174522D01*
X365552Y174561D01*
X365642Y174604D01*
X365730Y174650D01*
X365816Y174700D01*
X365900Y174753D01*
X365982Y174809D01*
X366062Y174869D01*
X366139Y174931D01*
X366214Y174997D01*
X366287Y175065D01*
X366356Y175136D01*
X366423Y175210D01*
X366487Y175286D01*
X366548Y175365D01*
X366606Y175446D01*
X366661Y175529D01*
X366712Y175614D01*
X366760Y175701D01*
X366805Y175790D01*
X366846Y175881D01*
X366884Y175973D01*
X366918Y176066D01*
X366948Y176161D01*
X366975Y176257D01*
X366998Y176354D01*
X367017Y176451D01*
X367032Y176550D01*
X367044Y176649D01*
X367052Y176748D01*
X367056Y176847D01*
X367056Y176947D01*
X367052Y177046D01*
X367044Y177145D01*
X367032Y177244D01*
X367017Y177343D01*
X366998Y177440D01*
X366975Y177537D01*
X366948Y177633D01*
X366918Y177728D01*
X366884Y177821D01*
X366846Y177913D01*
X366805Y178004D01*
X366760Y178093D01*
X366712Y178180D01*
X366661Y178265D01*
X366606Y178348D01*
X366548Y178429D01*
X366487Y178508D01*
X366423Y178584D01*
X366356Y178658D01*
X366287Y178729D01*
X366214Y178797D01*
X366139Y178863D01*
X366062Y178925D01*
X365982Y178985D01*
X365900Y179041D01*
X365816Y179094D01*
X365730Y179144D01*
X365642Y179190D01*
X365552Y179233D01*
X365460Y179272D01*
X365368Y179308D01*
X365273Y179340D01*
X365178Y179369D01*
X365082Y179394D01*
X364984Y179415D01*
X364886Y179432D01*
X364788Y179446D01*
X364689Y179455D01*
X364589Y179461D01*
X364490Y179463D01*
X365004Y183569D02*
X361924Y183569D01*
X365004Y183569D02*
X365094Y183567D01*
X365183Y183561D01*
X365272Y183551D01*
X365360Y183538D01*
X365448Y183520D01*
X365535Y183499D01*
X365621Y183474D01*
X365706Y183445D01*
X365790Y183413D01*
X365872Y183377D01*
X365952Y183337D01*
X366031Y183294D01*
X366107Y183247D01*
X366182Y183198D01*
X366254Y183145D01*
X366324Y183089D01*
X366391Y183030D01*
X366456Y182968D01*
X366518Y182903D01*
X366577Y182836D01*
X366633Y182766D01*
X366686Y182694D01*
X366735Y182619D01*
X366782Y182543D01*
X366825Y182464D01*
X366865Y182384D01*
X366901Y182302D01*
X366933Y182218D01*
X366962Y182133D01*
X366987Y182047D01*
X367008Y181960D01*
X367026Y181872D01*
X367039Y181784D01*
X367049Y181695D01*
X367055Y181606D01*
X367057Y181516D01*
X367055Y181426D01*
X367049Y181337D01*
X367039Y181248D01*
X367026Y181160D01*
X367008Y181072D01*
X366987Y180985D01*
X366962Y180899D01*
X366933Y180814D01*
X366901Y180730D01*
X366865Y180648D01*
X366825Y180568D01*
X366782Y180490D01*
X366735Y180413D01*
X366686Y180338D01*
X366633Y180266D01*
X366577Y180196D01*
X366518Y180129D01*
X366456Y180064D01*
X366391Y180002D01*
X366324Y179943D01*
X366254Y179887D01*
X366182Y179834D01*
X366107Y179785D01*
X366031Y179738D01*
X365952Y179695D01*
X365872Y179655D01*
X365790Y179619D01*
X365706Y179587D01*
X365621Y179558D01*
X365535Y179533D01*
X365448Y179512D01*
X365360Y179494D01*
X365272Y179481D01*
X365183Y179471D01*
X365094Y179465D01*
X365004Y179463D01*
X362951Y179463D01*
X111531Y463081D02*
X111531Y472319D01*
X114097Y472319D01*
X114196Y472317D01*
X114296Y472311D01*
X114395Y472302D01*
X114493Y472288D01*
X114591Y472271D01*
X114689Y472250D01*
X114785Y472225D01*
X114880Y472196D01*
X114975Y472164D01*
X115067Y472128D01*
X115159Y472089D01*
X115249Y472046D01*
X115337Y472000D01*
X115423Y471950D01*
X115507Y471897D01*
X115589Y471841D01*
X115669Y471781D01*
X115746Y471719D01*
X115821Y471653D01*
X115894Y471585D01*
X115963Y471514D01*
X116030Y471440D01*
X116094Y471364D01*
X116155Y471285D01*
X116213Y471204D01*
X116268Y471121D01*
X116319Y471036D01*
X116367Y470949D01*
X116412Y470860D01*
X116453Y470769D01*
X116491Y470677D01*
X116525Y470584D01*
X116555Y470489D01*
X116582Y470393D01*
X116605Y470296D01*
X116624Y470199D01*
X116639Y470100D01*
X116651Y470001D01*
X116659Y469902D01*
X116663Y469803D01*
X116663Y469703D01*
X116659Y469604D01*
X116651Y469505D01*
X116639Y469406D01*
X116624Y469307D01*
X116605Y469210D01*
X116582Y469113D01*
X116555Y469017D01*
X116525Y468922D01*
X116491Y468829D01*
X116453Y468737D01*
X116412Y468646D01*
X116367Y468557D01*
X116319Y468470D01*
X116268Y468385D01*
X116213Y468302D01*
X116155Y468221D01*
X116094Y468142D01*
X116030Y468066D01*
X115963Y467992D01*
X115894Y467921D01*
X115821Y467853D01*
X115746Y467787D01*
X115669Y467725D01*
X115589Y467665D01*
X115507Y467609D01*
X115423Y467556D01*
X115337Y467506D01*
X115249Y467460D01*
X115159Y467417D01*
X115067Y467378D01*
X114975Y467342D01*
X114880Y467310D01*
X114785Y467281D01*
X114689Y467256D01*
X114591Y467235D01*
X114493Y467218D01*
X114395Y467204D01*
X114296Y467195D01*
X114196Y467189D01*
X114097Y467187D01*
X111531Y467187D01*
X114610Y467187D02*
X116663Y463081D01*
X120474Y470266D02*
X123040Y472319D01*
X123040Y463081D01*
X120474Y463081D02*
X125607Y463081D01*
X129088Y462055D02*
X133193Y462055D01*
X136674Y470266D02*
X139240Y472319D01*
X139240Y463081D01*
X136674Y463081D02*
X141807Y463081D01*
X191531Y463081D02*
X191531Y472319D01*
X194097Y472319D01*
X194196Y472317D01*
X194296Y472311D01*
X194395Y472302D01*
X194493Y472288D01*
X194591Y472271D01*
X194689Y472250D01*
X194785Y472225D01*
X194880Y472196D01*
X194975Y472164D01*
X195067Y472128D01*
X195159Y472089D01*
X195249Y472046D01*
X195337Y472000D01*
X195423Y471950D01*
X195507Y471897D01*
X195589Y471841D01*
X195669Y471781D01*
X195746Y471719D01*
X195821Y471653D01*
X195894Y471585D01*
X195963Y471514D01*
X196030Y471440D01*
X196094Y471364D01*
X196155Y471285D01*
X196213Y471204D01*
X196268Y471121D01*
X196319Y471036D01*
X196367Y470949D01*
X196412Y470860D01*
X196453Y470769D01*
X196491Y470677D01*
X196525Y470584D01*
X196555Y470489D01*
X196582Y470393D01*
X196605Y470296D01*
X196624Y470199D01*
X196639Y470100D01*
X196651Y470001D01*
X196659Y469902D01*
X196663Y469803D01*
X196663Y469703D01*
X196659Y469604D01*
X196651Y469505D01*
X196639Y469406D01*
X196624Y469307D01*
X196605Y469210D01*
X196582Y469113D01*
X196555Y469017D01*
X196525Y468922D01*
X196491Y468829D01*
X196453Y468737D01*
X196412Y468646D01*
X196367Y468557D01*
X196319Y468470D01*
X196268Y468385D01*
X196213Y468302D01*
X196155Y468221D01*
X196094Y468142D01*
X196030Y468066D01*
X195963Y467992D01*
X195894Y467921D01*
X195821Y467853D01*
X195746Y467787D01*
X195669Y467725D01*
X195589Y467665D01*
X195507Y467609D01*
X195423Y467556D01*
X195337Y467506D01*
X195249Y467460D01*
X195159Y467417D01*
X195067Y467378D01*
X194975Y467342D01*
X194880Y467310D01*
X194785Y467281D01*
X194689Y467256D01*
X194591Y467235D01*
X194493Y467218D01*
X194395Y467204D01*
X194296Y467195D01*
X194196Y467189D01*
X194097Y467187D01*
X191531Y467187D01*
X194610Y467187D02*
X196663Y463081D01*
X200474Y470266D02*
X203040Y472319D01*
X203040Y463081D01*
X200474Y463081D02*
X205607Y463081D01*
X209088Y462055D02*
X213193Y462055D01*
X221807Y470009D02*
X221805Y470102D01*
X221800Y470195D01*
X221790Y470287D01*
X221777Y470380D01*
X221760Y470471D01*
X221740Y470562D01*
X221716Y470652D01*
X221688Y470741D01*
X221657Y470828D01*
X221622Y470914D01*
X221584Y470999D01*
X221542Y471083D01*
X221498Y471164D01*
X221449Y471244D01*
X221398Y471321D01*
X221344Y471397D01*
X221286Y471470D01*
X221226Y471541D01*
X221163Y471609D01*
X221097Y471675D01*
X221029Y471738D01*
X220958Y471798D01*
X220885Y471856D01*
X220809Y471910D01*
X220732Y471961D01*
X220652Y472010D01*
X220571Y472054D01*
X220487Y472096D01*
X220402Y472134D01*
X220316Y472169D01*
X220229Y472200D01*
X220140Y472228D01*
X220050Y472252D01*
X219959Y472272D01*
X219868Y472289D01*
X219775Y472302D01*
X219683Y472312D01*
X219590Y472317D01*
X219497Y472319D01*
X219390Y472317D01*
X219284Y472311D01*
X219178Y472302D01*
X219072Y472288D01*
X218967Y472271D01*
X218862Y472250D01*
X218759Y472226D01*
X218656Y472197D01*
X218554Y472165D01*
X218454Y472130D01*
X218355Y472090D01*
X218257Y472047D01*
X218161Y472001D01*
X218067Y471951D01*
X217974Y471898D01*
X217884Y471842D01*
X217795Y471782D01*
X217709Y471720D01*
X217625Y471654D01*
X217544Y471585D01*
X217465Y471514D01*
X217388Y471439D01*
X217315Y471362D01*
X217244Y471283D01*
X217176Y471200D01*
X217111Y471116D01*
X217049Y471029D01*
X216991Y470940D01*
X216935Y470849D01*
X216883Y470756D01*
X216834Y470661D01*
X216789Y470565D01*
X216747Y470466D01*
X216709Y470367D01*
X216674Y470266D01*
X221037Y468212D02*
X221105Y468280D01*
X221170Y468350D01*
X221233Y468422D01*
X221293Y468497D01*
X221350Y468574D01*
X221403Y468653D01*
X221454Y468734D01*
X221502Y468817D01*
X221546Y468901D01*
X221587Y468988D01*
X221625Y469076D01*
X221659Y469165D01*
X221690Y469256D01*
X221717Y469347D01*
X221741Y469440D01*
X221761Y469534D01*
X221778Y469628D01*
X221790Y469723D01*
X221800Y469818D01*
X221805Y469913D01*
X221807Y470009D01*
X221037Y468213D02*
X216674Y463081D01*
X221807Y463081D01*
X271531Y463081D02*
X271531Y472319D01*
X274097Y472319D01*
X274196Y472317D01*
X274296Y472311D01*
X274395Y472302D01*
X274493Y472288D01*
X274591Y472271D01*
X274689Y472250D01*
X274785Y472225D01*
X274880Y472196D01*
X274975Y472164D01*
X275067Y472128D01*
X275159Y472089D01*
X275249Y472046D01*
X275337Y472000D01*
X275423Y471950D01*
X275507Y471897D01*
X275589Y471841D01*
X275669Y471781D01*
X275746Y471719D01*
X275821Y471653D01*
X275894Y471585D01*
X275963Y471514D01*
X276030Y471440D01*
X276094Y471364D01*
X276155Y471285D01*
X276213Y471204D01*
X276268Y471121D01*
X276319Y471036D01*
X276367Y470949D01*
X276412Y470860D01*
X276453Y470769D01*
X276491Y470677D01*
X276525Y470584D01*
X276555Y470489D01*
X276582Y470393D01*
X276605Y470296D01*
X276624Y470199D01*
X276639Y470100D01*
X276651Y470001D01*
X276659Y469902D01*
X276663Y469803D01*
X276663Y469703D01*
X276659Y469604D01*
X276651Y469505D01*
X276639Y469406D01*
X276624Y469307D01*
X276605Y469210D01*
X276582Y469113D01*
X276555Y469017D01*
X276525Y468922D01*
X276491Y468829D01*
X276453Y468737D01*
X276412Y468646D01*
X276367Y468557D01*
X276319Y468470D01*
X276268Y468385D01*
X276213Y468302D01*
X276155Y468221D01*
X276094Y468142D01*
X276030Y468066D01*
X275963Y467992D01*
X275894Y467921D01*
X275821Y467853D01*
X275746Y467787D01*
X275669Y467725D01*
X275589Y467665D01*
X275507Y467609D01*
X275423Y467556D01*
X275337Y467506D01*
X275249Y467460D01*
X275159Y467417D01*
X275067Y467378D01*
X274975Y467342D01*
X274880Y467310D01*
X274785Y467281D01*
X274689Y467256D01*
X274591Y467235D01*
X274493Y467218D01*
X274395Y467204D01*
X274296Y467195D01*
X274196Y467189D01*
X274097Y467187D01*
X271531Y467187D01*
X274610Y467187D02*
X276663Y463081D01*
X280474Y470266D02*
X283040Y472319D01*
X283040Y463081D01*
X280474Y463081D02*
X285607Y463081D01*
X289088Y462055D02*
X293193Y462055D01*
X296674Y463081D02*
X299240Y463081D01*
X299339Y463083D01*
X299439Y463089D01*
X299538Y463098D01*
X299636Y463112D01*
X299734Y463129D01*
X299832Y463150D01*
X299928Y463175D01*
X300023Y463204D01*
X300118Y463236D01*
X300210Y463272D01*
X300302Y463311D01*
X300392Y463354D01*
X300480Y463400D01*
X300566Y463450D01*
X300650Y463503D01*
X300732Y463559D01*
X300812Y463619D01*
X300889Y463681D01*
X300964Y463747D01*
X301037Y463815D01*
X301106Y463886D01*
X301173Y463960D01*
X301237Y464036D01*
X301298Y464115D01*
X301356Y464196D01*
X301411Y464279D01*
X301462Y464364D01*
X301510Y464451D01*
X301555Y464540D01*
X301596Y464631D01*
X301634Y464723D01*
X301668Y464816D01*
X301698Y464911D01*
X301725Y465007D01*
X301748Y465104D01*
X301767Y465201D01*
X301782Y465300D01*
X301794Y465399D01*
X301802Y465498D01*
X301806Y465597D01*
X301806Y465697D01*
X301802Y465796D01*
X301794Y465895D01*
X301782Y465994D01*
X301767Y466093D01*
X301748Y466190D01*
X301725Y466287D01*
X301698Y466383D01*
X301668Y466478D01*
X301634Y466571D01*
X301596Y466663D01*
X301555Y466754D01*
X301510Y466843D01*
X301462Y466930D01*
X301411Y467015D01*
X301356Y467098D01*
X301298Y467179D01*
X301237Y467258D01*
X301173Y467334D01*
X301106Y467408D01*
X301037Y467479D01*
X300964Y467547D01*
X300889Y467613D01*
X300812Y467675D01*
X300732Y467735D01*
X300650Y467791D01*
X300566Y467844D01*
X300480Y467894D01*
X300392Y467940D01*
X300302Y467983D01*
X300210Y468022D01*
X300118Y468058D01*
X300023Y468090D01*
X299928Y468119D01*
X299832Y468144D01*
X299734Y468165D01*
X299636Y468182D01*
X299538Y468196D01*
X299439Y468205D01*
X299339Y468211D01*
X299240Y468213D01*
X299754Y472319D02*
X296674Y472319D01*
X299754Y472319D02*
X299844Y472317D01*
X299933Y472311D01*
X300022Y472301D01*
X300110Y472288D01*
X300198Y472270D01*
X300285Y472249D01*
X300371Y472224D01*
X300456Y472195D01*
X300540Y472163D01*
X300622Y472127D01*
X300702Y472087D01*
X300781Y472044D01*
X300857Y471997D01*
X300932Y471948D01*
X301004Y471895D01*
X301074Y471839D01*
X301141Y471780D01*
X301206Y471718D01*
X301268Y471653D01*
X301327Y471586D01*
X301383Y471516D01*
X301436Y471444D01*
X301485Y471369D01*
X301532Y471293D01*
X301575Y471214D01*
X301615Y471134D01*
X301651Y471052D01*
X301683Y470968D01*
X301712Y470883D01*
X301737Y470797D01*
X301758Y470710D01*
X301776Y470622D01*
X301789Y470534D01*
X301799Y470445D01*
X301805Y470356D01*
X301807Y470266D01*
X301805Y470176D01*
X301799Y470087D01*
X301789Y469998D01*
X301776Y469910D01*
X301758Y469822D01*
X301737Y469735D01*
X301712Y469649D01*
X301683Y469564D01*
X301651Y469480D01*
X301615Y469398D01*
X301575Y469318D01*
X301532Y469240D01*
X301485Y469163D01*
X301436Y469088D01*
X301383Y469016D01*
X301327Y468946D01*
X301268Y468879D01*
X301206Y468814D01*
X301141Y468752D01*
X301074Y468693D01*
X301004Y468637D01*
X300932Y468584D01*
X300857Y468535D01*
X300781Y468488D01*
X300702Y468445D01*
X300622Y468405D01*
X300540Y468369D01*
X300456Y468337D01*
X300371Y468308D01*
X300285Y468283D01*
X300198Y468262D01*
X300110Y468244D01*
X300022Y468231D01*
X299933Y468221D01*
X299844Y468215D01*
X299754Y468213D01*
X297701Y468213D01*
X319031Y402319D02*
X319031Y393081D01*
X319031Y402319D02*
X321597Y402319D01*
X321696Y402317D01*
X321796Y402311D01*
X321895Y402302D01*
X321993Y402288D01*
X322091Y402271D01*
X322189Y402250D01*
X322285Y402225D01*
X322380Y402196D01*
X322475Y402164D01*
X322567Y402128D01*
X322659Y402089D01*
X322749Y402046D01*
X322837Y402000D01*
X322923Y401950D01*
X323007Y401897D01*
X323089Y401841D01*
X323169Y401781D01*
X323246Y401719D01*
X323321Y401653D01*
X323394Y401585D01*
X323463Y401514D01*
X323530Y401440D01*
X323594Y401364D01*
X323655Y401285D01*
X323713Y401204D01*
X323768Y401121D01*
X323819Y401036D01*
X323867Y400949D01*
X323912Y400860D01*
X323953Y400769D01*
X323991Y400677D01*
X324025Y400584D01*
X324055Y400489D01*
X324082Y400393D01*
X324105Y400296D01*
X324124Y400199D01*
X324139Y400100D01*
X324151Y400001D01*
X324159Y399902D01*
X324163Y399803D01*
X324163Y399703D01*
X324159Y399604D01*
X324151Y399505D01*
X324139Y399406D01*
X324124Y399307D01*
X324105Y399210D01*
X324082Y399113D01*
X324055Y399017D01*
X324025Y398922D01*
X323991Y398829D01*
X323953Y398737D01*
X323912Y398646D01*
X323867Y398557D01*
X323819Y398470D01*
X323768Y398385D01*
X323713Y398302D01*
X323655Y398221D01*
X323594Y398142D01*
X323530Y398066D01*
X323463Y397992D01*
X323394Y397921D01*
X323321Y397853D01*
X323246Y397787D01*
X323169Y397725D01*
X323089Y397665D01*
X323007Y397609D01*
X322923Y397556D01*
X322837Y397506D01*
X322749Y397460D01*
X322659Y397417D01*
X322567Y397378D01*
X322475Y397342D01*
X322380Y397310D01*
X322285Y397281D01*
X322189Y397256D01*
X322091Y397235D01*
X321993Y397218D01*
X321895Y397204D01*
X321796Y397195D01*
X321696Y397189D01*
X321597Y397187D01*
X319031Y397187D01*
X322110Y397187D02*
X324163Y393081D01*
X333107Y400009D02*
X333105Y400102D01*
X333100Y400195D01*
X333090Y400287D01*
X333077Y400380D01*
X333060Y400471D01*
X333040Y400562D01*
X333016Y400652D01*
X332988Y400741D01*
X332957Y400828D01*
X332922Y400914D01*
X332884Y400999D01*
X332842Y401083D01*
X332798Y401164D01*
X332749Y401244D01*
X332698Y401321D01*
X332644Y401397D01*
X332586Y401470D01*
X332526Y401541D01*
X332463Y401609D01*
X332397Y401675D01*
X332329Y401738D01*
X332258Y401798D01*
X332185Y401856D01*
X332109Y401910D01*
X332032Y401961D01*
X331952Y402010D01*
X331871Y402054D01*
X331787Y402096D01*
X331702Y402134D01*
X331616Y402169D01*
X331529Y402200D01*
X331440Y402228D01*
X331350Y402252D01*
X331259Y402272D01*
X331168Y402289D01*
X331075Y402302D01*
X330983Y402312D01*
X330890Y402317D01*
X330797Y402319D01*
X330690Y402317D01*
X330584Y402311D01*
X330478Y402302D01*
X330372Y402288D01*
X330267Y402271D01*
X330162Y402250D01*
X330059Y402226D01*
X329956Y402197D01*
X329854Y402165D01*
X329754Y402130D01*
X329655Y402090D01*
X329557Y402047D01*
X329461Y402001D01*
X329367Y401951D01*
X329274Y401898D01*
X329184Y401842D01*
X329095Y401782D01*
X329009Y401720D01*
X328925Y401654D01*
X328844Y401585D01*
X328765Y401514D01*
X328688Y401439D01*
X328615Y401362D01*
X328544Y401283D01*
X328476Y401200D01*
X328411Y401116D01*
X328349Y401029D01*
X328291Y400940D01*
X328235Y400849D01*
X328183Y400756D01*
X328134Y400661D01*
X328089Y400565D01*
X328047Y400466D01*
X328009Y400367D01*
X327974Y400266D01*
X332337Y398212D02*
X332405Y398280D01*
X332470Y398350D01*
X332533Y398422D01*
X332593Y398497D01*
X332650Y398574D01*
X332703Y398653D01*
X332754Y398734D01*
X332802Y398817D01*
X332846Y398901D01*
X332887Y398988D01*
X332925Y399076D01*
X332959Y399165D01*
X332990Y399256D01*
X333017Y399347D01*
X333041Y399440D01*
X333061Y399534D01*
X333078Y399628D01*
X333090Y399723D01*
X333100Y399818D01*
X333105Y399913D01*
X333107Y400009D01*
X332337Y398213D02*
X327974Y393081D01*
X333107Y393081D01*
X336588Y392055D02*
X340693Y392055D01*
X344174Y400266D02*
X346740Y402319D01*
X346740Y393081D01*
X344174Y393081D02*
X349307Y393081D01*
X261531Y393081D02*
X261531Y402319D01*
X264097Y402319D01*
X264196Y402317D01*
X264296Y402311D01*
X264395Y402302D01*
X264493Y402288D01*
X264591Y402271D01*
X264689Y402250D01*
X264785Y402225D01*
X264880Y402196D01*
X264975Y402164D01*
X265067Y402128D01*
X265159Y402089D01*
X265249Y402046D01*
X265337Y402000D01*
X265423Y401950D01*
X265507Y401897D01*
X265589Y401841D01*
X265669Y401781D01*
X265746Y401719D01*
X265821Y401653D01*
X265894Y401585D01*
X265963Y401514D01*
X266030Y401440D01*
X266094Y401364D01*
X266155Y401285D01*
X266213Y401204D01*
X266268Y401121D01*
X266319Y401036D01*
X266367Y400949D01*
X266412Y400860D01*
X266453Y400769D01*
X266491Y400677D01*
X266525Y400584D01*
X266555Y400489D01*
X266582Y400393D01*
X266605Y400296D01*
X266624Y400199D01*
X266639Y400100D01*
X266651Y400001D01*
X266659Y399902D01*
X266663Y399803D01*
X266663Y399703D01*
X266659Y399604D01*
X266651Y399505D01*
X266639Y399406D01*
X266624Y399307D01*
X266605Y399210D01*
X266582Y399113D01*
X266555Y399017D01*
X266525Y398922D01*
X266491Y398829D01*
X266453Y398737D01*
X266412Y398646D01*
X266367Y398557D01*
X266319Y398470D01*
X266268Y398385D01*
X266213Y398302D01*
X266155Y398221D01*
X266094Y398142D01*
X266030Y398066D01*
X265963Y397992D01*
X265894Y397921D01*
X265821Y397853D01*
X265746Y397787D01*
X265669Y397725D01*
X265589Y397665D01*
X265507Y397609D01*
X265423Y397556D01*
X265337Y397506D01*
X265249Y397460D01*
X265159Y397417D01*
X265067Y397378D01*
X264975Y397342D01*
X264880Y397310D01*
X264785Y397281D01*
X264689Y397256D01*
X264591Y397235D01*
X264493Y397218D01*
X264395Y397204D01*
X264296Y397195D01*
X264196Y397189D01*
X264097Y397187D01*
X261531Y397187D01*
X264610Y397187D02*
X266663Y393081D01*
X275607Y400009D02*
X275605Y400102D01*
X275600Y400195D01*
X275590Y400287D01*
X275577Y400380D01*
X275560Y400471D01*
X275540Y400562D01*
X275516Y400652D01*
X275488Y400741D01*
X275457Y400828D01*
X275422Y400914D01*
X275384Y400999D01*
X275342Y401083D01*
X275298Y401164D01*
X275249Y401244D01*
X275198Y401321D01*
X275144Y401397D01*
X275086Y401470D01*
X275026Y401541D01*
X274963Y401609D01*
X274897Y401675D01*
X274829Y401738D01*
X274758Y401798D01*
X274685Y401856D01*
X274609Y401910D01*
X274532Y401961D01*
X274452Y402010D01*
X274371Y402054D01*
X274287Y402096D01*
X274202Y402134D01*
X274116Y402169D01*
X274029Y402200D01*
X273940Y402228D01*
X273850Y402252D01*
X273759Y402272D01*
X273668Y402289D01*
X273575Y402302D01*
X273483Y402312D01*
X273390Y402317D01*
X273297Y402319D01*
X273190Y402317D01*
X273084Y402311D01*
X272978Y402302D01*
X272872Y402288D01*
X272767Y402271D01*
X272662Y402250D01*
X272559Y402226D01*
X272456Y402197D01*
X272354Y402165D01*
X272254Y402130D01*
X272155Y402090D01*
X272057Y402047D01*
X271961Y402001D01*
X271867Y401951D01*
X271774Y401898D01*
X271684Y401842D01*
X271595Y401782D01*
X271509Y401720D01*
X271425Y401654D01*
X271344Y401585D01*
X271265Y401514D01*
X271188Y401439D01*
X271115Y401362D01*
X271044Y401283D01*
X270976Y401200D01*
X270911Y401116D01*
X270849Y401029D01*
X270791Y400940D01*
X270735Y400849D01*
X270683Y400756D01*
X270634Y400661D01*
X270589Y400565D01*
X270547Y400466D01*
X270509Y400367D01*
X270474Y400266D01*
X274837Y398212D02*
X274905Y398280D01*
X274970Y398350D01*
X275033Y398422D01*
X275093Y398497D01*
X275150Y398574D01*
X275203Y398653D01*
X275254Y398734D01*
X275302Y398817D01*
X275346Y398901D01*
X275387Y398988D01*
X275425Y399076D01*
X275459Y399165D01*
X275490Y399256D01*
X275517Y399347D01*
X275541Y399440D01*
X275561Y399534D01*
X275578Y399628D01*
X275590Y399723D01*
X275600Y399818D01*
X275605Y399913D01*
X275607Y400009D01*
X274837Y398213D02*
X270474Y393081D01*
X275607Y393081D01*
X279088Y392055D02*
X283193Y392055D01*
X291807Y400009D02*
X291805Y400102D01*
X291800Y400195D01*
X291790Y400287D01*
X291777Y400380D01*
X291760Y400471D01*
X291740Y400562D01*
X291716Y400652D01*
X291688Y400741D01*
X291657Y400828D01*
X291622Y400914D01*
X291584Y400999D01*
X291542Y401083D01*
X291498Y401164D01*
X291449Y401244D01*
X291398Y401321D01*
X291344Y401397D01*
X291286Y401470D01*
X291226Y401541D01*
X291163Y401609D01*
X291097Y401675D01*
X291029Y401738D01*
X290958Y401798D01*
X290885Y401856D01*
X290809Y401910D01*
X290732Y401961D01*
X290652Y402010D01*
X290571Y402054D01*
X290487Y402096D01*
X290402Y402134D01*
X290316Y402169D01*
X290229Y402200D01*
X290140Y402228D01*
X290050Y402252D01*
X289959Y402272D01*
X289868Y402289D01*
X289775Y402302D01*
X289683Y402312D01*
X289590Y402317D01*
X289497Y402319D01*
X289390Y402317D01*
X289284Y402311D01*
X289178Y402302D01*
X289072Y402288D01*
X288967Y402271D01*
X288862Y402250D01*
X288759Y402226D01*
X288656Y402197D01*
X288554Y402165D01*
X288454Y402130D01*
X288355Y402090D01*
X288257Y402047D01*
X288161Y402001D01*
X288067Y401951D01*
X287974Y401898D01*
X287884Y401842D01*
X287795Y401782D01*
X287709Y401720D01*
X287625Y401654D01*
X287544Y401585D01*
X287465Y401514D01*
X287388Y401439D01*
X287315Y401362D01*
X287244Y401283D01*
X287176Y401200D01*
X287111Y401116D01*
X287049Y401029D01*
X286991Y400940D01*
X286935Y400849D01*
X286883Y400756D01*
X286834Y400661D01*
X286789Y400565D01*
X286747Y400466D01*
X286709Y400367D01*
X286674Y400266D01*
X291037Y398212D02*
X291105Y398280D01*
X291170Y398350D01*
X291233Y398422D01*
X291293Y398497D01*
X291350Y398574D01*
X291403Y398653D01*
X291454Y398734D01*
X291502Y398817D01*
X291546Y398901D01*
X291587Y398988D01*
X291625Y399076D01*
X291659Y399165D01*
X291690Y399256D01*
X291717Y399347D01*
X291741Y399440D01*
X291761Y399534D01*
X291778Y399628D01*
X291790Y399723D01*
X291800Y399818D01*
X291805Y399913D01*
X291807Y400009D01*
X291037Y398213D02*
X286674Y393081D01*
X291807Y393081D01*
X304031Y142319D02*
X304031Y133081D01*
X304031Y142319D02*
X306597Y142319D01*
X306696Y142317D01*
X306796Y142311D01*
X306895Y142302D01*
X306993Y142288D01*
X307091Y142271D01*
X307189Y142250D01*
X307285Y142225D01*
X307380Y142196D01*
X307475Y142164D01*
X307567Y142128D01*
X307659Y142089D01*
X307749Y142046D01*
X307837Y142000D01*
X307923Y141950D01*
X308007Y141897D01*
X308089Y141841D01*
X308169Y141781D01*
X308246Y141719D01*
X308321Y141653D01*
X308394Y141585D01*
X308463Y141514D01*
X308530Y141440D01*
X308594Y141364D01*
X308655Y141285D01*
X308713Y141204D01*
X308768Y141121D01*
X308819Y141036D01*
X308867Y140949D01*
X308912Y140860D01*
X308953Y140769D01*
X308991Y140677D01*
X309025Y140584D01*
X309055Y140489D01*
X309082Y140393D01*
X309105Y140296D01*
X309124Y140199D01*
X309139Y140100D01*
X309151Y140001D01*
X309159Y139902D01*
X309163Y139803D01*
X309163Y139703D01*
X309159Y139604D01*
X309151Y139505D01*
X309139Y139406D01*
X309124Y139307D01*
X309105Y139210D01*
X309082Y139113D01*
X309055Y139017D01*
X309025Y138922D01*
X308991Y138829D01*
X308953Y138737D01*
X308912Y138646D01*
X308867Y138557D01*
X308819Y138470D01*
X308768Y138385D01*
X308713Y138302D01*
X308655Y138221D01*
X308594Y138142D01*
X308530Y138066D01*
X308463Y137992D01*
X308394Y137921D01*
X308321Y137853D01*
X308246Y137787D01*
X308169Y137725D01*
X308089Y137665D01*
X308007Y137609D01*
X307923Y137556D01*
X307837Y137506D01*
X307749Y137460D01*
X307659Y137417D01*
X307567Y137378D01*
X307475Y137342D01*
X307380Y137310D01*
X307285Y137281D01*
X307189Y137256D01*
X307091Y137235D01*
X306993Y137218D01*
X306895Y137204D01*
X306796Y137195D01*
X306696Y137189D01*
X306597Y137187D01*
X304031Y137187D01*
X307110Y137187D02*
X309163Y133081D01*
X312974Y133081D02*
X315540Y133081D01*
X315639Y133083D01*
X315739Y133089D01*
X315838Y133098D01*
X315936Y133112D01*
X316034Y133129D01*
X316132Y133150D01*
X316228Y133175D01*
X316323Y133204D01*
X316418Y133236D01*
X316510Y133272D01*
X316602Y133311D01*
X316692Y133354D01*
X316780Y133400D01*
X316866Y133450D01*
X316950Y133503D01*
X317032Y133559D01*
X317112Y133619D01*
X317189Y133681D01*
X317264Y133747D01*
X317337Y133815D01*
X317406Y133886D01*
X317473Y133960D01*
X317537Y134036D01*
X317598Y134115D01*
X317656Y134196D01*
X317711Y134279D01*
X317762Y134364D01*
X317810Y134451D01*
X317855Y134540D01*
X317896Y134631D01*
X317934Y134723D01*
X317968Y134816D01*
X317998Y134911D01*
X318025Y135007D01*
X318048Y135104D01*
X318067Y135201D01*
X318082Y135300D01*
X318094Y135399D01*
X318102Y135498D01*
X318106Y135597D01*
X318106Y135697D01*
X318102Y135796D01*
X318094Y135895D01*
X318082Y135994D01*
X318067Y136093D01*
X318048Y136190D01*
X318025Y136287D01*
X317998Y136383D01*
X317968Y136478D01*
X317934Y136571D01*
X317896Y136663D01*
X317855Y136754D01*
X317810Y136843D01*
X317762Y136930D01*
X317711Y137015D01*
X317656Y137098D01*
X317598Y137179D01*
X317537Y137258D01*
X317473Y137334D01*
X317406Y137408D01*
X317337Y137479D01*
X317264Y137547D01*
X317189Y137613D01*
X317112Y137675D01*
X317032Y137735D01*
X316950Y137791D01*
X316866Y137844D01*
X316780Y137894D01*
X316692Y137940D01*
X316602Y137983D01*
X316510Y138022D01*
X316418Y138058D01*
X316323Y138090D01*
X316228Y138119D01*
X316132Y138144D01*
X316034Y138165D01*
X315936Y138182D01*
X315838Y138196D01*
X315739Y138205D01*
X315639Y138211D01*
X315540Y138213D01*
X316054Y142319D02*
X312974Y142319D01*
X316054Y142319D02*
X316144Y142317D01*
X316233Y142311D01*
X316322Y142301D01*
X316410Y142288D01*
X316498Y142270D01*
X316585Y142249D01*
X316671Y142224D01*
X316756Y142195D01*
X316840Y142163D01*
X316922Y142127D01*
X317002Y142087D01*
X317081Y142044D01*
X317157Y141997D01*
X317232Y141948D01*
X317304Y141895D01*
X317374Y141839D01*
X317441Y141780D01*
X317506Y141718D01*
X317568Y141653D01*
X317627Y141586D01*
X317683Y141516D01*
X317736Y141444D01*
X317785Y141369D01*
X317832Y141293D01*
X317875Y141214D01*
X317915Y141134D01*
X317951Y141052D01*
X317983Y140968D01*
X318012Y140883D01*
X318037Y140797D01*
X318058Y140710D01*
X318076Y140622D01*
X318089Y140534D01*
X318099Y140445D01*
X318105Y140356D01*
X318107Y140266D01*
X318105Y140176D01*
X318099Y140087D01*
X318089Y139998D01*
X318076Y139910D01*
X318058Y139822D01*
X318037Y139735D01*
X318012Y139649D01*
X317983Y139564D01*
X317951Y139480D01*
X317915Y139398D01*
X317875Y139318D01*
X317832Y139240D01*
X317785Y139163D01*
X317736Y139088D01*
X317683Y139016D01*
X317627Y138946D01*
X317568Y138879D01*
X317506Y138814D01*
X317441Y138752D01*
X317374Y138693D01*
X317304Y138637D01*
X317232Y138584D01*
X317157Y138535D01*
X317081Y138488D01*
X317002Y138445D01*
X316922Y138405D01*
X316840Y138369D01*
X316756Y138337D01*
X316671Y138308D01*
X316585Y138283D01*
X316498Y138262D01*
X316410Y138244D01*
X316322Y138231D01*
X316233Y138221D01*
X316144Y138215D01*
X316054Y138213D01*
X314001Y138213D01*
X391531Y393081D02*
X391531Y402319D01*
X394097Y402319D01*
X394196Y402317D01*
X394296Y402311D01*
X394395Y402302D01*
X394493Y402288D01*
X394591Y402271D01*
X394689Y402250D01*
X394785Y402225D01*
X394880Y402196D01*
X394975Y402164D01*
X395067Y402128D01*
X395159Y402089D01*
X395249Y402046D01*
X395337Y402000D01*
X395423Y401950D01*
X395507Y401897D01*
X395589Y401841D01*
X395669Y401781D01*
X395746Y401719D01*
X395821Y401653D01*
X395894Y401585D01*
X395963Y401514D01*
X396030Y401440D01*
X396094Y401364D01*
X396155Y401285D01*
X396213Y401204D01*
X396268Y401121D01*
X396319Y401036D01*
X396367Y400949D01*
X396412Y400860D01*
X396453Y400769D01*
X396491Y400677D01*
X396525Y400584D01*
X396555Y400489D01*
X396582Y400393D01*
X396605Y400296D01*
X396624Y400199D01*
X396639Y400100D01*
X396651Y400001D01*
X396659Y399902D01*
X396663Y399803D01*
X396663Y399703D01*
X396659Y399604D01*
X396651Y399505D01*
X396639Y399406D01*
X396624Y399307D01*
X396605Y399210D01*
X396582Y399113D01*
X396555Y399017D01*
X396525Y398922D01*
X396491Y398829D01*
X396453Y398737D01*
X396412Y398646D01*
X396367Y398557D01*
X396319Y398470D01*
X396268Y398385D01*
X396213Y398302D01*
X396155Y398221D01*
X396094Y398142D01*
X396030Y398066D01*
X395963Y397992D01*
X395894Y397921D01*
X395821Y397853D01*
X395746Y397787D01*
X395669Y397725D01*
X395589Y397665D01*
X395507Y397609D01*
X395423Y397556D01*
X395337Y397506D01*
X395249Y397460D01*
X395159Y397417D01*
X395067Y397378D01*
X394975Y397342D01*
X394880Y397310D01*
X394785Y397281D01*
X394689Y397256D01*
X394591Y397235D01*
X394493Y397218D01*
X394395Y397204D01*
X394296Y397195D01*
X394196Y397189D01*
X394097Y397187D01*
X391531Y397187D01*
X394610Y397187D02*
X396663Y393081D01*
X400474Y395134D02*
X402527Y402319D01*
X400474Y395134D02*
X405607Y395134D01*
X404067Y397187D02*
X404067Y393081D01*
X409088Y392055D02*
X413193Y392055D01*
X416674Y400266D02*
X419240Y402319D01*
X419240Y393081D01*
X416674Y393081D02*
X421807Y393081D01*
X330281Y469331D02*
X330281Y478569D01*
X332847Y478569D01*
X332946Y478567D01*
X333046Y478561D01*
X333145Y478552D01*
X333243Y478538D01*
X333341Y478521D01*
X333439Y478500D01*
X333535Y478475D01*
X333630Y478446D01*
X333725Y478414D01*
X333817Y478378D01*
X333909Y478339D01*
X333999Y478296D01*
X334087Y478250D01*
X334173Y478200D01*
X334257Y478147D01*
X334339Y478091D01*
X334419Y478031D01*
X334496Y477969D01*
X334571Y477903D01*
X334644Y477835D01*
X334713Y477764D01*
X334780Y477690D01*
X334844Y477614D01*
X334905Y477535D01*
X334963Y477454D01*
X335018Y477371D01*
X335069Y477286D01*
X335117Y477199D01*
X335162Y477110D01*
X335203Y477019D01*
X335241Y476927D01*
X335275Y476834D01*
X335305Y476739D01*
X335332Y476643D01*
X335355Y476546D01*
X335374Y476449D01*
X335389Y476350D01*
X335401Y476251D01*
X335409Y476152D01*
X335413Y476053D01*
X335413Y475953D01*
X335409Y475854D01*
X335401Y475755D01*
X335389Y475656D01*
X335374Y475557D01*
X335355Y475460D01*
X335332Y475363D01*
X335305Y475267D01*
X335275Y475172D01*
X335241Y475079D01*
X335203Y474987D01*
X335162Y474896D01*
X335117Y474807D01*
X335069Y474720D01*
X335018Y474635D01*
X334963Y474552D01*
X334905Y474471D01*
X334844Y474392D01*
X334780Y474316D01*
X334713Y474242D01*
X334644Y474171D01*
X334571Y474103D01*
X334496Y474037D01*
X334419Y473975D01*
X334339Y473915D01*
X334257Y473859D01*
X334173Y473806D01*
X334087Y473756D01*
X333999Y473710D01*
X333909Y473667D01*
X333817Y473628D01*
X333725Y473592D01*
X333630Y473560D01*
X333535Y473531D01*
X333439Y473506D01*
X333341Y473485D01*
X333243Y473468D01*
X333145Y473454D01*
X333046Y473445D01*
X332946Y473439D01*
X332847Y473437D01*
X330281Y473437D01*
X333360Y473437D02*
X335413Y469331D01*
X339224Y471384D02*
X341277Y478569D01*
X339224Y471384D02*
X344357Y471384D01*
X342817Y473437D02*
X342817Y469331D01*
X347838Y468305D02*
X351943Y468305D01*
X360557Y476259D02*
X360555Y476352D01*
X360550Y476445D01*
X360540Y476537D01*
X360527Y476630D01*
X360510Y476721D01*
X360490Y476812D01*
X360466Y476902D01*
X360438Y476991D01*
X360407Y477078D01*
X360372Y477164D01*
X360334Y477249D01*
X360292Y477333D01*
X360248Y477414D01*
X360199Y477494D01*
X360148Y477571D01*
X360094Y477647D01*
X360036Y477720D01*
X359976Y477791D01*
X359913Y477859D01*
X359847Y477925D01*
X359779Y477988D01*
X359708Y478048D01*
X359635Y478106D01*
X359559Y478160D01*
X359482Y478211D01*
X359402Y478260D01*
X359321Y478304D01*
X359237Y478346D01*
X359152Y478384D01*
X359066Y478419D01*
X358979Y478450D01*
X358890Y478478D01*
X358800Y478502D01*
X358709Y478522D01*
X358618Y478539D01*
X358525Y478552D01*
X358433Y478562D01*
X358340Y478567D01*
X358247Y478569D01*
X358140Y478567D01*
X358034Y478561D01*
X357928Y478552D01*
X357822Y478538D01*
X357717Y478521D01*
X357612Y478500D01*
X357509Y478476D01*
X357406Y478447D01*
X357304Y478415D01*
X357204Y478380D01*
X357105Y478340D01*
X357007Y478297D01*
X356911Y478251D01*
X356817Y478201D01*
X356724Y478148D01*
X356634Y478092D01*
X356545Y478032D01*
X356459Y477970D01*
X356375Y477904D01*
X356294Y477835D01*
X356215Y477764D01*
X356138Y477689D01*
X356065Y477612D01*
X355994Y477533D01*
X355926Y477450D01*
X355861Y477366D01*
X355799Y477279D01*
X355741Y477190D01*
X355685Y477099D01*
X355633Y477006D01*
X355584Y476911D01*
X355539Y476815D01*
X355497Y476716D01*
X355459Y476617D01*
X355424Y476516D01*
X359787Y474462D02*
X359855Y474530D01*
X359920Y474600D01*
X359983Y474672D01*
X360043Y474747D01*
X360100Y474824D01*
X360153Y474903D01*
X360204Y474984D01*
X360252Y475067D01*
X360296Y475151D01*
X360337Y475238D01*
X360375Y475326D01*
X360409Y475415D01*
X360440Y475506D01*
X360467Y475597D01*
X360491Y475690D01*
X360511Y475784D01*
X360528Y475878D01*
X360540Y475973D01*
X360550Y476068D01*
X360555Y476163D01*
X360557Y476259D01*
X359787Y474463D02*
X355424Y469331D01*
X360557Y469331D01*
X124031Y72319D02*
X124031Y63081D01*
X124031Y72319D02*
X126597Y72319D01*
X126696Y72317D01*
X126796Y72311D01*
X126895Y72302D01*
X126993Y72288D01*
X127091Y72271D01*
X127189Y72250D01*
X127285Y72225D01*
X127380Y72196D01*
X127475Y72164D01*
X127567Y72128D01*
X127659Y72089D01*
X127749Y72046D01*
X127837Y72000D01*
X127923Y71950D01*
X128007Y71897D01*
X128089Y71841D01*
X128169Y71781D01*
X128246Y71719D01*
X128321Y71653D01*
X128394Y71585D01*
X128463Y71514D01*
X128530Y71440D01*
X128594Y71364D01*
X128655Y71285D01*
X128713Y71204D01*
X128768Y71121D01*
X128819Y71036D01*
X128867Y70949D01*
X128912Y70860D01*
X128953Y70769D01*
X128991Y70677D01*
X129025Y70584D01*
X129055Y70489D01*
X129082Y70393D01*
X129105Y70296D01*
X129124Y70199D01*
X129139Y70100D01*
X129151Y70001D01*
X129159Y69902D01*
X129163Y69803D01*
X129163Y69703D01*
X129159Y69604D01*
X129151Y69505D01*
X129139Y69406D01*
X129124Y69307D01*
X129105Y69210D01*
X129082Y69113D01*
X129055Y69017D01*
X129025Y68922D01*
X128991Y68829D01*
X128953Y68737D01*
X128912Y68646D01*
X128867Y68557D01*
X128819Y68470D01*
X128768Y68385D01*
X128713Y68302D01*
X128655Y68221D01*
X128594Y68142D01*
X128530Y68066D01*
X128463Y67992D01*
X128394Y67921D01*
X128321Y67853D01*
X128246Y67787D01*
X128169Y67725D01*
X128089Y67665D01*
X128007Y67609D01*
X127923Y67556D01*
X127837Y67506D01*
X127749Y67460D01*
X127659Y67417D01*
X127567Y67378D01*
X127475Y67342D01*
X127380Y67310D01*
X127285Y67281D01*
X127189Y67256D01*
X127091Y67235D01*
X126993Y67218D01*
X126895Y67204D01*
X126796Y67195D01*
X126696Y67189D01*
X126597Y67187D01*
X124031Y67187D01*
X127110Y67187D02*
X129163Y63081D01*
X132974Y63081D02*
X136054Y63081D01*
X136144Y63083D01*
X136233Y63089D01*
X136322Y63099D01*
X136410Y63112D01*
X136498Y63130D01*
X136585Y63151D01*
X136671Y63176D01*
X136756Y63205D01*
X136840Y63237D01*
X136922Y63273D01*
X137002Y63313D01*
X137080Y63356D01*
X137157Y63403D01*
X137232Y63452D01*
X137304Y63505D01*
X137374Y63561D01*
X137441Y63620D01*
X137506Y63682D01*
X137568Y63747D01*
X137627Y63814D01*
X137683Y63884D01*
X137736Y63956D01*
X137785Y64031D01*
X137832Y64107D01*
X137875Y64186D01*
X137915Y64266D01*
X137951Y64348D01*
X137983Y64432D01*
X138012Y64517D01*
X138037Y64603D01*
X138058Y64690D01*
X138076Y64777D01*
X138089Y64866D01*
X138099Y64955D01*
X138105Y65044D01*
X138107Y65134D01*
X138107Y66160D01*
X138105Y66250D01*
X138099Y66339D01*
X138089Y66428D01*
X138076Y66516D01*
X138058Y66604D01*
X138037Y66691D01*
X138012Y66777D01*
X137983Y66862D01*
X137951Y66946D01*
X137915Y67028D01*
X137875Y67108D01*
X137832Y67187D01*
X137785Y67263D01*
X137736Y67338D01*
X137683Y67410D01*
X137627Y67480D01*
X137568Y67547D01*
X137506Y67612D01*
X137441Y67674D01*
X137374Y67733D01*
X137304Y67789D01*
X137232Y67842D01*
X137157Y67891D01*
X137081Y67938D01*
X137002Y67981D01*
X136922Y68021D01*
X136840Y68057D01*
X136756Y68089D01*
X136671Y68118D01*
X136585Y68143D01*
X136498Y68164D01*
X136410Y68182D01*
X136322Y68195D01*
X136233Y68205D01*
X136144Y68211D01*
X136054Y68213D01*
X132974Y68213D01*
X132974Y72319D01*
X138107Y72319D01*
X141588Y62055D02*
X145693Y62055D01*
X149174Y70266D02*
X151740Y72319D01*
X151740Y63081D01*
X149174Y63081D02*
X154307Y63081D01*
X179031Y133081D02*
X179031Y142319D01*
X181597Y142319D01*
X181696Y142317D01*
X181796Y142311D01*
X181895Y142302D01*
X181993Y142288D01*
X182091Y142271D01*
X182189Y142250D01*
X182285Y142225D01*
X182380Y142196D01*
X182475Y142164D01*
X182567Y142128D01*
X182659Y142089D01*
X182749Y142046D01*
X182837Y142000D01*
X182923Y141950D01*
X183007Y141897D01*
X183089Y141841D01*
X183169Y141781D01*
X183246Y141719D01*
X183321Y141653D01*
X183394Y141585D01*
X183463Y141514D01*
X183530Y141440D01*
X183594Y141364D01*
X183655Y141285D01*
X183713Y141204D01*
X183768Y141121D01*
X183819Y141036D01*
X183867Y140949D01*
X183912Y140860D01*
X183953Y140769D01*
X183991Y140677D01*
X184025Y140584D01*
X184055Y140489D01*
X184082Y140393D01*
X184105Y140296D01*
X184124Y140199D01*
X184139Y140100D01*
X184151Y140001D01*
X184159Y139902D01*
X184163Y139803D01*
X184163Y139703D01*
X184159Y139604D01*
X184151Y139505D01*
X184139Y139406D01*
X184124Y139307D01*
X184105Y139210D01*
X184082Y139113D01*
X184055Y139017D01*
X184025Y138922D01*
X183991Y138829D01*
X183953Y138737D01*
X183912Y138646D01*
X183867Y138557D01*
X183819Y138470D01*
X183768Y138385D01*
X183713Y138302D01*
X183655Y138221D01*
X183594Y138142D01*
X183530Y138066D01*
X183463Y137992D01*
X183394Y137921D01*
X183321Y137853D01*
X183246Y137787D01*
X183169Y137725D01*
X183089Y137665D01*
X183007Y137609D01*
X182923Y137556D01*
X182837Y137506D01*
X182749Y137460D01*
X182659Y137417D01*
X182567Y137378D01*
X182475Y137342D01*
X182380Y137310D01*
X182285Y137281D01*
X182189Y137256D01*
X182091Y137235D01*
X181993Y137218D01*
X181895Y137204D01*
X181796Y137195D01*
X181696Y137189D01*
X181597Y137187D01*
X179031Y137187D01*
X182110Y137187D02*
X184163Y133081D01*
X187974Y133081D02*
X191054Y133081D01*
X191144Y133083D01*
X191233Y133089D01*
X191322Y133099D01*
X191410Y133112D01*
X191498Y133130D01*
X191585Y133151D01*
X191671Y133176D01*
X191756Y133205D01*
X191840Y133237D01*
X191922Y133273D01*
X192002Y133313D01*
X192080Y133356D01*
X192157Y133403D01*
X192232Y133452D01*
X192304Y133505D01*
X192374Y133561D01*
X192441Y133620D01*
X192506Y133682D01*
X192568Y133747D01*
X192627Y133814D01*
X192683Y133884D01*
X192736Y133956D01*
X192785Y134031D01*
X192832Y134107D01*
X192875Y134186D01*
X192915Y134266D01*
X192951Y134348D01*
X192983Y134432D01*
X193012Y134517D01*
X193037Y134603D01*
X193058Y134690D01*
X193076Y134777D01*
X193089Y134866D01*
X193099Y134955D01*
X193105Y135044D01*
X193107Y135134D01*
X193107Y136160D01*
X193105Y136250D01*
X193099Y136339D01*
X193089Y136428D01*
X193076Y136516D01*
X193058Y136604D01*
X193037Y136691D01*
X193012Y136777D01*
X192983Y136862D01*
X192951Y136946D01*
X192915Y137028D01*
X192875Y137108D01*
X192832Y137187D01*
X192785Y137263D01*
X192736Y137338D01*
X192683Y137410D01*
X192627Y137480D01*
X192568Y137547D01*
X192506Y137612D01*
X192441Y137674D01*
X192374Y137733D01*
X192304Y137789D01*
X192232Y137842D01*
X192157Y137891D01*
X192081Y137938D01*
X192002Y137981D01*
X191922Y138021D01*
X191840Y138057D01*
X191756Y138089D01*
X191671Y138118D01*
X191585Y138143D01*
X191498Y138164D01*
X191410Y138182D01*
X191322Y138195D01*
X191233Y138205D01*
X191144Y138211D01*
X191054Y138213D01*
X187974Y138213D01*
X187974Y142319D01*
X193107Y142319D01*
X196588Y132055D02*
X200693Y132055D01*
X209307Y140009D02*
X209305Y140102D01*
X209300Y140195D01*
X209290Y140287D01*
X209277Y140380D01*
X209260Y140471D01*
X209240Y140562D01*
X209216Y140652D01*
X209188Y140741D01*
X209157Y140828D01*
X209122Y140914D01*
X209084Y140999D01*
X209042Y141083D01*
X208998Y141164D01*
X208949Y141244D01*
X208898Y141321D01*
X208844Y141397D01*
X208786Y141470D01*
X208726Y141541D01*
X208663Y141609D01*
X208597Y141675D01*
X208529Y141738D01*
X208458Y141798D01*
X208385Y141856D01*
X208309Y141910D01*
X208232Y141961D01*
X208152Y142010D01*
X208071Y142054D01*
X207987Y142096D01*
X207902Y142134D01*
X207816Y142169D01*
X207729Y142200D01*
X207640Y142228D01*
X207550Y142252D01*
X207459Y142272D01*
X207368Y142289D01*
X207275Y142302D01*
X207183Y142312D01*
X207090Y142317D01*
X206997Y142319D01*
X206890Y142317D01*
X206784Y142311D01*
X206678Y142302D01*
X206572Y142288D01*
X206467Y142271D01*
X206362Y142250D01*
X206259Y142226D01*
X206156Y142197D01*
X206054Y142165D01*
X205954Y142130D01*
X205855Y142090D01*
X205757Y142047D01*
X205661Y142001D01*
X205567Y141951D01*
X205474Y141898D01*
X205384Y141842D01*
X205295Y141782D01*
X205209Y141720D01*
X205125Y141654D01*
X205044Y141585D01*
X204965Y141514D01*
X204888Y141439D01*
X204815Y141362D01*
X204744Y141283D01*
X204676Y141200D01*
X204611Y141116D01*
X204549Y141029D01*
X204491Y140940D01*
X204435Y140849D01*
X204383Y140756D01*
X204334Y140661D01*
X204289Y140565D01*
X204247Y140466D01*
X204209Y140367D01*
X204174Y140266D01*
X208537Y138212D02*
X208605Y138280D01*
X208670Y138350D01*
X208733Y138422D01*
X208793Y138497D01*
X208850Y138574D01*
X208903Y138653D01*
X208954Y138734D01*
X209002Y138817D01*
X209046Y138901D01*
X209087Y138988D01*
X209125Y139076D01*
X209159Y139165D01*
X209190Y139256D01*
X209217Y139347D01*
X209241Y139440D01*
X209261Y139534D01*
X209278Y139628D01*
X209290Y139723D01*
X209300Y139818D01*
X209305Y139913D01*
X209307Y140009D01*
X208537Y138213D02*
X204174Y133081D01*
X209307Y133081D01*
X452781Y53729D02*
X452781Y44331D01*
X452781Y53729D02*
X455392Y53729D01*
X455493Y53727D01*
X455594Y53721D01*
X455695Y53711D01*
X455795Y53698D01*
X455895Y53680D01*
X455994Y53659D01*
X456092Y53633D01*
X456189Y53604D01*
X456285Y53572D01*
X456379Y53535D01*
X456472Y53495D01*
X456564Y53451D01*
X456653Y53404D01*
X456741Y53353D01*
X456827Y53299D01*
X456910Y53242D01*
X456992Y53182D01*
X457070Y53118D01*
X457147Y53052D01*
X457220Y52982D01*
X457291Y52910D01*
X457359Y52835D01*
X457424Y52757D01*
X457486Y52677D01*
X457545Y52595D01*
X457601Y52510D01*
X457653Y52423D01*
X457702Y52335D01*
X457748Y52244D01*
X457789Y52152D01*
X457828Y52058D01*
X457862Y51963D01*
X457893Y51867D01*
X457920Y51769D01*
X457944Y51671D01*
X457963Y51571D01*
X457979Y51471D01*
X457991Y51371D01*
X457999Y51270D01*
X458003Y51169D01*
X458003Y51067D01*
X457999Y50966D01*
X457991Y50865D01*
X457979Y50765D01*
X457963Y50665D01*
X457944Y50565D01*
X457920Y50467D01*
X457893Y50369D01*
X457862Y50273D01*
X457828Y50178D01*
X457789Y50084D01*
X457748Y49992D01*
X457702Y49901D01*
X457653Y49812D01*
X457601Y49726D01*
X457545Y49641D01*
X457486Y49559D01*
X457424Y49479D01*
X457359Y49401D01*
X457291Y49326D01*
X457220Y49254D01*
X457147Y49184D01*
X457070Y49118D01*
X456992Y49054D01*
X456910Y48994D01*
X456827Y48937D01*
X456741Y48883D01*
X456653Y48832D01*
X456564Y48785D01*
X456472Y48741D01*
X456379Y48701D01*
X456285Y48664D01*
X456189Y48632D01*
X456092Y48603D01*
X455994Y48577D01*
X455895Y48556D01*
X455795Y48538D01*
X455695Y48525D01*
X455594Y48515D01*
X455493Y48509D01*
X455392Y48507D01*
X455392Y48508D02*
X452781Y48508D01*
X455914Y48508D02*
X458002Y44331D01*
X461868Y49552D02*
X465001Y49552D01*
X465090Y49550D01*
X465178Y49544D01*
X465266Y49535D01*
X465354Y49522D01*
X465441Y49505D01*
X465527Y49485D01*
X465612Y49460D01*
X465697Y49433D01*
X465780Y49401D01*
X465861Y49367D01*
X465941Y49328D01*
X466019Y49287D01*
X466096Y49242D01*
X466170Y49194D01*
X466243Y49143D01*
X466313Y49089D01*
X466380Y49031D01*
X466446Y48971D01*
X466508Y48909D01*
X466568Y48843D01*
X466626Y48776D01*
X466680Y48706D01*
X466731Y48633D01*
X466779Y48559D01*
X466824Y48482D01*
X466865Y48404D01*
X466904Y48324D01*
X466938Y48243D01*
X466970Y48160D01*
X466997Y48075D01*
X467022Y47990D01*
X467042Y47904D01*
X467059Y47817D01*
X467072Y47729D01*
X467081Y47641D01*
X467087Y47553D01*
X467089Y47464D01*
X467089Y46942D01*
X467087Y46841D01*
X467081Y46740D01*
X467071Y46639D01*
X467058Y46539D01*
X467040Y46439D01*
X467019Y46340D01*
X466993Y46242D01*
X466964Y46145D01*
X466932Y46049D01*
X466895Y45955D01*
X466855Y45862D01*
X466811Y45770D01*
X466764Y45681D01*
X466713Y45593D01*
X466659Y45507D01*
X466602Y45424D01*
X466542Y45342D01*
X466478Y45264D01*
X466412Y45187D01*
X466342Y45114D01*
X466270Y45043D01*
X466195Y44975D01*
X466117Y44910D01*
X466037Y44848D01*
X465955Y44789D01*
X465870Y44733D01*
X465783Y44681D01*
X465695Y44632D01*
X465604Y44586D01*
X465512Y44545D01*
X465418Y44506D01*
X465323Y44472D01*
X465227Y44441D01*
X465129Y44414D01*
X465031Y44390D01*
X464931Y44371D01*
X464831Y44355D01*
X464731Y44343D01*
X464630Y44335D01*
X464529Y44331D01*
X464427Y44331D01*
X464326Y44335D01*
X464225Y44343D01*
X464125Y44355D01*
X464025Y44371D01*
X463925Y44390D01*
X463827Y44414D01*
X463729Y44441D01*
X463633Y44472D01*
X463538Y44506D01*
X463444Y44545D01*
X463352Y44586D01*
X463261Y44632D01*
X463173Y44681D01*
X463086Y44733D01*
X463001Y44789D01*
X462919Y44848D01*
X462839Y44910D01*
X462761Y44975D01*
X462686Y45043D01*
X462614Y45114D01*
X462544Y45187D01*
X462478Y45264D01*
X462414Y45342D01*
X462354Y45424D01*
X462297Y45507D01*
X462243Y45593D01*
X462192Y45681D01*
X462145Y45770D01*
X462101Y45862D01*
X462061Y45955D01*
X462024Y46049D01*
X461992Y46145D01*
X461963Y46242D01*
X461937Y46340D01*
X461916Y46439D01*
X461898Y46539D01*
X461885Y46639D01*
X461875Y46740D01*
X461869Y46841D01*
X461867Y46942D01*
X461868Y46942D02*
X461868Y49552D01*
X461870Y49681D01*
X461876Y49809D01*
X461886Y49937D01*
X461900Y50065D01*
X461917Y50193D01*
X461939Y50320D01*
X461965Y50446D01*
X461994Y50571D01*
X462027Y50695D01*
X462065Y50818D01*
X462105Y50940D01*
X462150Y51061D01*
X462198Y51180D01*
X462250Y51298D01*
X462306Y51414D01*
X462365Y51528D01*
X462428Y51640D01*
X462494Y51751D01*
X462563Y51859D01*
X462636Y51965D01*
X462712Y52069D01*
X462791Y52171D01*
X462873Y52270D01*
X462958Y52366D01*
X463046Y52460D01*
X463137Y52551D01*
X463231Y52639D01*
X463327Y52724D01*
X463426Y52806D01*
X463528Y52885D01*
X463632Y52961D01*
X463738Y53034D01*
X463846Y53103D01*
X463956Y53169D01*
X464069Y53232D01*
X464183Y53291D01*
X464299Y53347D01*
X464417Y53399D01*
X464536Y53447D01*
X464657Y53492D01*
X464779Y53532D01*
X464902Y53570D01*
X465026Y53603D01*
X465151Y53632D01*
X465277Y53658D01*
X465404Y53680D01*
X465532Y53697D01*
X465660Y53711D01*
X465788Y53721D01*
X465916Y53727D01*
X466045Y53729D01*
M02*
