G04 EAGLE Gerber RS-274X export*
G75*
%MOMM*%
%FSLAX34Y34*%
%LPD*%
%INSolderpaste Top*%
%IPPOS*%
%AMOC8*
5,1,8,0,0,1.08239X$1,22.5*%
G01*
%ADD10R,1.300000X1.500000*%
%ADD11R,0.900000X0.350000*%


D10*
X219500Y380000D03*
X200500Y380000D03*
X550500Y380000D03*
X569500Y380000D03*
X480500Y380000D03*
X499500Y380000D03*
X380500Y120000D03*
X399500Y120000D03*
X360500Y50000D03*
X379500Y50000D03*
X620500Y380000D03*
X639500Y380000D03*
X713550Y155000D03*
X694550Y155000D03*
X170500Y260000D03*
X189500Y260000D03*
X259500Y50000D03*
X240500Y50000D03*
D11*
X580250Y121700D03*
X580250Y115200D03*
X580250Y108700D03*
X580250Y102200D03*
X580250Y95700D03*
X580250Y89200D03*
X580250Y82700D03*
X580250Y76200D03*
X637750Y76200D03*
X637750Y82700D03*
X637750Y89200D03*
X637750Y95700D03*
X637750Y102200D03*
X637750Y108700D03*
X637750Y115200D03*
X637750Y121700D03*
D10*
X600500Y450000D03*
X619500Y450000D03*
X680500Y450000D03*
X699500Y450000D03*
X760500Y450000D03*
X779500Y450000D03*
X690500Y380000D03*
X709500Y380000D03*
X720500Y260000D03*
X739500Y260000D03*
X539500Y450000D03*
X520500Y450000D03*
X459500Y450000D03*
X440500Y450000D03*
X499500Y120000D03*
X480500Y120000D03*
X480500Y180000D03*
X499500Y180000D03*
X380500Y180000D03*
X399500Y180000D03*
X120500Y450000D03*
X139500Y450000D03*
X200500Y450000D03*
X219500Y450000D03*
X280500Y450000D03*
X299500Y450000D03*
X340500Y380000D03*
X359500Y380000D03*
X270500Y380000D03*
X289500Y380000D03*
X300500Y120000D03*
X319500Y120000D03*
X400500Y380000D03*
X419500Y380000D03*
X379500Y450000D03*
X360500Y450000D03*
X120500Y50000D03*
X139500Y50000D03*
X200500Y120000D03*
X219500Y120000D03*
X480500Y50000D03*
X499500Y50000D03*
M02*
