G04 EAGLE Gerber RS-274X export*
G75*
%MOMM*%
%FSLAX34Y34*%
%LPD*%
%INSoldermask Bottom*%
%IPPOS*%
%AMOC8*
5,1,8,0,0,1.08239X$1,22.5*%
G01*
%ADD10C,1.524000*%
%ADD11C,2.717800*%
%ADD12C,1.117600*%


D10*
X241900Y231900D03*
X267300Y231900D03*
X267300Y308100D03*
X241900Y308100D03*
X292700Y231900D03*
X318100Y231900D03*
X292700Y308100D03*
X318100Y308100D03*
X411900Y231900D03*
X437300Y231900D03*
X437300Y308100D03*
X411900Y308100D03*
X462700Y231900D03*
X488100Y231900D03*
X462700Y308100D03*
X488100Y308100D03*
X581900Y231900D03*
X607300Y231900D03*
X607300Y308100D03*
X581900Y308100D03*
X632700Y231900D03*
X658100Y231900D03*
X632700Y308100D03*
X658100Y308100D03*
D11*
X127573Y369812D02*
X102427Y369812D01*
X102427Y330188D02*
X127573Y330188D01*
X797427Y369812D02*
X822573Y369812D01*
X822573Y330188D02*
X797427Y330188D01*
X127573Y125122D02*
X102427Y125122D01*
X102427Y164746D02*
X127573Y164746D01*
X127573Y204370D02*
X102427Y204370D01*
X797427Y125122D02*
X822573Y125122D01*
X822573Y164746D02*
X797427Y164746D01*
X797427Y204370D02*
X822573Y204370D01*
D12*
X200000Y331250D03*
X50000Y50000D03*
X850000Y450000D03*
X850000Y50000D03*
X50000Y450000D03*
X318750Y356250D03*
X518750Y356250D03*
X662500Y337500D03*
X662500Y418750D03*
M02*
