G04 EAGLE Gerber RS-274X export*
G75*
%MOMM*%
%FSLAX34Y34*%
%LPD*%
%INSoldermask Top*%
%IPPOS*%
%AMOC8*
5,1,8,0,0,1.08239X$1,22.5*%
G01*
%ADD10R,1.503200X1.703200*%
%ADD11C,1.524000*%
%ADD12R,1.103200X0.553200*%
%ADD13C,2.717800*%
%ADD14C,1.117600*%


D10*
X219500Y380000D03*
X200500Y380000D03*
X550500Y380000D03*
X569500Y380000D03*
X480500Y380000D03*
X499500Y380000D03*
X380500Y120000D03*
X399500Y120000D03*
X360500Y50000D03*
X379500Y50000D03*
X620500Y380000D03*
X639500Y380000D03*
X713550Y155000D03*
X694550Y155000D03*
X170500Y260000D03*
X189500Y260000D03*
X259500Y50000D03*
X240500Y50000D03*
D11*
X241900Y231900D03*
X267300Y231900D03*
X267300Y308100D03*
X241900Y308100D03*
X292700Y231900D03*
X318100Y231900D03*
X292700Y308100D03*
X318100Y308100D03*
X411900Y231900D03*
X437300Y231900D03*
X437300Y308100D03*
X411900Y308100D03*
X462700Y231900D03*
X488100Y231900D03*
X462700Y308100D03*
X488100Y308100D03*
X581900Y231900D03*
X607300Y231900D03*
X607300Y308100D03*
X581900Y308100D03*
X632700Y231900D03*
X658100Y231900D03*
X632700Y308100D03*
X658100Y308100D03*
D12*
X580250Y121700D03*
X580250Y115200D03*
X580250Y108700D03*
X580250Y102200D03*
X580250Y95700D03*
X580250Y89200D03*
X580250Y82700D03*
X580250Y76200D03*
X637750Y76200D03*
X637750Y82700D03*
X637750Y89200D03*
X637750Y95700D03*
X637750Y102200D03*
X637750Y108700D03*
X637750Y115200D03*
X637750Y121700D03*
D13*
X127573Y369812D02*
X102427Y369812D01*
X102427Y330188D02*
X127573Y330188D01*
X797427Y369812D02*
X822573Y369812D01*
X822573Y330188D02*
X797427Y330188D01*
X127573Y125122D02*
X102427Y125122D01*
X102427Y164746D02*
X127573Y164746D01*
X127573Y204370D02*
X102427Y204370D01*
X797427Y125122D02*
X822573Y125122D01*
X822573Y164746D02*
X797427Y164746D01*
X797427Y204370D02*
X822573Y204370D01*
D10*
X600500Y450000D03*
X619500Y450000D03*
X680500Y450000D03*
X699500Y450000D03*
X760500Y450000D03*
X779500Y450000D03*
X690500Y380000D03*
X709500Y380000D03*
X720500Y260000D03*
X739500Y260000D03*
X539500Y450000D03*
X520500Y450000D03*
X459500Y450000D03*
X440500Y450000D03*
X499500Y120000D03*
X480500Y120000D03*
X480500Y180000D03*
X499500Y180000D03*
X380500Y180000D03*
X399500Y180000D03*
X120500Y450000D03*
X139500Y450000D03*
X200500Y450000D03*
X219500Y450000D03*
X280500Y450000D03*
X299500Y450000D03*
X340500Y380000D03*
X359500Y380000D03*
X270500Y380000D03*
X289500Y380000D03*
X300500Y120000D03*
X319500Y120000D03*
X400500Y380000D03*
X419500Y380000D03*
X379500Y450000D03*
X360500Y450000D03*
X120500Y50000D03*
X139500Y50000D03*
X200500Y120000D03*
X219500Y120000D03*
X480500Y50000D03*
X499500Y50000D03*
D14*
X200000Y331250D03*
X50000Y50000D03*
X850000Y450000D03*
X850000Y50000D03*
X50000Y450000D03*
X318750Y356250D03*
X518750Y356250D03*
X662500Y337500D03*
X662500Y418750D03*
M02*
