M48
;GenerationSoftware,Autodesk,EAGLE,9.6.2*%
;CreationDate,2022-03-19T15:48:53Z*%
FMAT,2
ICI,OFF
METRIC,TZ,000.000
T3C0.508
T2C0.813
T1C1.676
%
G90
M71
T1
X11500Y12512
X81000Y12512
X11500Y20437
X11500Y16475
X81000Y33019
X81000Y20437
X81000Y36981
X11500Y33019
X11500Y36981
X81000Y16475
T2
X24190Y23190
X26730Y30810
X24190Y30810
X29270Y23190
X31810Y23190
X29270Y30810
X31810Y30810
X41190Y23190
X43730Y23190
X43730Y30810
X41190Y30810
X46270Y23190
X48810Y23190
X46270Y30810
X48810Y30810
X58190Y23190
X60730Y23190
X60730Y30810
X58190Y30810
X63270Y23190
X65810Y23190
X63270Y30810
X26730Y23190
X65810Y30810
T3
X66250Y33750
X51875Y35625
X5000Y45000
X20000Y33125
X85000Y5000
X85000Y45000
X5000Y5000
X31875Y35625
X66250Y41875
M30